New_Shree-Regular.ufo
<glyph name="DoubleDanda" format="1">
  <advance width="370"/>
  <outline>
    <contour>
      <point x="195" y="499" type="line"/>
      <point x="195" y="-20" type="line"/>
      <point x="145" y="-20" type="line"/>
      <point x="145" y="499" type="line"/>
    </contour>
    <contour>
      <point x="322" y="499" type="line"/>
      <point x="322" y="-20" type="line"/>
      <point x="272" y="-20" type="line"/>
      <point x="272" y="499" type="line"/>
    </contour>
  </outline>
</glyph>
<glyph name="bAa" format="1">
  <advance width="753"/>
  <outline>
    <contour>
      <point x="345" y="87"/>
      <point x="403" y="157"/>
      <point x="403" y="246" type="curve"/>
      <point x="403" y="345"/>
      <point x="328" y="421"/>
      <point x="244" y="421" type="curve" smooth="yes"/>
      <point x="190" y="421"/>
      <point x="152" y="389"/>
      <point x="152" y="345" type="curve" smooth="yes"/>
      <point x="152" y="305"/>
      <point x="182" y="273"/>
      <point x="222" y="273" type="curve" smooth="yes"/>
      <point x="259" y="273"/>
      <point x="290" y="301"/>
      <point x="290" y="342" type="curve" smooth="yes"/>
      <point x="290" y="362"/>
      <point x="282" y="379"/>
      <point x="270" y="391" type="curve"/>
      <point x="254" y="364" type="line"/>
      <point x="262" y="366"/>
      <point x="270" y="367"/>
      <point x="278" y="367" type="curve" smooth="yes"/>
      <point x="324" y="367"/>
      <point x="360" y="327"/>
      <point x="360" y="272" type="curve" smooth="yes"/>
      <point x="360" y="207"/>
      <point x="310" y="161"/>
      <point x="241" y="161" type="curve" smooth="yes"/>
      <point x="160" y="161"/>
      <point x="98" y="226"/>
      <point x="32" y="413" type="curve"/>
      <point x="2" y="401" type="line"/>
      <point x="70" y="192"/>
      <point x="153" y="87"/>
      <point x="258" y="87" type="curve" smooth="yes"/>
    </contour>
    <contour>
      <point x="516" y="0" type="line"/>
      <point x="516" y="466" type="line"/>
      <point x="466" y="466" type="line"/>
      <point x="466" y="107" type="line"/>
      <point x="485" y="98" type="line"/>
      <point x="462" y="166"/>
      <point x="419" y="227"/>
      <point x="384" y="259" type="curve"/>
      <point x="370" y="195" type="line"/>
      <point x="425" y="165"/>
      <point x="472" y="93"/>
      <point x="482" y="0" type="curve"/>
    </contour>
    <contour>
      <point x="571" y="456" type="line"/>
      <point x="571" y="499" type="line"/>
      <point x="-15" y="499" type="line"/>
      <point x="-15" y="456" type="line"/>
    </contour>
    <contour>
      <point x="688" y="0" type="line"/>
      <point x="688" y="456" type="line"/>
      <point x="768" y="456" type="line"/>
      <point x="768" y="499" type="line"/>
      <point x="645" y="499" type="line"/>
      <point x="638" y="379" type="line"/>
      <point x="658" y="387" type="line"/>
      <point x="647" y="457"/>
      <point x="619" y="499"/>
      <point x="583" y="499" type="curve" smooth="yes"/>
      <point x="553" y="499" type="line"/>
      <point x="553" y="456" type="line"/>
      <point x="577" y="456" type="line" smooth="yes"/>
      <point x="615" y="456"/>
      <point x="638" y="413"/>
      <point x="638" y="361" type="curve" smooth="yes"/>
      <point x="638" y="0" type="line"/>
    </contour>
  </outline>
</glyph>
<glyph name="bAi" format="1">
  <advance width="555"/>
  <outline>
    <contour>
      <point x="465" y="0" type="line"/>
      <point x="465" y="398" type="line" smooth="yes"/>
      <point x="465" y="449"/>
      <point x="418" y="508"/>
      <point x="363" y="508" type="curve" smooth="yes"/>
      <point x="287" y="508"/>
      <point x="176" y="397"/>
      <point x="176" y="302" type="curve" smooth="yes"/>
      <point x="176" y="244"/>
      <point x="217" y="204"/>
      <point x="270" y="204" type="curve" smooth="yes"/>
      <point x="312" y="204"/>
      <point x="340" y="230"/>
      <point x="340" y="265" type="curve" smooth="yes"/>
      <point x="340" y="299"/>
      <point x="314" y="323"/>
      <point x="283" y="323" type="curve" smooth="yes"/>
      <point x="260" y="323"/>
      <point x="240" y="309"/>
      <point x="233" y="291" type="curve"/>
      <point x="257" y="274" type="line"/>
      <point x="250" y="283"/>
      <point x="248" y="295"/>
      <point x="248" y="302" type="curve" smooth="yes"/>
      <point x="248" y="361"/>
      <point x="345" y="456"/>
      <point x="389" y="456" type="curve" smooth="yes"/>
      <point x="406" y="456"/>
      <point x="415" y="442"/>
      <point x="415" y="421" type="curve" smooth="yes"/>
      <point x="415" y="81" type="line"/>
      <point x="433" y="63" type="line"/>
      <point x="416" y="117"/>
      <point x="376" y="152"/>
      <point x="322" y="152" type="curve" smooth="yes"/>
      <point x="294" y="152"/>
      <point x="220" y="142"/>
      <point x="185" y="142" type="curve" smooth="yes"/>
      <point x="104" y="142"/>
      <point x="62" y="194"/>
      <point x="62" y="264" type="curve" smooth="yes"/>
      <point x="62" y="299"/>
      <point x="73" y="333"/>
      <point x="90" y="359" type="curve"/>
      <point x="63" y="374" type="line"/>
      <point x="38" y="337"/>
      <point x="25" y="297"/>
      <point x="25" y="255" type="curve" smooth="yes"/>
      <point x="25" y="152"/>
      <point x="105" y="74"/>
      <point x="211" y="74" type="curve" smooth="yes"/>
      <point x="252" y="74"/>
      <point x="323" y="85"/>
      <point x="355" y="85" type="curve" smooth="yes"/>
      <point x="403" y="85"/>
      <point x="426" y="59"/>
      <point x="431" y="0" type="curve"/>
    </contour>
    <contour>
      <point x="518" y="349"/>
      <point x="544" y="392"/>
      <point x="544" y="444" type="curve" smooth="yes"/>
      <point x="544" y="520"/>
      <point x="485" y="595"/>
      <point x="376" y="624" type="curve" smooth="yes"/>
      <point x="251" y="659"/>
      <point x="194" y="668"/>
      <point x="194" y="702" type="curve" smooth="yes"/>
      <point x="194" y="715"/>
      <point x="203" y="727"/>
      <point x="219" y="742" type="curve"/>
      <point x="199" y="760" type="line"/>
      <point x="173" y="741"/>
      <point x="159" y="716"/>
      <point x="159" y="690" type="curve" smooth="yes"/>
      <point x="159" y="616"/>
      <point x="265" y="587"/>
      <point x="345" y="567" type="curve" smooth="yes"/>
      <point x="399" y="554"/>
      <point x="509" y="527"/>
      <point x="509" y="446" type="curve" smooth="yes"/>
      <point x="509" y="412"/>
      <point x="491" y="389"/>
      <point x="461" y="389" type="curve"/>
      <point x="461" y="325" type="line"/>
    </contour>
  </outline>
</glyph>
<glyph name="bAnusvara" format="1">
  <advance width="293"/>
  <outline>
    <contour>
      <point x="273" y="15" type="line"/>
      <point x="216" y="133"/>
      <point x="143" y="221"/>
      <point x="57" y="262" type="curve"/>
      <point x="27" y="192" type="line"/>
      <point x="121" y="154"/>
      <point x="196" y="79"/>
      <point x="244" y="-5" type="curve"/>
    </contour>
    <contour>
      <point x="212" y="294"/>
      <point x="258" y="341"/>
      <point x="258" y="398" type="curve" smooth="yes"/>
      <point x="258" y="457"/>
      <point x="210" y="508"/>
      <point x="148" y="508" type="curve" smooth="yes"/>
      <point x="90" y="508"/>
      <point x="43" y="462"/>
      <point x="43" y="403" type="curve" smooth="yes"/>
      <point x="43" y="344"/>
      <point x="91" y="294"/>
      <point x="153" y="294" type="curve" smooth="yes"/>
    </contour>
    <contour>
      <point x="103" y="343"/>
      <point x="88" y="359"/>
      <point x="88" y="379" type="curve" smooth="yes"/>
      <point x="88" y="415"/>
      <point x="134" y="457"/>
      <point x="173" y="457" type="curve" smooth="yes"/>
      <point x="197" y="457"/>
      <point x="211" y="440"/>
      <point x="211" y="420" type="curve" smooth="yes"/>
      <point x="211" y="384"/>
      <point x="166" y="343"/>
      <point x="127" y="343" type="curve" smooth="yes"/>
    </contour>
  </outline>
</glyph>
<glyph name="bAu" format="1">
  <advance width="569"/>
  <outline>
    <contour>
      <point x="439" y="27"/>
      <point x="503" y="90"/>
      <point x="503" y="171" type="curve" smooth="yes"/>
      <point x="503" y="232"/>
      <point x="467" y="278"/>
      <point x="432" y="300" type="curve"/>
      <point x="411" y="245" type="line"/>
      <point x="453" y="272"/>
      <point x="483" y="327"/>
      <point x="483" y="380" type="curve" smooth="yes"/>
      <point x="483" y="450"/>
      <point x="426" y="508"/>
      <point x="342" y="508" type="curve" smooth="yes"/>
      <point x="245" y="508"/>
      <point x="152" y="433"/>
      <point x="152" y="350" type="curve" smooth="yes"/>
      <point x="152" y="304"/>
      <point x="180" y="272"/>
      <point x="216" y="272" type="curve" smooth="yes"/>
      <point x="246" y="272"/>
      <point x="271" y="295"/>
      <point x="271" y="326" type="curve" smooth="yes"/>
      <point x="271" y="363"/>
      <point x="237" y="392"/>
      <point x="196" y="383" type="curve"/>
      <point x="218" y="343" type="line"/>
      <point x="246" y="422"/>
      <point x="314" y="458"/>
      <point x="370" y="458" type="curve" smooth="yes"/>
      <point x="413" y="458"/>
      <point x="436" y="436"/>
      <point x="436" y="403" type="curve" smooth="yes"/>
      <point x="436" y="372"/>
      <point x="417" y="334"/>
      <point x="386" y="315" type="curve"/>
      <point x="432" y="301" type="line"/>
      <point x="419" y="322"/>
      <point x="395" y="342"/>
      <point x="365" y="342" type="curve" smooth="yes"/>
      <point x="331" y="342"/>
      <point x="306" y="316"/>
      <point x="306" y="284" type="curve" smooth="yes"/>
      <point x="306" y="251"/>
      <point x="333" y="226"/>
      <point x="367" y="226" type="curve" smooth="yes"/>
      <point x="399" y="226"/>
      <point x="424" y="247"/>
      <point x="440" y="270" type="curve"/>
      <point x="399" y="268" type="line"/>
      <point x="435" y="258"/>
      <point x="453" y="237"/>
      <point x="453" y="201" type="curve" smooth="yes"/>
      <point x="453" y="145"/>
      <point x="408" y="102"/>
      <point x="337" y="102" type="curve" smooth="yes"/>
      <point x="235" y="102"/>
      <point x="128" y="190"/>
      <point x="50" y="422" type="curve"/>
      <point x="18" y="409" type="line"/>
      <point x="99" y="155"/>
      <point x="227" y="27"/>
      <point x="351" y="27" type="curve" smooth="yes"/>
    </contour>
    <contour>
      <point x="512" y="308"/>
      <point x="546" y="367"/>
      <point x="546" y="432" type="curve" smooth="yes"/>
      <point x="546" y="520"/>
      <point x="483" y="597"/>
      <point x="375" y="624" type="curve" smooth="yes"/>
      <point x="241" y="661"/>
      <point x="186" y="670"/>
      <point x="186" y="703" type="curve" smooth="yes"/>
      <point x="186" y="716"/>
      <point x="195" y="727"/>
      <point x="211" y="742" type="curve"/>
      <point x="191" y="760" type="line"/>
      <point x="165" y="741"/>
      <point x="151" y="717"/>
      <point x="151" y="690" type="curve" smooth="yes"/>
      <point x="151" y="617"/>
      <point x="261" y="588"/>
      <point x="345" y="567" type="curve" smooth="yes"/>
      <point x="405" y="553"/>
      <point x="511" y="524"/>
      <point x="511" y="436" type="curve" smooth="yes"/>
      <point x="511" y="387"/>
      <point x="478" y="350"/>
      <point x="427" y="324" type="curve"/>
      <point x="430" y="262" type="line"/>
    </contour>
  </outline>
</glyph>
<glyph name="bAuMark" format="1">
  <advance width="187"/>
  <outline>
    <contour>
      <point x="112" y="580"/>
      <point x="68" y="632"/>
      <point x="-26" y="632" type="curve" smooth="yes"/>
      <point x="-75" y="632"/>
      <point x="-191" y="619"/>
      <point x="-242" y="619" type="curve" smooth="yes"/>
      <point x="-303" y="619"/>
      <point x="-325" y="638"/>
      <point x="-325" y="664" type="curve" smooth="yes"/>
      <point x="-325" y="680"/>
      <point x="-318" y="695"/>
      <point x="-307" y="709" type="curve"/>
      <point x="-332" y="726" type="line"/>
      <point x="-348" y="709"/>
      <point x="-361" y="687"/>
      <point x="-361" y="659" type="curve" smooth="yes"/>
      <point x="-361" y="600"/>
      <point x="-306" y="558"/>
      <point x="-220" y="558" type="curve" smooth="yes"/>
      <point x="-173" y="558"/>
      <point x="-34" y="571"/>
      <point x="13" y="571" type="curve" smooth="yes"/>
      <point x="61" y="571"/>
      <point x="78" y="557"/>
      <point x="78" y="526" type="curve" smooth="yes"/>
      <point x="78" y="516"/>
      <point x="76" y="504"/>
      <point x="72" y="494" type="curve"/>
      <point x="121" y="493" type="line"/>
    </contour>
    <contour>
      <point x="72" y="0" type="line"/>
      <point x="122" y="0" type="line"/>
      <point x="122" y="467" type="line"/>
      <point x="72" y="467" type="line"/>
    </contour>
    <contour>
      <point x="202" y="456" type="line"/>
      <point x="202" y="499" type="line"/>
      <point x="-15" y="499" type="line"/>
      <point x="-15" y="456" type="line"/>
    </contour>
  </outline>
</glyph>
<glyph name="bBBa" format="1">
  <advance width="710"/>
  <outline>
    <contour>
      <point x="645" y="0" type="line"/>
      <point x="645" y="466" type="line"/>
      <point x="595" y="466" type="line"/>
      <point x="595" y="72" type="line"/>
      <point x="618" y="69" type="line"/>
      <point x="575" y="169"/>
      <point x="474" y="248"/>
      <point x="382" y="275" type="curve"/>
      <point x="387" y="244" type="line"/>
      <point x="455" y="300"/>
      <point x="542" y="346"/>
      <point x="629" y="373" type="curve"/>
      <point x="615" y="438" type="line"/>
      <point x="530" y="418"/>
      <point x="411" y="356"/>
      <point x="324" y="286" type="curve"/>
      <point x="386" y="202" type="line"/>
      <point x="488" y="186"/>
      <point x="589" y="115"/>
      <point x="611" y="0" type="curve"/>
    </contour>
    <contour>
      <point x="352" y="31" type="line"/>
      <point x="352" y="466" type="line"/>
      <point x="302" y="466" type="line"/>
      <point x="302" y="101" type="line"/>
      <point x="320" y="96" type="line"/>
      <point x="283" y="196"/>
      <point x="178" y="256"/>
      <point x="81" y="276" type="curve"/>
      <point x="85" y="245" type="line"/>
      <point x="156" y="300"/>
      <point x="245" y="347"/>
      <point x="336" y="373" type="curve"/>
      <point x="323" y="438" type="line"/>
      <point x="233" y="419"/>
      <point x="108" y="359"/>
      <point x="17" y="288" type="curve"/>
      <point x="76" y="206" type="line"/>
      <point x="203" y="192"/>
      <point x="296" y="135"/>
      <point x="318" y="31" type="curve"/>
    </contour>
    <contour>
      <point x="433" y="456" type="line"/>
      <point x="433" y="499" type="line"/>
      <point x="-15" y="499" type="line"/>
      <point x="-15" y="456" type="line"/>
    </contour>
    <contour>
      <point x="725" y="456" type="line"/>
      <point x="725" y="499" type="line"/>
      <point x="362" y="499" type="line"/>
      <point x="362" y="456" type="line"/>
    </contour>
  </outline>
</glyph>
<glyph name="bBBha" format="1">
  <advance width="499"/>
  <outline>
    <contour>
      <point x="419" y="-40"/>
      <point x="489" y="26"/>
      <point x="489" y="119" type="curve" smooth="yes"/>
      <point x="489" y="179"/>
      <point x="461" y="231"/>
      <point x="421" y="268" type="curve"/>
      <point x="385" y="207"/>
      <point x="332" y="164"/>
      <point x="275" y="164" type="curve" smooth="yes"/>
      <point x="262" y="164"/>
      <point x="249" y="167"/>
      <point x="237" y="173" type="curve"/>
      <point x="255" y="136" type="line"/>
      <point x="272" y="146"/>
      <point x="282" y="161"/>
      <point x="282" y="183" type="curve" smooth="yes"/>
      <point x="282" y="214"/>
      <point x="257" y="233"/>
      <point x="232" y="233" type="curve" smooth="yes"/>
      <point x="204" y="233"/>
      <point x="181" y="211"/>
      <point x="181" y="180" type="curve" smooth="yes"/>
      <point x="181" y="139"/>
      <point x="222" y="103"/>
      <point x="282" y="103" type="curve" smooth="yes"/>
      <point x="352" y="103"/>
      <point x="419" y="152"/>
      <point x="454" y="210" type="curve"/>
      <point x="420" y="206" type="line"/>
      <point x="434" y="191"/>
      <point x="442" y="170"/>
      <point x="442" y="146" type="curve" smooth="yes"/>
      <point x="442" y="81"/>
      <point x="388" y="33"/>
      <point x="311" y="33" type="curve" smooth="yes"/>
      <point x="194" y="33"/>
      <point x="107" y="143"/>
      <point x="38" y="393" type="curve"/>
      <point x="3" y="383" type="line"/>
      <point x="74" y="112"/>
      <point x="176" y="-40"/>
      <point x="322" y="-40" type="curve" smooth="yes"/>
    </contour>
    <contour>
      <point x="376" y="173" type="line"/>
      <point x="340" y="256"/>
      <point x="279" y="322"/>
      <point x="180" y="342" type="curve"/>
      <point x="193" y="307" type="line"/>
      <point x="242" y="343"/>
      <point x="303" y="368"/>
      <point x="359" y="382" type="curve"/>
      <point x="340" y="437" type="line"/>
      <point x="283" y="425"/>
      <point x="207" y="394"/>
      <point x="136" y="346" type="curve"/>
      <point x="182" y="284" type="line"/>
      <point x="263" y="275"/>
      <point x="314" y="242"/>
      <point x="344" y="173" type="curve"/>
    </contour>
    <contour>
      <point x="378" y="467" type="line"/>
      <point x="335" y="467" type="line"/>
      <point x="335" y="203" type="line"/>
      <point x="378" y="173" type="line"/>
    </contour>
    <contour>
      <point x="514" y="456" type="line"/>
      <point x="514" y="499" type="line"/>
      <point x="-15" y="499" type="line"/>
      <point x="-15" y="456" type="line"/>
    </contour>
  </outline>
</glyph>
<glyph name="bBDRa" format="1">
  <advance width="614"/>
  <outline>
    <contour>
      <point x="539" y="-29" type="line"/>
      <point x="525" y="36"/>
      <point x="519" y="100"/>
      <point x="519" y="143" type="curve" smooth="yes"/>
      <point x="519" y="220"/>
      <point x="539" y="280"/>
      <point x="592" y="345" type="curve"/>
      <point x="525" y="409" type="line"/>
      <point x="434" y="374"/>
      <point x="356" y="297"/>
      <point x="308" y="210" type="curve"/>
      <point x="328" y="184" type="line"/>
      <point x="328" y="467" type="line"/>
      <point x="278" y="467" type="line"/>
      <point x="278" y="166" type="line"/>
      <point x="335" y="129" type="line"/>
      <point x="387" y="225"/>
      <point x="451" y="292"/>
      <point x="517" y="328" type="curve"/>
      <point x="518" y="362" type="line"/>
      <point x="490" y="323"/>
      <point x="473" y="255"/>
      <point x="473" y="180" type="curve" smooth="yes"/>
      <point x="473" y="131"/>
      <point x="480" y="72"/>
      <point x="493" y="10" type="curve"/>
      <point x="509" y="7" type="line"/>
      <point x="486" y="62"/>
      <point x="433" y="88"/>
      <point x="372" y="88" type="curve" smooth="yes"/>
      <point x="333" y="88"/>
      <point x="223" y="78"/>
      <point x="177" y="78" type="curve" smooth="yes"/>
      <point x="111" y="78"/>
      <point x="79" y="99"/>
      <point x="79" y="143" type="curve" smooth="yes"/>
      <point x="79" y="160"/>
      <point x="84" y="178"/>
      <point x="89" y="194" type="curve"/>
      <point x="61" y="204" type="line"/>
      <point x="52" y="185"/>
      <point x="46" y="162"/>
      <point x="46" y="139" type="curve" smooth="yes"/>
      <point x="46" y="69"/>
      <point x="108" y="12"/>
      <point x="203" y="12" type="curve" smooth="yes"/>
      <point x="253" y="12"/>
      <point x="379" y="29"/>
      <point x="423" y="29" type="curve" smooth="yes"/>
      <point x="473" y="29"/>
      <point x="497" y="5"/>
      <point x="506" y="-35" type="curve"/>
    </contour>
    <contour>
      <point x="296" y="187" type="line"/>
      <point x="257" y="257"/>
      <point x="178" y="308"/>
      <point x="88" y="325" type="curve"/>
      <point x="104" y="290" type="line"/>
      <point x="169" y="334"/>
      <point x="238" y="362"/>
      <point x="306" y="378" type="curve"/>
      <point x="292" y="436" type="line"/>
      <point x="225" y="423"/>
      <point x="133" y="386"/>
      <point x="45" y="330" type="curve"/>
      <point x="92" y="265" type="line"/>
      <point x="176" y="254"/>
      <point x="242" y="222"/>
      <point x="278" y="166" type="curve"/>
    </contour>
    <contour>
      <point x="504" y="456" type="line"/>
      <point x="504" y="499" type="line"/>
      <point x="-15" y="499" type="line"/>
      <point x="-15" y="456" type="line"/>
    </contour>
    <contour>
      <point x="629" y="456" type="line"/>
      <point x="629" y="499" type="line"/>
      <point x="222" y="499" type="line"/>
      <point x="222" y="456" type="line"/>
    </contour>
  </outline>
</glyph>
<glyph name="bBDa" format="1">
  <advance width="574"/>
  <outline>
    <contour>
      <point x="492" y="-12" type="line"/>
      <point x="482" y="45"/>
      <point x="478" y="102"/>
      <point x="478" y="139" type="curve" smooth="yes"/>
      <point x="478" y="215"/>
      <point x="498" y="274"/>
      <point x="552" y="338" type="curve"/>
      <point x="485" y="401" type="line"/>
      <point x="395" y="364"/>
      <point x="316" y="285"/>
      <point x="269" y="193" type="curve"/>
      <point x="288" y="173" type="line"/>
      <point x="288" y="467" type="line"/>
      <point x="238" y="467" type="line"/>
      <point x="238" y="152" type="line"/>
      <point x="295" y="101" type="line"/>
      <point x="347" y="209"/>
      <point x="411" y="281"/>
      <point x="477" y="320" type="curve"/>
      <point x="478" y="354" type="line"/>
      <point x="449" y="317"/>
      <point x="432" y="251"/>
      <point x="432" y="176" type="curve" smooth="yes"/>
      <point x="432" y="121"/>
      <point x="441" y="52"/>
      <point x="458" y="-18" type="curve"/>
    </contour>
    <contour>
      <point x="256" y="173" type="line"/>
      <point x="218" y="247"/>
      <point x="138" y="301"/>
      <point x="48" y="319" type="curve"/>
      <point x="64" y="284" type="line"/>
      <point x="129" y="330"/>
      <point x="198" y="361"/>
      <point x="266" y="378" type="curve"/>
      <point x="252" y="436" type="line"/>
      <point x="185" y="422"/>
      <point x="94" y="383"/>
      <point x="5" y="324" type="curve"/>
      <point x="52" y="258" type="line"/>
      <point x="136" y="248"/>
      <point x="203" y="212"/>
      <point x="238" y="152" type="curve"/>
    </contour>
    <contour>
      <point x="468" y="456" type="line"/>
      <point x="468" y="499" type="line"/>
      <point x="-15" y="499" type="line"/>
      <point x="-15" y="456" type="line"/>
    </contour>
    <contour>
      <point x="589" y="456" type="line"/>
      <point x="589" y="499" type="line"/>
      <point x="182" y="499" type="line"/>
      <point x="182" y="456" type="line"/>
    </contour>
  </outline>
</glyph>
<glyph name="bBDda" format="1">
  <advance width="589"/>
  <outline>
    <contour>
      <point x="487" y="0"/>
      <point x="559" y="75"/>
      <point x="559" y="180" type="curve" smooth="yes"/>
      <point x="559" y="257"/>
      <point x="520" y="315"/>
      <point x="473" y="356" type="curve"/>
      <point x="432" y="274"/>
      <point x="383" y="222"/>
      <point x="357" y="222" type="curve" smooth="yes"/>
      <point x="346" y="222"/>
      <point x="342" y="230"/>
      <point x="342" y="242" type="curve" smooth="yes"/>
      <point x="342" y="466" type="line"/>
      <point x="294" y="466" type="line"/>
      <point x="294" y="264" type="line" smooth="yes"/>
      <point x="294" y="215"/>
      <point x="338" y="168"/>
      <point x="380" y="168" type="curve" smooth="yes"/>
      <point x="422" y="168"/>
      <point x="476" y="218"/>
      <point x="510" y="290" type="curve"/>
      <point x="475" y="297" type="line"/>
      <point x="501" y="278"/>
      <point x="519" y="241"/>
      <point x="519" y="201" type="curve" smooth="yes"/>
      <point x="519" y="128"/>
      <point x="455" y="72"/>
      <point x="363" y="72" type="curve" smooth="yes"/>
      <point x="242" y="72"/>
      <point x="125" y="170"/>
      <point x="37" y="414" type="curve"/>
      <point x="5" y="401" type="line"/>
      <point x="99" y="117"/>
      <point x="243" y="0"/>
      <point x="378" y="0" type="curve" smooth="yes"/>
    </contour>
    <contour>
      <point x="317" y="242" type="line"/>
      <point x="286" y="291"/>
      <point x="234" y="324"/>
      <point x="164" y="340" type="curve"/>
      <point x="175" y="323" type="line"/>
      <point x="225" y="354"/>
      <point x="272" y="375"/>
      <point x="313" y="388" type="curve"/>
      <point x="299" y="442" type="line"/>
      <point x="230" y="420"/>
      <point x="182" y="397"/>
      <point x="110" y="353" type="curve"/>
      <point x="153" y="287" type="line"/>
      <point x="220" y="281"/>
      <point x="278" y="260"/>
      <point x="307" y="219" type="curve"/>
    </contour>
    <contour>
      <point x="604" y="456" type="line"/>
      <point x="604" y="499" type="line"/>
      <point x="-15" y="499" type="line"/>
      <point x="-15" y="456" type="line"/>
    </contour>
  </outline>
</glyph>
<glyph name="bBDdha" format="1">
  <advance width="566"/>
  <outline>
    <contour>
      <point x="418" y="7"/>
      <point x="534" y="154"/>
      <point x="534" y="258" type="curve" smooth="yes"/>
      <point x="534" y="313"/>
      <point x="502" y="359"/>
      <point x="452" y="359" type="curve" smooth="yes"/>
      <point x="414" y="359"/>
      <point x="385" y="331"/>
      <point x="385" y="296" type="curve" smooth="yes"/>
      <point x="385" y="261"/>
      <point x="415" y="232"/>
      <point x="453" y="232" type="curve" smooth="yes"/>
      <point x="469" y="232"/>
      <point x="482" y="237"/>
      <point x="495" y="248" type="curve"/>
      <point x="469" y="272" type="line"/>
      <point x="469" y="191"/>
      <point x="377" y="66"/>
      <point x="319" y="66" type="curve" smooth="yes"/>
      <point x="298" y="66"/>
      <point x="288" y="83"/>
      <point x="288" y="123" type="curve" smooth="yes"/>
      <point x="288" y="470" type="line"/>
      <point x="238" y="470" type="line"/>
      <point x="238" y="145" type="line" smooth="yes"/>
      <point x="238" y="65"/>
      <point x="291" y="7"/>
      <point x="340" y="7" type="curve" smooth="yes"/>
    </contour>
    <contour>
      <point x="256" y="173" type="line"/>
      <point x="217" y="247"/>
      <point x="136" y="301"/>
      <point x="46" y="319" type="curve"/>
      <point x="64" y="284" type="line"/>
      <point x="129" y="330"/>
      <point x="198" y="361"/>
      <point x="266" y="378" type="curve"/>
      <point x="252" y="436" type="line"/>
      <point x="185" y="422"/>
      <point x="94" y="383"/>
      <point x="5" y="324" type="curve"/>
      <point x="52" y="258" type="line"/>
      <point x="137" y="248"/>
      <point x="206" y="211"/>
      <point x="240" y="150" type="curve"/>
    </contour>
    <contour>
      <point x="581" y="456" type="line"/>
      <point x="581" y="499" type="line"/>
      <point x="-15" y="499" type="line"/>
      <point x="-15" y="456" type="line"/>
    </contour>
  </outline>
</glyph>
<glyph name="bBDha" format="1">
  <advance width="535"/>
  <outline>
    <contour>
      <point x="339" y="-53" type="line"/>
      <point x="339" y="468" type="line"/>
      <point x="289" y="467" type="line"/>
      <point x="289" y="20" type="line"/>
      <point x="315" y="-1" type="line"/>
      <point x="283" y="71"/>
      <point x="203" y="132"/>
      <point x="113" y="140" type="curve"/>
      <point x="128" y="105" type="line"/>
      <point x="195" y="157"/>
      <point x="264" y="201"/>
      <point x="329" y="232" type="curve"/>
      <point x="314" y="291" type="line"/>
      <point x="255" y="265"/>
      <point x="164" y="213"/>
      <point x="69" y="139" type="curve"/>
      <point x="116" y="79" type="line"/>
      <point x="211" y="78"/>
      <point x="290" y="30"/>
      <point x="309" y="-53" type="curve"/>
    </contour>
    <contour>
      <point x="204" y="202" type="line"/>
      <point x="161" y="244"/>
      <point x="121" y="268"/>
      <point x="71" y="279" type="curve"/>
      <point x="84" y="250" type="line"/>
      <point x="162" y="310"/>
      <point x="248" y="356"/>
      <point x="326" y="376" type="curve"/>
      <point x="310" y="434" type="line"/>
      <point x="221" y="414"/>
      <point x="115" y="357"/>
      <point x="20" y="283" type="curve"/>
      <point x="69" y="222" type="line"/>
      <point x="115" y="219"/>
      <point x="154" y="206"/>
      <point x="181" y="180" type="curve"/>
    </contour>
    <contour>
      <point x="505" y="-19" type="line"/>
      <point x="486" y="-2"/>
      <point x="476" y="22"/>
      <point x="476" y="48" type="curve" smooth="yes"/>
      <point x="476" y="236" type="line" smooth="yes"/>
      <point x="476" y="278"/>
      <point x="434" y="327"/>
      <point x="400" y="327" type="curve" smooth="yes"/>
      <point x="382" y="327"/>
      <point x="348" y="313"/>
      <point x="309" y="289" type="curve"/>
      <point x="328" y="232" type="line"/>
      <point x="364" y="255"/>
      <point x="398" y="273"/>
      <point x="415" y="273" type="curve" smooth="yes"/>
      <point x="423" y="273"/>
      <point x="427" y="269"/>
      <point x="427" y="258" type="curve" smooth="yes"/>
      <point x="427" y="68" type="line" smooth="yes"/>
      <point x="427" y="12"/>
      <point x="452" y="-17"/>
      <point x="489" y="-41" type="curve"/>
    </contour>
    <contour>
      <point x="550" y="456" type="line"/>
      <point x="550" y="499" type="line"/>
      <point x="-15" y="499" type="line"/>
      <point x="-15" y="456" type="line"/>
    </contour>
  </outline>
</glyph>
<glyph name="bBJa" format="1">
  <advance width="680"/>
  <outline>
    <contour>
      <point x="450" y="0"/>
      <point x="508" y="64"/>
      <point x="508" y="154" type="curve" smooth="yes"/>
      <point x="508" y="223"/>
      <point x="473" y="275"/>
      <point x="433" y="311" type="curve"/>
      <point x="402" y="245"/>
      <point x="366" y="204"/>
      <point x="346" y="204" type="curve" smooth="yes"/>
      <point x="337" y="204"/>
      <point x="332" y="211"/>
      <point x="332" y="224" type="curve" smooth="yes"/>
      <point x="332" y="466" type="line"/>
      <point x="284" y="466" type="line"/>
      <point x="284" y="251" type="line" smooth="yes"/>
      <point x="284" y="197"/>
      <point x="327" y="150"/>
      <point x="366" y="150" type="curve" smooth="yes"/>
      <point x="404" y="150"/>
      <point x="445" y="195"/>
      <point x="471" y="252" type="curve"/>
      <point x="435" y="253" type="line"/>
      <point x="454" y="236"/>
      <point x="468" y="208"/>
      <point x="468" y="176" type="curve" smooth="yes"/>
      <point x="468" y="114"/>
      <point x="418" y="71"/>
      <point x="343" y="71" type="curve" smooth="yes"/>
      <point x="233" y="71"/>
      <point x="120" y="168"/>
      <point x="37" y="414" type="curve"/>
      <point x="5" y="401" type="line"/>
      <point x="98" y="107"/>
      <point x="240" y="0"/>
      <point x="357" y="0" type="curve" smooth="yes"/>
    </contour>
    <contour>
      <point x="305" y="234" type="line"/>
      <point x="274" y="283"/>
      <point x="224" y="318"/>
      <point x="155" y="334" type="curve"/>
      <point x="166" y="316" type="line"/>
      <point x="216" y="350"/>
      <point x="262" y="374"/>
      <point x="304" y="388" type="curve"/>
      <point x="290" y="442" type="line"/>
      <point x="221" y="417"/>
      <point x="173" y="393"/>
      <point x="101" y="346" type="curve"/>
      <point x="144" y="281" type="line"/>
      <point x="210" y="276"/>
      <point x="267" y="254"/>
      <point x="294" y="211" type="curve"/>
    </contour>
    <contour>
      <point x="604" y="-20" type="line"/>
      <point x="593" y="38"/>
      <point x="588" y="95"/>
      <point x="588" y="138" type="curve" smooth="yes"/>
      <point x="588" y="213"/>
      <point x="603" y="271"/>
      <point x="650" y="335" type="curve"/>
      <point x="586" y="407" type="line"/>
      <point x="556" y="389"/>
      <point x="524" y="381"/>
      <point x="489" y="381" type="curve" smooth="yes"/>
      <point x="434" y="381"/>
      <point x="380" y="402"/>
      <point x="320" y="474" type="curve"/>
      <point x="301" y="451" type="line"/>
      <point x="379" y="354"/>
      <point x="453" y="324"/>
      <point x="518" y="324" type="curve" smooth="yes"/>
      <point x="552" y="324"/>
      <point x="584" y="332"/>
      <point x="613" y="348" type="curve"/>
      <point x="588" y="368" type="line"/>
      <point x="561" y="325"/>
      <point x="545" y="254"/>
      <point x="545" y="176" type="curve" smooth="yes"/>
      <point x="545" y="120"/>
      <point x="553" y="55"/>
      <point x="570" y="-26" type="curve"/>
    </contour>
    <contour>
      <point x="695" y="456" type="line"/>
      <point x="695" y="499" type="line"/>
      <point x="-15" y="499" type="line"/>
      <point x="-15" y="456" type="line"/>
    </contour>
  </outline>
</glyph>
<glyph name="bBJha" format="1">
  <advance width="529"/>
  <outline>
    <contour>
      <point x="339" y="-53" type="line"/>
      <point x="339" y="468" type="line"/>
      <point x="289" y="467" type="line"/>
      <point x="289" y="20" type="line"/>
      <point x="315" y="-1" type="line"/>
      <point x="283" y="71"/>
      <point x="203" y="132"/>
      <point x="113" y="140" type="curve"/>
      <point x="128" y="105" type="line"/>
      <point x="195" y="161"/>
      <point x="263" y="201"/>
      <point x="329" y="226" type="curve"/>
      <point x="314" y="288" type="line"/>
      <point x="255" y="265"/>
      <point x="164" y="218"/>
      <point x="69" y="139" type="curve"/>
      <point x="116" y="79" type="line"/>
      <point x="211" y="78"/>
      <point x="290" y="30"/>
      <point x="309" y="-53" type="curve"/>
    </contour>
    <contour>
      <point x="204" y="202" type="line"/>
      <point x="161" y="244"/>
      <point x="121" y="268"/>
      <point x="71" y="279" type="curve"/>
      <point x="84" y="250" type="line"/>
      <point x="162" y="310"/>
      <point x="248" y="356"/>
      <point x="326" y="376" type="curve"/>
      <point x="310" y="434" type="line"/>
      <point x="221" y="414"/>
      <point x="115" y="357"/>
      <point x="20" y="283" type="curve"/>
      <point x="69" y="222" type="line"/>
      <point x="115" y="219"/>
      <point x="154" y="206"/>
      <point x="181" y="180" type="curve"/>
    </contour>
    <contour>
      <point x="340" y="456" type="line"/>
      <point x="340" y="499" type="line"/>
      <point x="-15" y="499" type="line"/>
      <point x="-15" y="456" type="line"/>
    </contour>
    <contour>
      <point x="464" y="-16" type="line"/>
      <point x="464" y="456" type="line"/>
      <point x="544" y="456" type="line"/>
      <point x="544" y="499" type="line"/>
      <point x="414" y="499" type="line"/>
      <point x="414" y="60" type="line"/>
      <point x="437" y="47" type="line"/>
      <point x="418" y="103"/>
      <point x="380" y="147"/>
      <point x="329" y="179" type="curve"/>
      <point x="328" y="118" type="line"/>
      <point x="392" y="92"/>
      <point x="422" y="51"/>
      <point x="430" y="-16" type="curve"/>
    </contour>
  </outline>
</glyph>
<glyph name="bBLa" format="1">
  <advance width="433"/>
  <outline>
    <contour>
      <point x="368" y="33" type="line"/>
      <point x="368" y="466" type="line"/>
      <point x="318" y="466" type="line"/>
      <point x="318" y="104" type="line"/>
      <point x="336" y="99" type="line"/>
      <point x="295" y="194"/>
      <point x="201" y="260"/>
      <point x="97" y="279" type="curve"/>
      <point x="101" y="248" type="line"/>
      <point x="172" y="303"/>
      <point x="261" y="347"/>
      <point x="352" y="373" type="curve"/>
      <point x="339" y="438" type="line"/>
      <point x="249" y="418"/>
      <point x="124" y="360"/>
      <point x="33" y="290" type="curve"/>
      <point x="92" y="208" type="line"/>
      <point x="213" y="199"/>
      <point x="329" y="120"/>
      <point x="329" y="33" type="curve"/>
    </contour>
    <contour>
      <point x="165" y="-77"/>
      <point x="187" y="-54"/>
      <point x="187" y="-28" type="curve" smooth="yes"/>
      <point x="187" y="-4"/>
      <point x="169" y="15"/>
      <point x="147" y="15" type="curve" smooth="yes"/>
      <point x="127" y="15"/>
      <point x="110" y="0"/>
      <point x="110" y="-20" type="curve" smooth="yes"/>
      <point x="110" y="-37"/>
      <point x="121" y="-52"/>
      <point x="138" y="-56" type="curve"/>
      <point x="152" y="-29" type="line"/>
      <point x="142" y="-38"/>
      <point x="130" y="-42"/>
      <point x="120" y="-42" type="curve" smooth="yes"/>
      <point x="102" y="-42"/>
      <point x="87" y="-25"/>
      <point x="87" y="-4" type="curve" smooth="yes"/>
      <point x="87" y="26"/>
      <point x="114" y="49"/>
      <point x="149" y="49" type="curve" smooth="yes"/>
      <point x="188" y="49"/>
      <point x="213" y="23"/>
      <point x="223" y="-19" type="curve"/>
      <point x="245" y="-19" type="line"/>
      <point x="245" y="15"/>
      <point x="256" y="35"/>
      <point x="277" y="35" type="curve" smooth="yes"/>
      <point x="304" y="35"/>
      <point x="330" y="5"/>
      <point x="335" y="-51" type="curve"/>
      <point x="368" y="-51" type="line"/>
      <point x="368" y="63" type="line"/>
      <point x="330" y="63" type="line"/>
      <point x="330" y="-1" type="line"/>
      <point x="345" y="-14" type="line"/>
      <point x="334" y="49"/>
      <point x="291" y="93"/>
      <point x="255" y="93" type="curve" smooth="yes"/>
      <point x="229" y="93"/>
      <point x="204" y="70"/>
      <point x="204" y="37" type="curve"/>
      <point x="228" y="23" type="line"/>
      <point x="214" y="73"/>
      <point x="178" y="111"/>
      <point x="128" y="111" type="curve" smooth="yes"/>
      <point x="78" y="111"/>
      <point x="39" y="72"/>
      <point x="39" y="21" type="curve" smooth="yes"/>
      <point x="39" y="-32"/>
      <point x="80" y="-77"/>
      <point x="129" y="-77" type="curve" smooth="yes"/>
    </contour>
    <contour>
      <point x="448" y="456" type="line"/>
      <point x="448" y="499" type="line"/>
      <point x="-15" y="499" type="line"/>
      <point x="-15" y="456" type="line"/>
    </contour>
  </outline>
</glyph>
<glyph name="bBRa" format="1">
  <advance width="456"/>
  <outline>
    <contour>
      <point x="390" y="46" type="line"/>
      <point x="390" y="466" type="line"/>
      <point x="340" y="466" type="line"/>
      <point x="340" y="115" type="line"/>
      <point x="358" y="111" type="line"/>
      <point x="323" y="207"/>
      <point x="215" y="268"/>
      <point x="119" y="286" type="curve"/>
      <point x="123" y="255" type="line"/>
      <point x="194" y="307"/>
      <point x="283" y="349"/>
      <point x="374" y="373" type="curve"/>
      <point x="361" y="438" type="line"/>
      <point x="271" y="419"/>
      <point x="146" y="364"/>
      <point x="55" y="298" type="curve"/>
      <point x="114" y="216" type="line"/>
      <point x="226" y="205"/>
      <point x="338" y="154"/>
      <point x="353" y="46" type="curve"/>
    </contour>
    <contour>
      <point x="391" y="-14" type="line"/>
      <point x="391" y="136" type="line"/>
      <point x="354" y="136" type="line"/>
      <point x="354" y="32" type="line"/>
      <point x="367" y="22" type="line"/>
      <point x="348" y="82"/>
      <point x="299" y="116"/>
      <point x="238" y="116" type="curve" smooth="yes"/>
      <point x="211" y="116"/>
      <point x="160" y="109"/>
      <point x="132" y="109" type="curve" smooth="yes"/>
      <point x="86" y="109"/>
      <point x="62" y="128"/>
      <point x="62" y="162" type="curve" smooth="yes"/>
      <point x="62" y="178"/>
      <point x="67" y="196"/>
      <point x="73" y="213" type="curve"/>
      <point x="46" y="224" type="line"/>
      <point x="35" y="203"/>
      <point x="29" y="178"/>
      <point x="29" y="158" type="curve" smooth="yes"/>
      <point x="29" y="94"/>
      <point x="82" y="44"/>
      <point x="153" y="44" type="curve" smooth="yes"/>
      <point x="188" y="44"/>
      <point x="258" y="56"/>
      <point x="287" y="56" type="curve" smooth="yes"/>
      <point x="332" y="56"/>
      <point x="353" y="27"/>
      <point x="357" y="-14" type="curve"/>
    </contour>
    <contour>
      <point x="471" y="456" type="line"/>
      <point x="471" y="499" type="line"/>
      <point x="-15" y="499" type="line"/>
      <point x="-15" y="456" type="line"/>
    </contour>
  </outline>
</glyph>
<glyph name="bBRa_bSignU" format="1">
  <advance width="608"/>
  <outline>
    <contour>
      <point x="390" y="46" type="line"/>
      <point x="390" y="466" type="line"/>
      <point x="340" y="466" type="line"/>
      <point x="340" y="115" type="line"/>
      <point x="358" y="111" type="line"/>
      <point x="323" y="207"/>
      <point x="215" y="268"/>
      <point x="119" y="286" type="curve"/>
      <point x="123" y="255" type="line"/>
      <point x="194" y="307"/>
      <point x="283" y="349"/>
      <point x="374" y="373" type="curve"/>
      <point x="361" y="438" type="line"/>
      <point x="271" y="419"/>
      <point x="146" y="364"/>
      <point x="55" y="298" type="curve"/>
      <point x="114" y="216" type="line"/>
      <point x="226" y="205"/>
      <point x="338" y="154"/>
      <point x="353" y="46" type="curve"/>
    </contour>
    <contour>
      <point x="391" y="-14" type="line"/>
      <point x="391" y="136" type="line"/>
      <point x="354" y="136" type="line"/>
      <point x="354" y="32" type="line"/>
      <point x="367" y="22" type="line"/>
      <point x="348" y="82"/>
      <point x="299" y="116"/>
      <point x="238" y="116" type="curve" smooth="yes"/>
      <point x="211" y="116"/>
      <point x="160" y="109"/>
      <point x="132" y="109" type="curve" smooth="yes"/>
      <point x="86" y="109"/>
      <point x="62" y="128"/>
      <point x="62" y="162" type="curve" smooth="yes"/>
      <point x="62" y="179"/>
      <point x="67" y="198"/>
      <point x="73" y="213" type="curve"/>
      <point x="46" y="224" type="line"/>
      <point x="35" y="203"/>
      <point x="29" y="178"/>
      <point x="29" y="158" type="curve" smooth="yes"/>
      <point x="29" y="94"/>
      <point x="82" y="44"/>
      <point x="153" y="44" type="curve" smooth="yes"/>
      <point x="188" y="44"/>
      <point x="258" y="56"/>
      <point x="287" y="56" type="curve" smooth="yes"/>
      <point x="332" y="56"/>
      <point x="353" y="27"/>
      <point x="357" y="-14" type="curve"/>
    </contour>
    <contour>
      <point x="544" y="178"/>
      <point x="583" y="222"/>
      <point x="583" y="281" type="curve" smooth="yes"/>
      <point x="583" y="342"/>
      <point x="541" y="394"/>
      <point x="490" y="394" type="curve" smooth="yes"/>
      <point x="457" y="394"/>
      <point x="433" y="370"/>
      <point x="433" y="341" type="curve" smooth="yes"/>
      <point x="433" y="312"/>
      <point x="456" y="292"/>
      <point x="482" y="292" type="curve" smooth="yes"/>
      <point x="509" y="292"/>
      <point x="526" y="312"/>
      <point x="526" y="334" type="curve" smooth="yes"/>
      <point x="526" y="347"/>
      <point x="520" y="359"/>
      <point x="511" y="364" type="curve"/>
      <point x="497" y="346" type="line"/>
      <point x="502" y="348"/>
      <point x="507" y="349"/>
      <point x="512" y="349" type="curve" smooth="yes"/>
      <point x="532" y="349"/>
      <point x="548" y="329"/>
      <point x="548" y="303" type="curve" smooth="yes"/>
      <point x="548" y="268"/>
      <point x="519" y="241"/>
      <point x="482" y="241" type="curve" smooth="yes"/>
      <point x="446" y="241"/>
      <point x="406" y="269"/>
      <point x="384" y="320" type="curve"/>
      <point x="371" y="294" type="line"/>
      <point x="398" y="222"/>
      <point x="442" y="178"/>
      <point x="493" y="178" type="curve" smooth="yes"/>
    </contour>
    <contour>
      <point x="623" y="456" type="line"/>
      <point x="623" y="499" type="line"/>
      <point x="-15" y="499" type="line"/>
      <point x="-15" y="456" type="line"/>
    </contour>
  </outline>
</glyph>
<glyph name="bBRa_bSignUu" format="1">
  <advance width="591"/>
  <outline>
    <contour>
      <point x="390" y="46" type="line"/>
      <point x="390" y="466" type="line"/>
      <point x="340" y="466" type="line"/>
      <point x="340" y="115" type="line"/>
      <point x="358" y="111" type="line"/>
      <point x="323" y="207"/>
      <point x="215" y="268"/>
      <point x="119" y="286" type="curve"/>
      <point x="123" y="255" type="line"/>
      <point x="194" y="307"/>
      <point x="283" y="349"/>
      <point x="374" y="373" type="curve"/>
      <point x="361" y="438" type="line"/>
      <point x="271" y="419"/>
      <point x="146" y="364"/>
      <point x="55" y="298" type="curve"/>
      <point x="114" y="216" type="line"/>
      <point x="226" y="205"/>
      <point x="338" y="154"/>
      <point x="353" y="46" type="curve"/>
    </contour>
    <contour>
      <point x="391" y="-14" type="line"/>
      <point x="391" y="136" type="line"/>
      <point x="354" y="136" type="line"/>
      <point x="354" y="32" type="line"/>
      <point x="367" y="22" type="line"/>
      <point x="348" y="82"/>
      <point x="299" y="116"/>
      <point x="238" y="116" type="curve" smooth="yes"/>
      <point x="211" y="116"/>
      <point x="160" y="109"/>
      <point x="132" y="109" type="curve" smooth="yes"/>
      <point x="86" y="109"/>
      <point x="62" y="128"/>
      <point x="62" y="163" type="curve" smooth="yes"/>
      <point x="62" y="178"/>
      <point x="67" y="196"/>
      <point x="73" y="213" type="curve"/>
      <point x="46" y="224" type="line"/>
      <point x="35" y="203"/>
      <point x="29" y="178"/>
      <point x="29" y="158" type="curve" smooth="yes"/>
      <point x="29" y="94"/>
      <point x="82" y="44"/>
      <point x="153" y="44" type="curve" smooth="yes"/>
      <point x="188" y="44"/>
      <point x="258" y="56"/>
      <point x="287" y="56" type="curve" smooth="yes"/>
      <point x="332" y="56"/>
      <point x="353" y="27"/>
      <point x="357" y="-14" type="curve"/>
    </contour>
    <contour>
      <point x="556" y="30" type="line"/>
      <point x="538" y="47"/>
      <point x="527" y="70"/>
      <point x="527" y="97" type="curve" smooth="yes"/>
      <point x="527" y="305" type="line" smooth="yes"/>
      <point x="527" y="346"/>
      <point x="485" y="395"/>
      <point x="452" y="395" type="curve" smooth="yes"/>
      <point x="433" y="395"/>
      <point x="397" y="379"/>
      <point x="364" y="349" type="curve"/>
      <point x="383" y="295" type="line"/>
      <point x="412" y="322"/>
      <point x="450" y="342"/>
      <point x="468" y="342" type="curve" smooth="yes"/>
      <point x="474" y="342"/>
      <point x="478" y="338"/>
      <point x="478" y="327" type="curve" smooth="yes"/>
      <point x="478" y="117" type="line" smooth="yes"/>
      <point x="478" y="61"/>
      <point x="503" y="32"/>
      <point x="541" y="8" type="curve"/>
    </contour>
    <contour>
      <point x="601" y="456" type="line"/>
      <point x="601" y="499" type="line"/>
      <point x="-15" y="499" type="line"/>
      <point x="-15" y="456" type="line"/>
    </contour>
  </outline>
</glyph>
<glyph name="bBa" format="1">
  <advance width="419"/>
  <outline>
    <contour>
      <point x="354" y="0" type="line"/>
      <point x="354" y="466" type="line"/>
      <point x="304" y="466" type="line"/>
      <point x="304" y="72" type="line"/>
      <point x="323" y="69" type="line"/>
      <point x="282" y="169"/>
      <point x="177" y="248"/>
      <point x="81" y="276" type="curve"/>
      <point x="86" y="243" type="line"/>
      <point x="157" y="300"/>
      <point x="247" y="346"/>
      <point x="338" y="373" type="curve"/>
      <point x="324" y="438" type="line"/>
      <point x="234" y="418"/>
      <point x="108" y="357"/>
      <point x="17" y="286" type="curve"/>
      <point x="79" y="202" type="line"/>
      <point x="188" y="186"/>
      <point x="296" y="115"/>
      <point x="320" y="0" type="curve"/>
    </contour>
    <contour>
      <point x="434" y="456" type="line"/>
      <point x="434" y="499" type="line"/>
      <point x="-15" y="499" type="line"/>
      <point x="-15" y="456" type="line"/>
    </contour>
  </outline>
</glyph>
<glyph name="bBaphala" format="1">
  <advance width="0"/>
  <outline>
    <contour>
      <point x="-66" y="-121" type="line"/>
      <point x="-66" y="117" type="line"/>
      <point x="-91" y="149" type="line"/>
      <point x="-174" y="117"/>
      <point x="-228" y="91"/>
      <point x="-311" y="35" type="curve"/>
      <point x="-265" y="-29" type="line"/>
      <point x="-185" y="-38"/>
      <point x="-119" y="-63"/>
      <point x="-96" y="-121" type="curve"/>
    </contour>
    <contour>
      <point x="-92" y="-82" type="line"/>
      <point x="-123" y="-27"/>
      <point x="-179" y="10"/>
      <point x="-254" y="29" type="curve"/>
      <point x="-242" y="2" type="line"/>
      <point x="-185" y="42"/>
      <point x="-132" y="69"/>
      <point x="-84" y="85" type="curve"/>
      <point x="-113" y="99" type="line"/>
      <point x="-113" y="-75" type="line"/>
    </contour>
  </outline>
</glyph>
<glyph name="bBhBa" format="1">
  <advance width="392"/>
  <outline>
    <contour>
      <point x="407" y="456" type="line"/>
      <point x="407" y="499" type="line"/>
      <point x="-15" y="499" type="line"/>
      <point x="-15" y="456" type="line"/>
    </contour>
    <contour>
      <point x="336" y="198" type="line"/>
      <point x="336" y="269" type="line" smooth="yes"/>
      <point x="336" y="323"/>
      <point x="311" y="378"/>
      <point x="269" y="406" type="curve"/>
      <point x="233" y="352"/>
      <point x="178" y="318"/>
      <point x="131" y="318" type="curve" smooth="yes"/>
      <point x="117" y="318"/>
      <point x="107" y="321"/>
      <point x="98" y="326" type="curve"/>
      <point x="122" y="295" type="line"/>
      <point x="140" y="305"/>
      <point x="151" y="323"/>
      <point x="151" y="347" type="curve" smooth="yes"/>
      <point x="151" y="385"/>
      <point x="122" y="406"/>
      <point x="90" y="406" type="curve" smooth="yes"/>
      <point x="55" y="406"/>
      <point x="25" y="380"/>
      <point x="25" y="340" type="curve" smooth="yes"/>
      <point x="25" y="294"/>
      <point x="66" y="251"/>
      <point x="133" y="251" type="curve" smooth="yes"/>
      <point x="205" y="251"/>
      <point x="277" y="300"/>
      <point x="310" y="349" type="curve"/>
      <point x="271" y="343" type="line"/>
      <point x="280" y="331"/>
      <point x="286" y="310"/>
      <point x="286" y="284" type="curve" smooth="yes"/>
      <point x="286" y="198" type="line"/>
    </contour>
    <contour>
      <point x="337" y="-83" type="line"/>
      <point x="337" y="251" type="line"/>
      <point x="287" y="250" type="line"/>
      <point x="287" y="-23" type="line"/>
      <point x="312" y="-40" type="line"/>
      <point x="278" y="40"/>
      <point x="194" y="102"/>
      <point x="99" y="119" type="curve"/>
      <point x="114" y="85" type="line"/>
      <point x="182" y="134"/>
      <point x="256" y="173"/>
      <point x="326" y="200" type="curve"/>
      <point x="310" y="260" type="line"/>
      <point x="241" y="235"/>
      <point x="151" y="190"/>
      <point x="54" y="123" type="curve"/>
      <point x="102" y="59" type="line"/>
      <point x="203" y="51"/>
      <point x="280" y="0"/>
      <point x="303" y="-83" type="curve"/>
    </contour>
  </outline>
</glyph>
<glyph name="bBhLa" format="1">
  <advance width="509"/>
  <outline>
    <contour>
      <point x="401" y="74"/>
      <point x="471" y="139"/>
      <point x="471" y="236" type="curve" smooth="yes"/>
      <point x="471" y="303"/>
      <point x="437" y="368"/>
      <point x="384" y="410" type="curve"/>
      <point x="355" y="356"/>
      <point x="314" y="319"/>
      <point x="270" y="319" type="curve" smooth="yes"/>
      <point x="260" y="319"/>
      <point x="250" y="321"/>
      <point x="240" y="326" type="curve"/>
      <point x="265" y="295" type="line"/>
      <point x="280" y="304"/>
      <point x="292" y="321"/>
      <point x="292" y="348" type="curve" smooth="yes"/>
      <point x="292" y="389"/>
      <point x="261" y="410"/>
      <point x="228" y="410" type="curve" smooth="yes"/>
      <point x="191" y="410"/>
      <point x="161" y="381"/>
      <point x="161" y="341" type="curve" smooth="yes"/>
      <point x="161" y="292"/>
      <point x="207" y="249"/>
      <point x="273" y="249" type="curve" smooth="yes"/>
      <point x="342" y="249"/>
      <point x="398" y="299"/>
      <point x="427" y="352" type="curve"/>
      <point x="384" y="347" type="line"/>
      <point x="408" y="331"/>
      <point x="423" y="299"/>
      <point x="423" y="263" type="curve" smooth="yes"/>
      <point x="423" y="197"/>
      <point x="372" y="147"/>
      <point x="294" y="147" type="curve" smooth="yes"/>
      <point x="182" y="147"/>
      <point x="99" y="251"/>
      <point x="37" y="417" type="curve"/>
      <point x="4" y="405" type="line"/>
      <point x="78" y="198"/>
      <point x="182" y="74"/>
      <point x="309" y="74" type="curve" smooth="yes"/>
    </contour>
    <contour>
      <point x="209" y="-146"/>
      <point x="232" y="-124"/>
      <point x="232" y="-97" type="curve" smooth="yes"/>
      <point x="232" y="-73"/>
      <point x="214" y="-54"/>
      <point x="192" y="-54" type="curve" smooth="yes"/>
      <point x="171" y="-54"/>
      <point x="154" y="-70"/>
      <point x="154" y="-91" type="curve" smooth="yes"/>
      <point x="154" y="-108"/>
      <point x="165" y="-123"/>
      <point x="182" y="-126" type="curve"/>
      <point x="196" y="-99" type="line"/>
      <point x="186" y="-107"/>
      <point x="174" y="-111"/>
      <point x="165" y="-111" type="curve" smooth="yes"/>
      <point x="144" y="-111"/>
      <point x="126" y="-93"/>
      <point x="126" y="-67" type="curve" smooth="yes"/>
      <point x="126" y="-36"/>
      <point x="152" y="-10"/>
      <point x="188" y="-10" type="curve" smooth="yes"/>
      <point x="228" y="-10"/>
      <point x="255" y="-40"/>
      <point x="266" y="-85" type="curve"/>
      <point x="288" y="-85" type="line"/>
      <point x="288" y="-44"/>
      <point x="300" y="-18"/>
      <point x="325" y="-18" type="curve" smooth="yes"/>
      <point x="358" y="-18"/>
      <point x="382" y="-63"/>
      <point x="387" y="-134" type="curve"/>
      <point x="421" y="-134" type="line"/>
      <point x="421" y="-18" type="line"/>
      <point x="379" y="-18" type="line"/>
      <point x="379" y="-59" type="line"/>
      <point x="401" y="-93" type="line"/>
      <point x="388" y="-18"/>
      <point x="349" y="40"/>
      <point x="304" y="40" type="curve" smooth="yes"/>
      <point x="271" y="40"/>
      <point x="246" y="8"/>
      <point x="246" y="-36" type="curve"/>
      <point x="269" y="-46" type="line"/>
      <point x="254" y="9"/>
      <point x="217" y="51"/>
      <point x="166" y="51" type="curve" smooth="yes"/>
      <point x="115" y="51"/>
      <point x="77" y="9"/>
      <point x="77" y="-44" type="curve" smooth="yes"/>
      <point x="77" y="-100"/>
      <point x="121" y="-146"/>
      <point x="173" y="-146" type="curve" smooth="yes"/>
    </contour>
    <contour>
      <point x="421" y="186" type="line"/>
      <point x="373" y="149" type="line"/>
      <point x="373" y="-41" type="line"/>
      <point x="421" y="-112" type="line"/>
    </contour>
    <contour>
      <point x="524" y="456" type="line"/>
      <point x="524" y="499" type="line"/>
      <point x="-15" y="499" type="line"/>
      <point x="-15" y="456" type="line"/>
    </contour>
  </outline>
</glyph>
<glyph name="bBhRa" format="1">
  <advance width="501"/>
  <outline>
    <contour>
      <point x="445" y="-24" type="line"/>
      <point x="445" y="269" type="line" smooth="yes"/>
      <point x="445" y="323"/>
      <point x="420" y="378"/>
      <point x="378" y="406" type="curve"/>
      <point x="343" y="352"/>
      <point x="289" y="318"/>
      <point x="242" y="318" type="curve" smooth="yes"/>
      <point x="229" y="318"/>
      <point x="219" y="321"/>
      <point x="210" y="326" type="curve"/>
      <point x="234" y="295" type="line"/>
      <point x="251" y="305"/>
      <point x="263" y="323"/>
      <point x="263" y="347" type="curve" smooth="yes"/>
      <point x="263" y="385"/>
      <point x="233" y="406"/>
      <point x="202" y="406" type="curve" smooth="yes"/>
      <point x="167" y="406"/>
      <point x="137" y="380"/>
      <point x="137" y="340" type="curve" smooth="yes"/>
      <point x="137" y="294"/>
      <point x="178" y="251"/>
      <point x="245" y="251" type="curve" smooth="yes"/>
      <point x="317" y="251"/>
      <point x="386" y="300"/>
      <point x="419" y="349" type="curve"/>
      <point x="380" y="343" type="line"/>
      <point x="389" y="331"/>
      <point x="395" y="310"/>
      <point x="395" y="284" type="curve" smooth="yes"/>
      <point x="395" y="57" type="line"/>
      <point x="414" y="39" type="line"/>
      <point x="396" y="94"/>
      <point x="355" y="128"/>
      <point x="302" y="128" type="curve" smooth="yes"/>
      <point x="274" y="128"/>
      <point x="197" y="119"/>
      <point x="162" y="119" type="curve" smooth="yes"/>
      <point x="92" y="119"/>
      <point x="56" y="157"/>
      <point x="56" y="209" type="curve" smooth="yes"/>
      <point x="56" y="237"/>
      <point x="67" y="267"/>
      <point x="82" y="293" type="curve"/>
      <point x="56" y="308" type="line"/>
      <point x="31" y="274"/>
      <point x="19" y="236"/>
      <point x="19" y="200" type="curve" smooth="yes"/>
      <point x="19" y="113"/>
      <point x="92" y="50"/>
      <point x="190" y="50" type="curve" smooth="yes"/>
      <point x="230" y="50"/>
      <point x="303" y="61"/>
      <point x="335" y="61" type="curve" smooth="yes"/>
      <point x="386" y="61"/>
      <point x="407" y="33"/>
      <point x="412" y="-24" type="curve"/>
    </contour>
    <contour>
      <point x="516" y="456" type="line"/>
      <point x="516" y="499" type="line"/>
      <point x="-15" y="499" type="line"/>
      <point x="-15" y="456" type="line"/>
    </contour>
  </outline>
</glyph>
<glyph name="bBhRa_bSignUu" format="1">
  <advance width="641"/>
  <outline>
    <contour>
      <point x="445" y="-24" type="line"/>
      <point x="445" y="269" type="line" smooth="yes"/>
      <point x="445" y="323"/>
      <point x="420" y="378"/>
      <point x="378" y="406" type="curve"/>
      <point x="343" y="352"/>
      <point x="289" y="318"/>
      <point x="242" y="318" type="curve" smooth="yes"/>
      <point x="229" y="318"/>
      <point x="219" y="321"/>
      <point x="210" y="326" type="curve"/>
      <point x="234" y="295" type="line"/>
      <point x="251" y="305"/>
      <point x="263" y="323"/>
      <point x="263" y="347" type="curve" smooth="yes"/>
      <point x="263" y="385"/>
      <point x="233" y="406"/>
      <point x="202" y="406" type="curve" smooth="yes"/>
      <point x="167" y="406"/>
      <point x="137" y="380"/>
      <point x="137" y="340" type="curve" smooth="yes"/>
      <point x="137" y="294"/>
      <point x="178" y="251"/>
      <point x="245" y="251" type="curve" smooth="yes"/>
      <point x="317" y="251"/>
      <point x="386" y="300"/>
      <point x="419" y="349" type="curve"/>
      <point x="380" y="343" type="line"/>
      <point x="389" y="331"/>
      <point x="395" y="310"/>
      <point x="395" y="284" type="curve" smooth="yes"/>
      <point x="395" y="57" type="line"/>
      <point x="414" y="39" type="line"/>
      <point x="396" y="94"/>
      <point x="355" y="128"/>
      <point x="302" y="128" type="curve" smooth="yes"/>
      <point x="274" y="128"/>
      <point x="197" y="119"/>
      <point x="162" y="119" type="curve" smooth="yes"/>
      <point x="92" y="119"/>
      <point x="56" y="156"/>
      <point x="56" y="208" type="curve" smooth="yes"/>
      <point x="56" y="238"/>
      <point x="68" y="270"/>
      <point x="82" y="293" type="curve"/>
      <point x="56" y="308" type="line"/>
      <point x="31" y="274"/>
      <point x="19" y="236"/>
      <point x="19" y="200" type="curve" smooth="yes"/>
      <point x="19" y="113"/>
      <point x="92" y="50"/>
      <point x="190" y="50" type="curve" smooth="yes"/>
      <point x="230" y="50"/>
      <point x="303" y="61"/>
      <point x="335" y="61" type="curve" smooth="yes"/>
      <point x="386" y="61"/>
      <point x="407" y="33"/>
      <point x="412" y="-24" type="curve"/>
    </contour>
    <contour>
      <point x="611" y="13" type="line"/>
      <point x="593" y="30"/>
      <point x="582" y="53"/>
      <point x="582" y="80" type="curve" smooth="yes"/>
      <point x="582" y="260" type="line" smooth="yes"/>
      <point x="582" y="301"/>
      <point x="540" y="350"/>
      <point x="507" y="350" type="curve" smooth="yes"/>
      <point x="488" y="350"/>
      <point x="452" y="334"/>
      <point x="419" y="304" type="curve"/>
      <point x="438" y="250" type="line"/>
      <point x="467" y="277"/>
      <point x="505" y="297"/>
      <point x="523" y="297" type="curve" smooth="yes"/>
      <point x="529" y="297"/>
      <point x="533" y="293"/>
      <point x="533" y="282" type="curve" smooth="yes"/>
      <point x="533" y="100" type="line" smooth="yes"/>
      <point x="533" y="43"/>
      <point x="558" y="15"/>
      <point x="596" y="-10" type="curve"/>
    </contour>
    <contour>
      <point x="656" y="456" type="line"/>
      <point x="656" y="499" type="line"/>
      <point x="-15" y="499" type="line"/>
      <point x="-15" y="456" type="line"/>
    </contour>
  </outline>
</glyph>
<glyph name="bBha" format="1">
  <advance width="519"/>
  <outline>
    <contour>
      <point x="407" y="42"/>
      <point x="482" y="118"/>
      <point x="482" y="223" type="curve" smooth="yes"/>
      <point x="482" y="296"/>
      <point x="446" y="362"/>
      <point x="391" y="403" type="curve"/>
      <point x="361" y="351"/>
      <point x="315" y="315"/>
      <point x="269" y="315" type="curve" smooth="yes"/>
      <point x="258" y="315"/>
      <point x="247" y="317"/>
      <point x="238" y="322" type="curve"/>
      <point x="264" y="291" type="line"/>
      <point x="279" y="300"/>
      <point x="291" y="317"/>
      <point x="291" y="344" type="curve" smooth="yes"/>
      <point x="291" y="387"/>
      <point x="259" y="408"/>
      <point x="226" y="408" type="curve" smooth="yes"/>
      <point x="189" y="408"/>
      <point x="158" y="379"/>
      <point x="158" y="338" type="curve" smooth="yes"/>
      <point x="158" y="287"/>
      <point x="203" y="244"/>
      <point x="271" y="244" type="curve" smooth="yes"/>
      <point x="342" y="244"/>
      <point x="403" y="292"/>
      <point x="435" y="344" type="curve"/>
      <point x="392" y="338" type="line"/>
      <point x="416" y="325"/>
      <point x="433" y="293"/>
      <point x="433" y="251" type="curve"/>
      <point x="433" y="178"/>
      <point x="380" y="116"/>
      <point x="296" y="116" type="curve" smooth="yes"/>
      <point x="185" y="116"/>
      <point x="101" y="226"/>
      <point x="37" y="417" type="curve"/>
      <point x="4" y="405" type="line"/>
      <point x="77" y="183"/>
      <point x="179" y="42"/>
      <point x="311" y="42" type="curve" smooth="yes"/>
    </contour>
    <contour>
      <point x="534" y="456" type="line"/>
      <point x="534" y="499" type="line"/>
      <point x="-15" y="499" type="line"/>
      <point x="-15" y="456" type="line"/>
    </contour>
  </outline>
</glyph>
<glyph name="bCBa" format="1">
  <advance width="373"/>
  <outline>
    <contour>
      <point x="231" y="57"/>
      <point x="349" y="171"/>
      <point x="349" y="244" type="curve" smooth="yes"/>
      <point x="349" y="275"/>
      <point x="331" y="301"/>
      <point x="315" y="320" type="curve" smooth="yes"/>
      <point x="280" y="363"/>
      <point x="256" y="367"/>
      <point x="217" y="377" type="curve" smooth="yes"/>
      <point x="154" y="391"/>
      <point x="115" y="426"/>
      <point x="115" y="475" type="curve"/>
      <point x="65" y="475" type="line"/>
      <point x="65" y="191" type="line" smooth="yes"/>
      <point x="65" y="111"/>
      <point x="125" y="57"/>
      <point x="168" y="57" type="curve" smooth="yes"/>
    </contour>
    <contour>
      <point x="129" y="114"/>
      <point x="115" y="125"/>
      <point x="115" y="171" type="curve" smooth="yes"/>
      <point x="115" y="443" type="line"/>
      <point x="89" y="448" type="line"/>
      <point x="121" y="357"/>
      <point x="172" y="324"/>
      <point x="236" y="307" type="curve" smooth="yes"/>
      <point x="280" y="296"/>
      <point x="289" y="291"/>
      <point x="289" y="270" type="curve" smooth="yes"/>
      <point x="289" y="215"/>
      <point x="192" y="114"/>
      <point x="145" y="114" type="curve" smooth="yes"/>
    </contour>
    <contour>
      <point x="290" y="-114" type="line"/>
      <point x="290" y="145" type="line"/>
      <point x="264" y="164" type="line"/>
      <point x="181" y="123"/>
      <point x="130" y="96"/>
      <point x="44" y="40" type="curve"/>
      <point x="91" y="-24" type="line"/>
      <point x="170" y="-33"/>
      <point x="237" y="-58"/>
      <point x="256" y="-114" type="curve"/>
    </contour>
    <contour>
      <point x="263" y="-75" type="line"/>
      <point x="232" y="-22"/>
      <point x="176" y="15"/>
      <point x="101" y="33" type="curve"/>
      <point x="114" y="7" type="line"/>
      <point x="173" y="47"/>
      <point x="224" y="76"/>
      <point x="271" y="103" type="curve"/>
      <point x="242" y="112" type="line"/>
      <point x="242" y="-68" type="line"/>
    </contour>
    <contour>
      <point x="388" y="456" type="line"/>
      <point x="388" y="499" type="line"/>
      <point x="-15" y="499" type="line"/>
      <point x="-15" y="456" type="line"/>
    </contour>
  </outline>
</glyph>
<glyph name="bCCa" format="1">
  <advance width="606"/>
  <outline>
    <contour>
      <point x="470" y="8"/>
      <point x="581" y="151"/>
      <point x="581" y="226" type="curve" smooth="yes"/>
      <point x="581" y="257"/>
      <point x="564" y="283"/>
      <point x="547" y="303" type="curve" smooth="yes"/>
      <point x="516" y="339"/>
      <point x="497" y="348"/>
      <point x="448" y="359" type="curve" smooth="yes"/>
      <point x="375" y="377"/>
      <point x="344" y="422"/>
      <point x="344" y="467" type="curve"/>
      <point x="294" y="467" type="line"/>
      <point x="294" y="145" type="line" smooth="yes"/>
      <point x="294" y="64"/>
      <point x="355" y="8"/>
      <point x="398" y="8" type="curve" smooth="yes"/>
    </contour>
    <contour>
      <point x="359" y="66"/>
      <point x="345" y="79"/>
      <point x="345" y="125" type="curve" smooth="yes"/>
      <point x="345" y="436" type="line"/>
      <point x="319" y="440" type="line"/>
      <point x="351" y="344"/>
      <point x="400" y="308"/>
      <point x="469" y="290" type="curve" smooth="yes"/>
      <point x="505" y="280"/>
      <point x="521" y="277"/>
      <point x="521" y="253" type="curve" smooth="yes"/>
      <point x="521" y="196"/>
      <point x="428" y="66"/>
      <point x="375" y="66" type="curve" smooth="yes"/>
    </contour>
    <contour>
      <point x="217" y="58"/>
      <point x="315" y="180"/>
      <point x="315" y="248" type="curve" smooth="yes"/>
      <point x="315" y="276"/>
      <point x="299" y="302"/>
      <point x="282" y="323" type="curve" smooth="yes"/>
      <point x="248" y="364"/>
      <point x="226" y="369"/>
      <point x="186" y="379" type="curve" smooth="yes"/>
      <point x="129" y="394"/>
      <point x="102" y="428"/>
      <point x="102" y="467" type="curve"/>
      <point x="52" y="467" type="line"/>
      <point x="52" y="193" type="line" smooth="yes"/>
      <point x="52" y="113"/>
      <point x="113" y="58"/>
      <point x="156" y="58" type="curve" smooth="yes"/>
    </contour>
    <contour>
      <point x="116" y="115"/>
      <point x="102" y="128"/>
      <point x="102" y="173" type="curve" smooth="yes"/>
      <point x="102" y="448" type="line"/>
      <point x="76" y="448" type="line"/>
      <point x="104" y="362"/>
      <point x="151" y="325"/>
      <point x="206" y="311" type="curve" smooth="yes"/>
      <point x="252" y="299"/>
      <point x="260" y="293"/>
      <point x="260" y="274" type="curve" smooth="yes"/>
      <point x="260" y="224"/>
      <point x="178" y="115"/>
      <point x="131" y="115" type="curve" smooth="yes"/>
    </contour>
    <contour>
      <point x="378" y="456" type="line"/>
      <point x="378" y="499" type="line"/>
      <point x="-15" y="499" type="line"/>
      <point x="-15" y="456" type="line"/>
    </contour>
    <contour>
      <point x="620" y="456" type="line"/>
      <point x="620" y="499" type="line"/>
      <point x="222" y="499" type="line"/>
      <point x="222" y="456" type="line"/>
    </contour>
  </outline>
</glyph>
<glyph name="bCChBa" format="1">
  <advance width="650"/>
  <outline>
    <contour>
      <point x="198" y="108"/>
      <point x="292" y="213"/>
      <point x="292" y="274" type="curve" smooth="yes"/>
      <point x="292" y="299"/>
      <point x="275" y="326"/>
      <point x="260" y="344" type="curve" smooth="yes"/>
      <point x="231" y="377"/>
      <point x="207" y="380"/>
      <point x="180" y="387" type="curve" smooth="yes"/>
      <point x="122" y="401"/>
      <point x="97" y="430"/>
      <point x="97" y="467" type="curve"/>
      <point x="47" y="467" type="line"/>
      <point x="47" y="241" type="line" smooth="yes"/>
      <point x="47" y="162"/>
      <point x="103" y="108"/>
      <point x="143" y="108" type="curve" smooth="yes"/>
    </contour>
    <contour>
      <point x="107" y="166"/>
      <point x="97" y="176"/>
      <point x="97" y="221" type="curve" smooth="yes"/>
      <point x="97" y="448" type="line"/>
      <point x="71" y="448" type="line"/>
      <point x="101" y="364"/>
      <point x="142" y="338"/>
      <point x="196" y="323" type="curve" smooth="yes"/>
      <point x="223" y="315"/>
      <point x="237" y="314"/>
      <point x="237" y="296" type="curve" smooth="yes"/>
      <point x="237" y="256"/>
      <point x="159" y="166"/>
      <point x="120" y="166" type="curve" smooth="yes"/>
    </contour>
    <contour>
      <point x="661" y="16" type="line"/>
      <point x="577" y="81"/>
      <point x="514" y="121"/>
      <point x="436" y="146" type="curve"/>
      <point x="426" y="108" type="line"/>
      <point x="543" y="131"/>
      <point x="616" y="202"/>
      <point x="616" y="275" type="curve" smooth="yes"/>
      <point x="616" y="342"/>
      <point x="555" y="400"/>
      <point x="484" y="400" type="curve" smooth="yes"/>
      <point x="470" y="400"/>
      <point x="445" y="398"/>
      <point x="431" y="398" type="curve" smooth="yes"/>
      <point x="377" y="398"/>
      <point x="337" y="429"/>
      <point x="333" y="467" type="curve"/>
      <point x="284" y="467" type="line"/>
      <point x="284" y="316" type="line" smooth="yes"/>
      <point x="284" y="270"/>
      <point x="322" y="216"/>
      <point x="372" y="216" type="curve" smooth="yes"/>
      <point x="421" y="216"/>
      <point x="491" y="270"/>
      <point x="491" y="314" type="curve" smooth="yes"/>
      <point x="491" y="336"/>
      <point x="474" y="358"/>
      <point x="446" y="365" type="curve"/>
      <point x="413" y="349" type="line"/>
      <point x="425" y="345"/>
      <point x="429" y="338"/>
      <point x="429" y="331" type="curve" smooth="yes"/>
      <point x="429" y="306"/>
      <point x="380" y="268"/>
      <point x="354" y="268" type="curve" smooth="yes"/>
      <point x="340" y="268"/>
      <point x="334" y="277"/>
      <point x="334" y="299" type="curve" smooth="yes"/>
      <point x="334" y="458" type="line"/>
      <point x="315" y="442" type="line"/>
      <point x="332" y="383"/>
      <point x="391" y="344"/>
      <point x="447" y="344" type="curve" smooth="yes"/>
      <point x="475" y="344"/>
      <point x="491" y="347"/>
      <point x="507" y="347" type="curve" smooth="yes"/>
      <point x="545" y="347"/>
      <point x="560" y="329"/>
      <point x="560" y="303" type="curve" smooth="yes"/>
      <point x="560" y="242"/>
      <point x="478" y="173"/>
      <point x="386" y="173" type="curve" smooth="yes"/>
      <point x="362" y="173"/>
      <point x="331" y="178"/>
      <point x="300" y="186" type="curve"/>
      <point x="340" y="100" type="line"/>
      <point x="453" y="93"/>
      <point x="537" y="59"/>
      <point x="639" y="-11" type="curve"/>
    </contour>
    <contour>
      <point x="582" y="-147" type="line"/>
      <point x="582" y="64" type="line"/>
      <point x="517" y="102" type="line"/>
      <point x="456" y="79"/>
      <point x="409" y="54"/>
      <point x="341" y="9" type="curve"/>
      <point x="388" y="-55" type="line"/>
      <point x="464" y="-63"/>
      <point x="529" y="-90"/>
      <point x="548" y="-147" type="curve"/>
    </contour>
    <contour>
      <point x="555" y="-108" type="line"/>
      <point x="525" y="-53"/>
      <point x="471" y="-16"/>
      <point x="398" y="2" type="curve"/>
      <point x="408" y="-25" type="line"/>
      <point x="467" y="17"/>
      <point x="519" y="44"/>
      <point x="565" y="60" type="curve"/>
      <point x="534" y="70" type="line"/>
      <point x="534" y="-101" type="line"/>
    </contour>
    <contour>
      <point x="378" y="456" type="line"/>
      <point x="378" y="499" type="line"/>
      <point x="-15" y="499" type="line"/>
      <point x="-15" y="456" type="line"/>
    </contour>
    <contour>
      <point x="666" y="456" type="line"/>
      <point x="666" y="499" type="line"/>
      <point x="227" y="499" type="line"/>
      <point x="227" y="456" type="line"/>
    </contour>
  </outline>
</glyph>
<glyph name="bCChRa" format="1">
  <advance width="650"/>
  <outline>
    <contour>
      <point x="661" y="16" type="line"/>
      <point x="577" y="80"/>
      <point x="514" y="121"/>
      <point x="436" y="146" type="curve"/>
      <point x="426" y="107" type="line"/>
      <point x="542" y="129"/>
      <point x="616" y="200"/>
      <point x="616" y="275" type="curve" smooth="yes"/>
      <point x="616" y="342"/>
      <point x="555" y="400"/>
      <point x="484" y="400" type="curve" smooth="yes"/>
      <point x="470" y="400"/>
      <point x="445" y="398"/>
      <point x="431" y="398" type="curve" smooth="yes"/>
      <point x="377" y="398"/>
      <point x="337" y="429"/>
      <point x="333" y="467" type="curve"/>
      <point x="284" y="467" type="line"/>
      <point x="284" y="314" type="line" smooth="yes"/>
      <point x="284" y="268"/>
      <point x="323" y="215"/>
      <point x="371" y="215" type="curve" smooth="yes"/>
      <point x="421" y="215"/>
      <point x="491" y="270"/>
      <point x="491" y="314" type="curve" smooth="yes"/>
      <point x="491" y="336"/>
      <point x="474" y="358"/>
      <point x="446" y="365" type="curve"/>
      <point x="413" y="349" type="line"/>
      <point x="425" y="345"/>
      <point x="429" y="338"/>
      <point x="429" y="331" type="curve" smooth="yes"/>
      <point x="429" y="306"/>
      <point x="380" y="266"/>
      <point x="354" y="266" type="curve" smooth="yes"/>
      <point x="340" y="266"/>
      <point x="334" y="276"/>
      <point x="334" y="298" type="curve" smooth="yes"/>
      <point x="334" y="458" type="line"/>
      <point x="315" y="442" type="line"/>
      <point x="332" y="383"/>
      <point x="391" y="344"/>
      <point x="447" y="344" type="curve" smooth="yes"/>
      <point x="475" y="344"/>
      <point x="491" y="347"/>
      <point x="507" y="347" type="curve" smooth="yes"/>
      <point x="545" y="347"/>
      <point x="560" y="329"/>
      <point x="560" y="304" type="curve" smooth="yes"/>
      <point x="560" y="244"/>
      <point x="479" y="172"/>
      <point x="387" y="172" type="curve" smooth="yes"/>
      <point x="362" y="172"/>
      <point x="332" y="177"/>
      <point x="302" y="185" type="curve"/>
      <point x="343" y="97" type="line"/>
      <point x="454" y="92"/>
      <point x="538" y="58"/>
      <point x="639" y="-11" type="curve"/>
    </contour>
    <contour>
      <point x="578" y="-106" type="line"/>
      <point x="578" y="65" type="line"/>
      <point x="534" y="65" type="line"/>
      <point x="534" y="-52" type="line"/>
      <point x="553" y="-72" type="line"/>
      <point x="533" y="-11"/>
      <point x="490" y="23"/>
      <point x="431" y="23" type="curve" smooth="yes"/>
      <point x="411" y="23"/>
      <point x="363" y="19"/>
      <point x="341" y="19" type="curve" smooth="yes"/>
      <point x="298" y="19"/>
      <point x="273" y="36"/>
      <point x="273" y="72" type="curve" smooth="yes"/>
      <point x="273" y="87"/>
      <point x="278" y="107"/>
      <point x="285" y="123" type="curve"/>
      <point x="257" y="134" type="line"/>
      <point x="248" y="115"/>
      <point x="241" y="90"/>
      <point x="241" y="68" type="curve" smooth="yes"/>
      <point x="241" y="2"/>
      <point x="296" y="-45"/>
      <point x="365" y="-45" type="curve" smooth="yes"/>
      <point x="392" y="-45"/>
      <point x="443" y="-38"/>
      <point x="467" y="-38" type="curve" smooth="yes"/>
      <point x="515" y="-38"/>
      <point x="541" y="-69"/>
      <point x="544" y="-106" type="curve"/>
    </contour>
    <contour>
      <point x="198" y="108"/>
      <point x="292" y="213"/>
      <point x="292" y="274" type="curve" smooth="yes"/>
      <point x="292" y="299"/>
      <point x="275" y="326"/>
      <point x="260" y="344" type="curve" smooth="yes"/>
      <point x="229" y="379"/>
      <point x="201" y="381"/>
      <point x="180" y="387" type="curve" smooth="yes"/>
      <point x="122" y="401"/>
      <point x="97" y="430"/>
      <point x="97" y="467" type="curve"/>
      <point x="47" y="467" type="line"/>
      <point x="47" y="241" type="line" smooth="yes"/>
      <point x="47" y="162"/>
      <point x="103" y="108"/>
      <point x="143" y="108" type="curve" smooth="yes"/>
    </contour>
    <contour>
      <point x="107" y="166"/>
      <point x="97" y="176"/>
      <point x="97" y="221" type="curve" smooth="yes"/>
      <point x="97" y="448" type="line"/>
      <point x="71" y="448" type="line"/>
      <point x="101" y="364"/>
      <point x="142" y="338"/>
      <point x="196" y="323" type="curve" smooth="yes"/>
      <point x="224" y="315"/>
      <point x="237" y="314"/>
      <point x="237" y="297" type="curve" smooth="yes"/>
      <point x="237" y="256"/>
      <point x="159" y="166"/>
      <point x="120" y="166" type="curve" smooth="yes"/>
    </contour>
    <contour>
      <point x="378" y="456" type="line"/>
      <point x="378" y="499" type="line"/>
      <point x="-15" y="499" type="line"/>
      <point x="-15" y="456" type="line"/>
    </contour>
    <contour>
      <point x="666" y="456" type="line"/>
      <point x="666" y="499" type="line"/>
      <point x="185" y="499" type="line"/>
      <point x="185" y="456" type="line"/>
    </contour>
  </outline>
</glyph>
<glyph name="bCCha" format="1">
  <advance width="658"/>
  <outline>
    <contour>
      <point x="670" y="-15" type="line"/>
      <point x="582" y="55"/>
      <point x="517" y="98"/>
      <point x="435" y="126" type="curve"/>
      <point x="425" y="87" type="line"/>
      <point x="550" y="110"/>
      <point x="624" y="189"/>
      <point x="624" y="265" type="curve" smooth="yes"/>
      <point x="624" y="335"/>
      <point x="561" y="394"/>
      <point x="486" y="394" type="curve" smooth="yes"/>
      <point x="473" y="394"/>
      <point x="447" y="392"/>
      <point x="434" y="392" type="curve" smooth="yes"/>
      <point x="378" y="392"/>
      <point x="336" y="425"/>
      <point x="332" y="467" type="curve"/>
      <point x="283" y="467" type="line"/>
      <point x="283" y="299" type="line" smooth="yes"/>
      <point x="283" y="253"/>
      <point x="322" y="199"/>
      <point x="370" y="199" type="curve" smooth="yes"/>
      <point x="422" y="199"/>
      <point x="494" y="261"/>
      <point x="494" y="307" type="curve" smooth="yes"/>
      <point x="494" y="330"/>
      <point x="476" y="352"/>
      <point x="445" y="359" type="curve"/>
      <point x="412" y="342" type="line"/>
      <point x="427" y="338"/>
      <point x="432" y="331"/>
      <point x="432" y="323" type="curve" smooth="yes"/>
      <point x="432" y="296"/>
      <point x="381" y="251"/>
      <point x="352" y="251" type="curve" smooth="yes"/>
      <point x="339" y="251"/>
      <point x="333" y="261"/>
      <point x="333" y="283" type="curve" smooth="yes"/>
      <point x="333" y="458" type="line"/>
      <point x="314" y="439" type="line"/>
      <point x="331" y="378"/>
      <point x="390" y="337"/>
      <point x="446" y="337" type="curve" smooth="yes"/>
      <point x="474" y="337"/>
      <point x="493" y="341"/>
      <point x="509" y="341" type="curve" smooth="yes"/>
      <point x="552" y="341"/>
      <point x="568" y="321"/>
      <point x="568" y="293" type="curve" smooth="yes"/>
      <point x="568" y="229"/>
      <point x="483" y="152"/>
      <point x="385" y="152" type="curve" smooth="yes"/>
      <point x="360" y="152"/>
      <point x="328" y="157"/>
      <point x="296" y="165" type="curve"/>
      <point x="337" y="77" type="line"/>
      <point x="454" y="71"/>
      <point x="542" y="35"/>
      <point x="648" y="-42" type="curve"/>
    </contour>
    <contour>
      <point x="197" y="98"/>
      <point x="292" y="210"/>
      <point x="292" y="273" type="curve" smooth="yes"/>
      <point x="292" y="300"/>
      <point x="275" y="326"/>
      <point x="260" y="344" type="curve" smooth="yes"/>
      <point x="230" y="377"/>
      <point x="209" y="379"/>
      <point x="180" y="387" type="curve" smooth="yes"/>
      <point x="122" y="402"/>
      <point x="97" y="429"/>
      <point x="97" y="467" type="curve"/>
      <point x="47" y="467" type="line"/>
      <point x="47" y="231" type="line" smooth="yes"/>
      <point x="47" y="152"/>
      <point x="103" y="98"/>
      <point x="143" y="98" type="curve" smooth="yes"/>
    </contour>
    <contour>
      <point x="107" y="156"/>
      <point x="97" y="166"/>
      <point x="97" y="211" type="curve" smooth="yes"/>
      <point x="97" y="448" type="line"/>
      <point x="71" y="448" type="line"/>
      <point x="100" y="365"/>
      <point x="142" y="338"/>
      <point x="196" y="323" type="curve" smooth="yes"/>
      <point x="223" y="315"/>
      <point x="237" y="314"/>
      <point x="237" y="296" type="curve" smooth="yes"/>
      <point x="237" y="253"/>
      <point x="159" y="156"/>
      <point x="120" y="156" type="curve" smooth="yes"/>
    </contour>
    <contour>
      <point x="378" y="456" type="line"/>
      <point x="378" y="499" type="line"/>
      <point x="-15" y="499" type="line"/>
      <point x="-15" y="456" type="line"/>
    </contour>
    <contour>
      <point x="673" y="456" type="line"/>
      <point x="673" y="499" type="line"/>
      <point x="226" y="499" type="line"/>
      <point x="226" y="456" type="line"/>
    </contour>
  </outline>
</glyph>
<glyph name="bCNa" format="1">
  <advance width="368"/>
  <outline>
    <contour>
      <point x="226" y="86"/>
      <point x="341" y="190"/>
      <point x="341" y="255" type="curve" smooth="yes"/>
      <point x="341" y="279"/>
      <point x="324" y="308"/>
      <point x="309" y="326" type="curve" smooth="yes"/>
      <point x="274" y="371"/>
      <point x="244" y="374"/>
      <point x="211" y="383" type="curve" smooth="yes"/>
      <point x="148" y="401"/>
      <point x="109" y="423"/>
      <point x="109" y="475" type="curve"/>
      <point x="59" y="475" type="line"/>
      <point x="59" y="218" type="line" smooth="yes"/>
      <point x="59" y="139"/>
      <point x="115" y="86"/>
      <point x="162" y="86" type="curve" smooth="yes"/>
    </contour>
    <contour>
      <point x="122" y="144"/>
      <point x="110" y="154"/>
      <point x="110" y="197" type="curve" smooth="yes"/>
      <point x="110" y="443" type="line"/>
      <point x="84" y="448" type="line"/>
      <point x="120" y="353"/>
      <point x="170" y="331"/>
      <point x="231" y="314" type="curve" smooth="yes"/>
      <point x="265" y="303"/>
      <point x="282" y="300"/>
      <point x="282" y="280" type="curve" smooth="yes"/>
      <point x="282" y="235"/>
      <point x="188" y="144"/>
      <point x="138" y="144" type="curve" smooth="yes"/>
    </contour>
    <contour>
      <point x="383" y="456" type="line"/>
      <point x="383" y="499" type="line"/>
      <point x="-15" y="499" type="line"/>
      <point x="-15" y="456" type="line"/>
    </contour>
    <contour>
      <point x="293" y="-99" type="line"/>
      <point x="293" y="188" type="line"/>
      <point x="249" y="173" type="line"/>
      <point x="249" y="-48" type="line"/>
      <point x="273" y="-55" type="line"/>
      <point x="238" y="28"/>
      <point x="173" y="64"/>
      <point x="121" y="64" type="curve" smooth="yes"/>
      <point x="74" y="64"/>
      <point x="40" y="33"/>
      <point x="40" y="-7" type="curve" smooth="yes"/>
      <point x="40" y="-45"/>
      <point x="69" y="-72"/>
      <point x="104" y="-72" type="curve" smooth="yes"/>
      <point x="136" y="-72"/>
      <point x="162" y="-47"/>
      <point x="162" y="-14" type="curve" smooth="yes"/>
      <point x="162" y="8"/>
      <point x="150" y="27"/>
      <point x="134" y="36" type="curve"/>
      <point x="127" y="-4" type="line"/>
      <point x="136" y="-1"/>
      <point x="146" y="2"/>
      <point x="157" y="2" type="curve" smooth="yes"/>
      <point x="206" y="2"/>
      <point x="251" y="-35"/>
      <point x="259" y="-99" type="curve"/>
    </contour>
  </outline>
</glyph>
<glyph name="bCNya" format="1">
  <advance width="706"/>
  <outline>
    <contour>
      <point x="465" y="-66" type="line"/>
      <point x="465" y="286" type="line" smooth="yes"/>
      <point x="465" y="339"/>
      <point x="422" y="402"/>
      <point x="374" y="402" type="curve" smooth="yes"/>
      <point x="312" y="402"/>
      <point x="222" y="300"/>
      <point x="222" y="215" type="curve" smooth="yes"/>
      <point x="222" y="160"/>
      <point x="259" y="121"/>
      <point x="305" y="121" type="curve" smooth="yes"/>
      <point x="340" y="121"/>
      <point x="368" y="145"/>
      <point x="368" y="177" type="curve" smooth="yes"/>
      <point x="368" y="209"/>
      <point x="342" y="234"/>
      <point x="311" y="234" type="curve" smooth="yes"/>
      <point x="288" y="234"/>
      <point x="269" y="219"/>
      <point x="261" y="202" type="curve"/>
      <point x="288" y="184" type="line"/>
      <point x="281" y="194"/>
      <point x="280" y="205"/>
      <point x="280" y="213" type="curve" smooth="yes"/>
      <point x="280" y="265"/>
      <point x="361" y="350"/>
      <point x="394" y="350" type="curve" smooth="yes"/>
      <point x="409" y="350"/>
      <point x="415" y="334"/>
      <point x="415" y="308" type="curve" smooth="yes"/>
      <point x="415" y="15" type="line"/>
      <point x="433" y="-3" type="line"/>
      <point x="416" y="50"/>
      <point x="376" y="86"/>
      <point x="321" y="86" type="curve" smooth="yes"/>
      <point x="293" y="86"/>
      <point x="214" y="76"/>
      <point x="177" y="76" type="curve" smooth="yes"/>
      <point x="103" y="76"/>
      <point x="65" y="117"/>
      <point x="65" y="179" type="curve" smooth="yes"/>
      <point x="65" y="203"/>
      <point x="70" y="232"/>
      <point x="80" y="254" type="curve"/>
      <point x="53" y="268" type="line"/>
      <point x="37" y="238"/>
      <point x="28" y="202"/>
      <point x="28" y="169" type="curve" smooth="yes"/>
      <point x="28" y="75"/>
      <point x="104" y="7"/>
      <point x="204" y="7" type="curve" smooth="yes"/>
      <point x="247" y="7"/>
      <point x="322" y="19"/>
      <point x="354" y="19" type="curve" smooth="yes"/>
      <point x="403" y="19"/>
      <point x="426" y="-7"/>
      <point x="431" y="-66" type="curve"/>
    </contour>
    <contour>
      <point x="227" y="175"/>
      <point x="303" y="254"/>
      <point x="303" y="307" type="curve" smooth="yes"/>
      <point x="303" y="327"/>
      <point x="291" y="354"/>
      <point x="274" y="375" type="curve" smooth="yes"/>
      <point x="253" y="400"/>
      <point x="232" y="402"/>
      <point x="209" y="409" type="curve" smooth="yes"/>
      <point x="169" y="420"/>
      <point x="152" y="439"/>
      <point x="152" y="467" type="curve"/>
      <point x="104" y="467" type="line"/>
      <point x="104" y="283" type="line" smooth="yes"/>
      <point x="104" y="219"/>
      <point x="151" y="175"/>
      <point x="185" y="175" type="curve" smooth="yes"/>
    </contour>
    <contour>
      <point x="159" y="227"/>
      <point x="152" y="234"/>
      <point x="152" y="264" type="curve" smooth="yes"/>
      <point x="152" y="448" type="line"/>
      <point x="126" y="450" type="line"/>
      <point x="153" y="381"/>
      <point x="190" y="363"/>
      <point x="233" y="347" type="curve" smooth="yes"/>
      <point x="249" y="341"/>
      <point x="254" y="338"/>
      <point x="254" y="329" type="curve" smooth="yes"/>
      <point x="254" y="299"/>
      <point x="195" y="227"/>
      <point x="168" y="227" type="curve" smooth="yes"/>
    </contour>
    <contour>
      <point x="643" y="18"/>
      <point x="678" y="59"/>
      <point x="678" y="109" type="curve" smooth="yes"/>
      <point x="678" y="157"/>
      <point x="647" y="196"/>
      <point x="617" y="215" type="curve"/>
      <point x="610" y="149" type="line"/>
      <point x="659" y="183"/>
      <point x="678" y="222"/>
      <point x="678" y="262" type="curve" smooth="yes"/>
      <point x="678" y="324"/>
      <point x="631" y="376"/>
      <point x="581" y="376" type="curve" smooth="yes"/>
      <point x="536" y="376"/>
      <point x="488" y="334"/>
      <point x="442" y="249" type="curve"/>
      <point x="453" y="142" type="line"/>
      <point x="487" y="66"/>
      <point x="539" y="18"/>
      <point x="593" y="18" type="curve" smooth="yes"/>
    </contour>
    <contour>
      <point x="523" y="81"/>
      <point x="472" y="139"/>
      <point x="454" y="221" type="curve"/>
      <point x="449" y="156" type="line"/>
      <point x="493" y="267"/>
      <point x="550" y="316"/>
      <point x="597" y="316" type="curve" smooth="yes"/>
      <point x="622" y="316"/>
      <point x="636" y="302"/>
      <point x="636" y="280" type="curve" smooth="yes"/>
      <point x="636" y="258"/>
      <point x="621" y="230"/>
      <point x="578" y="198" type="curve"/>
      <point x="628" y="206" type="line"/>
      <point x="617" y="226"/>
      <point x="593" y="240"/>
      <point x="569" y="240" type="curve" smooth="yes"/>
      <point x="540" y="240"/>
      <point x="517" y="217"/>
      <point x="517" y="189" type="curve" smooth="yes"/>
      <point x="517" y="159"/>
      <point x="542" y="137"/>
      <point x="572" y="137" type="curve" smooth="yes"/>
      <point x="597" y="137"/>
      <point x="622" y="152"/>
      <point x="636" y="173" type="curve"/>
      <point x="596" y="177" type="line"/>
      <point x="625" y="165"/>
      <point x="637" y="148"/>
      <point x="637" y="130" type="curve" smooth="yes"/>
      <point x="637" y="103"/>
      <point x="613" y="81"/>
      <point x="579" y="81" type="curve" smooth="yes"/>
    </contour>
    <contour>
      <point x="721" y="456" type="line"/>
      <point x="721" y="499" type="line"/>
      <point x="-15" y="499" type="line"/>
      <point x="-15" y="456" type="line"/>
    </contour>
  </outline>
</glyph>
<glyph name="bCRa" format="1">
  <advance width="418"/>
  <outline>
    <contour>
      <point x="280" y="51"/>
      <point x="393" y="172"/>
      <point x="393" y="236" type="curve" smooth="yes"/>
      <point x="393" y="268"/>
      <point x="375" y="294"/>
      <point x="359" y="313" type="curve" smooth="yes"/>
      <point x="324" y="355"/>
      <point x="300" y="360"/>
      <point x="261" y="369" type="curve" smooth="yes"/>
      <point x="198" y="385"/>
      <point x="159" y="423"/>
      <point x="159" y="475" type="curve"/>
      <point x="109" y="475" type="line"/>
      <point x="109" y="186" type="line" smooth="yes"/>
      <point x="109" y="105"/>
      <point x="168" y="51"/>
      <point x="213" y="51" type="curve" smooth="yes"/>
    </contour>
    <contour>
      <point x="174" y="109"/>
      <point x="160" y="121"/>
      <point x="160" y="166" type="curve" smooth="yes"/>
      <point x="160" y="443" type="line"/>
      <point x="134" y="448" type="line"/>
      <point x="166" y="352"/>
      <point x="217" y="317"/>
      <point x="281" y="300" type="curve" smooth="yes"/>
      <point x="325" y="288"/>
      <point x="334" y="284"/>
      <point x="334" y="262" type="curve" smooth="yes"/>
      <point x="334" y="216"/>
      <point x="242" y="109"/>
      <point x="191" y="109" type="curve" smooth="yes"/>
    </contour>
    <contour>
      <point x="346" y="-114" type="line"/>
      <point x="346" y="167" type="line"/>
      <point x="302" y="167" type="line"/>
      <point x="302" y="-60" type="line"/>
      <point x="321" y="-79" type="line"/>
      <point x="304" y="-23"/>
      <point x="266" y="12"/>
      <point x="210" y="12" type="curve" smooth="yes"/>
      <point x="192" y="12"/>
      <point x="141" y="8"/>
      <point x="124" y="8" type="curve" smooth="yes"/>
      <point x="86" y="8"/>
      <point x="63" y="28"/>
      <point x="63" y="68" type="curve" smooth="yes"/>
      <point x="63" y="87"/>
      <point x="69" y="109"/>
      <point x="77" y="128" type="curve"/>
      <point x="50" y="139" type="line"/>
      <point x="38" y="117"/>
      <point x="31" y="88"/>
      <point x="31" y="62" type="curve" smooth="yes"/>
      <point x="31" y="-7"/>
      <point x="81" y="-57"/>
      <point x="146" y="-57" type="curve" smooth="yes"/>
      <point x="172" y="-57"/>
      <point x="223" y="-48"/>
      <point x="246" y="-48" type="curve" smooth="yes"/>
      <point x="287" y="-48"/>
      <point x="310" y="-78"/>
      <point x="312" y="-114" type="curve"/>
    </contour>
    <contour>
      <point x="433" y="456" type="line"/>
      <point x="433" y="499" type="line"/>
      <point x="-15" y="499" type="line"/>
      <point x="-15" y="456" type="line"/>
    </contour>
  </outline>
</glyph>
<glyph name="bCa" format="1">
  <advance width="368"/>
  <outline>
    <contour>
      <point x="233" y="8"/>
      <point x="344" y="152"/>
      <point x="344" y="225" type="curve" smooth="yes"/>
      <point x="344" y="257"/>
      <point x="327" y="283"/>
      <point x="310" y="303" type="curve" smooth="yes"/>
      <point x="279" y="339"/>
      <point x="259" y="349"/>
      <point x="211" y="359" type="curve" smooth="yes"/>
      <point x="142" y="375"/>
      <point x="107" y="420"/>
      <point x="107" y="467" type="curve"/>
      <point x="57" y="467" type="line"/>
      <point x="57" y="145" type="line" smooth="yes"/>
      <point x="57" y="64"/>
      <point x="118" y="8"/>
      <point x="161" y="8" type="curve" smooth="yes"/>
    </contour>
    <contour>
      <point x="121" y="66"/>
      <point x="107" y="79"/>
      <point x="107" y="125" type="curve" smooth="yes"/>
      <point x="107" y="436" type="line"/>
      <point x="81" y="440" type="line"/>
      <point x="112" y="345"/>
      <point x="165" y="306"/>
      <point x="231" y="290" type="curve" smooth="yes"/>
      <point x="275" y="278"/>
      <point x="283" y="274"/>
      <point x="283" y="251" type="curve" smooth="yes"/>
      <point x="283" y="197"/>
      <point x="190" y="66"/>
      <point x="137" y="66" type="curve" smooth="yes"/>
    </contour>
    <contour>
      <point x="383" y="456" type="line"/>
      <point x="383" y="499" type="line"/>
      <point x="-15" y="499" type="line"/>
      <point x="-15" y="456" type="line"/>
    </contour>
  </outline>
</glyph>
<glyph name="bCandrabindu" format="1">
  <advance width="0"/>
  <outline>
    <contour>
      <point x="-20" y="643"/>
      <point x="-50" y="617"/>
      <point x="-93" y="617" type="curve" smooth="yes"/>
      <point x="-134" y="617"/>
      <point x="-167" y="640"/>
      <point x="-194" y="700" type="curve"/>
      <point x="-221" y="686" type="line"/>
      <point x="-186" y="604"/>
      <point x="-145" y="565"/>
      <point x="-88" y="565" type="curve" smooth="yes"/>
      <point x="-28" y="565"/>
      <point x="7" y="607"/>
      <point x="33" y="681" type="curve"/>
      <point x="1" y="696" type="line"/>
    </contour>
    <contour>
      <point x="-72" y="663"/>
      <point x="-55" y="681"/>
      <point x="-55" y="702" type="curve" smooth="yes"/>
      <point x="-55" y="723"/>
      <point x="-72" y="740"/>
      <point x="-93" y="740" type="curve" smooth="yes"/>
      <point x="-114" y="740"/>
      <point x="-132" y="723"/>
      <point x="-132" y="702" type="curve" smooth="yes"/>
      <point x="-132" y="681"/>
      <point x="-114" y="663"/>
      <point x="-93" y="663" type="curve" smooth="yes"/>
    </contour>
  </outline>
</glyph>
<glyph name="bChBa" format="1">
  <advance width="407"/>
  <outline>
    <contour>
      <point x="418" y="16" type="line"/>
      <point x="334" y="80"/>
      <point x="271" y="121"/>
      <point x="193" y="146" type="curve"/>
      <point x="183" y="108" type="line"/>
      <point x="300" y="131"/>
      <point x="373" y="202"/>
      <point x="373" y="275" type="curve" smooth="yes"/>
      <point x="373" y="342"/>
      <point x="312" y="400"/>
      <point x="241" y="400" type="curve" smooth="yes"/>
      <point x="227" y="400"/>
      <point x="202" y="398"/>
      <point x="188" y="398" type="curve" smooth="yes"/>
      <point x="134" y="398"/>
      <point x="94" y="429"/>
      <point x="90" y="467" type="curve"/>
      <point x="41" y="467" type="line"/>
      <point x="41" y="316" type="line" smooth="yes"/>
      <point x="41" y="270"/>
      <point x="79" y="216"/>
      <point x="129" y="216" type="curve" smooth="yes"/>
      <point x="178" y="216"/>
      <point x="248" y="270"/>
      <point x="248" y="314" type="curve" smooth="yes"/>
      <point x="248" y="336"/>
      <point x="231" y="358"/>
      <point x="203" y="365" type="curve"/>
      <point x="170" y="349" type="line"/>
      <point x="182" y="345"/>
      <point x="186" y="338"/>
      <point x="186" y="331" type="curve" smooth="yes"/>
      <point x="186" y="306"/>
      <point x="137" y="268"/>
      <point x="111" y="268" type="curve" smooth="yes"/>
      <point x="97" y="268"/>
      <point x="91" y="277"/>
      <point x="91" y="299" type="curve" smooth="yes"/>
      <point x="91" y="458" type="line"/>
      <point x="72" y="442" type="line"/>
      <point x="89" y="383"/>
      <point x="148" y="344"/>
      <point x="204" y="344" type="curve" smooth="yes"/>
      <point x="232" y="344"/>
      <point x="248" y="347"/>
      <point x="264" y="347" type="curve" smooth="yes"/>
      <point x="302" y="347"/>
      <point x="317" y="329"/>
      <point x="317" y="303" type="curve" smooth="yes"/>
      <point x="317" y="242"/>
      <point x="235" y="173"/>
      <point x="143" y="173" type="curve" smooth="yes"/>
      <point x="118" y="173"/>
      <point x="86" y="178"/>
      <point x="54" y="186" type="curve"/>
      <point x="95" y="100" type="line"/>
      <point x="208" y="93"/>
      <point x="293" y="58"/>
      <point x="396" y="-11" type="curve"/>
    </contour>
    <contour>
      <point x="340" y="-147" type="line"/>
      <point x="340" y="64" type="line"/>
      <point x="275" y="102" type="line"/>
      <point x="214" y="79"/>
      <point x="167" y="54"/>
      <point x="99" y="9" type="curve"/>
      <point x="146" y="-55" type="line"/>
      <point x="222" y="-63"/>
      <point x="287" y="-90"/>
      <point x="306" y="-147" type="curve"/>
    </contour>
    <contour>
      <point x="313" y="-108" type="line"/>
      <point x="283" y="-53"/>
      <point x="229" y="-16"/>
      <point x="156" y="2" type="curve"/>
      <point x="166" y="-25" type="line"/>
      <point x="225" y="17"/>
      <point x="277" y="44"/>
      <point x="323" y="60" type="curve"/>
      <point x="295" y="71" type="line"/>
      <point x="295" y="-101" type="line"/>
    </contour>
    <contour>
      <point x="424" y="456" type="line"/>
      <point x="424" y="499" type="line"/>
      <point x="-15" y="499" type="line"/>
      <point x="-15" y="456" type="line"/>
    </contour>
  </outline>
</glyph>
<glyph name="bChRa" format="1">
  <advance width="450"/>
  <outline>
    <contour>
      <point x="461" y="16" type="line"/>
      <point x="377" y="81"/>
      <point x="314" y="121"/>
      <point x="236" y="146" type="curve"/>
      <point x="226" y="107" type="line"/>
      <point x="342" y="129"/>
      <point x="416" y="200"/>
      <point x="416" y="275" type="curve" smooth="yes"/>
      <point x="416" y="342"/>
      <point x="355" y="400"/>
      <point x="284" y="400" type="curve" smooth="yes"/>
      <point x="270" y="400"/>
      <point x="245" y="398"/>
      <point x="231" y="398" type="curve" smooth="yes"/>
      <point x="177" y="398"/>
      <point x="137" y="429"/>
      <point x="133" y="467" type="curve"/>
      <point x="84" y="467" type="line"/>
      <point x="84" y="314" type="line" smooth="yes"/>
      <point x="84" y="268"/>
      <point x="123" y="215"/>
      <point x="171" y="215" type="curve" smooth="yes"/>
      <point x="221" y="215"/>
      <point x="291" y="270"/>
      <point x="291" y="314" type="curve" smooth="yes"/>
      <point x="291" y="336"/>
      <point x="274" y="358"/>
      <point x="246" y="365" type="curve"/>
      <point x="213" y="349" type="line"/>
      <point x="225" y="345"/>
      <point x="229" y="338"/>
      <point x="229" y="331" type="curve" smooth="yes"/>
      <point x="229" y="306"/>
      <point x="180" y="266"/>
      <point x="154" y="266" type="curve" smooth="yes"/>
      <point x="140" y="266"/>
      <point x="134" y="276"/>
      <point x="134" y="298" type="curve" smooth="yes"/>
      <point x="134" y="458" type="line"/>
      <point x="115" y="442" type="line"/>
      <point x="132" y="383"/>
      <point x="191" y="344"/>
      <point x="247" y="344" type="curve" smooth="yes"/>
      <point x="275" y="344"/>
      <point x="291" y="347"/>
      <point x="307" y="347" type="curve" smooth="yes"/>
      <point x="345" y="347"/>
      <point x="360" y="329"/>
      <point x="360" y="304" type="curve" smooth="yes"/>
      <point x="360" y="244"/>
      <point x="279" y="172"/>
      <point x="186" y="172" type="curve" smooth="yes"/>
      <point x="161" y="172"/>
      <point x="129" y="177"/>
      <point x="97" y="185" type="curve"/>
      <point x="138" y="97" type="line"/>
      <point x="251" y="92"/>
      <point x="336" y="59"/>
      <point x="439" y="-11" type="curve"/>
    </contour>
    <contour>
      <point x="377" y="-106" type="line"/>
      <point x="377" y="67" type="line"/>
      <point x="334" y="67" type="line"/>
      <point x="334" y="-52" type="line"/>
      <point x="352" y="-72" type="line"/>
      <point x="332" y="-10"/>
      <point x="289" y="23"/>
      <point x="231" y="23" type="curve" smooth="yes"/>
      <point x="210" y="23"/>
      <point x="160" y="19"/>
      <point x="137" y="19" type="curve" smooth="yes"/>
      <point x="86" y="19"/>
      <point x="57" y="39"/>
      <point x="57" y="86" type="curve" smooth="yes"/>
      <point x="57" y="101"/>
      <point x="60" y="121"/>
      <point x="69" y="142" type="curve"/>
      <point x="41" y="153" type="line"/>
      <point x="30" y="129"/>
      <point x="25" y="102"/>
      <point x="25" y="81" type="curve" smooth="yes"/>
      <point x="25" y="6"/>
      <point x="84" y="-45"/>
      <point x="160" y="-45" type="curve" smooth="yes"/>
      <point x="188" y="-45"/>
      <point x="242" y="-38"/>
      <point x="266" y="-38" type="curve" smooth="yes"/>
      <point x="315" y="-38"/>
      <point x="341" y="-69"/>
      <point x="344" y="-106" type="curve"/>
    </contour>
    <contour>
      <point x="466" y="456" type="line"/>
      <point x="466" y="499" type="line"/>
      <point x="-15" y="499" type="line"/>
      <point x="-15" y="456" type="line"/>
    </contour>
  </outline>
</glyph>
<glyph name="bCha" format="1">
  <advance width="417"/>
  <outline>
    <contour>
      <point x="428" y="-15" type="line"/>
      <point x="340" y="55"/>
      <point x="275" y="98"/>
      <point x="193" y="126" type="curve"/>
      <point x="183" y="87" type="line"/>
      <point x="308" y="110"/>
      <point x="382" y="189"/>
      <point x="382" y="265" type="curve" smooth="yes"/>
      <point x="382" y="335"/>
      <point x="319" y="394"/>
      <point x="244" y="394" type="curve" smooth="yes"/>
      <point x="231" y="394"/>
      <point x="205" y="392"/>
      <point x="192" y="392" type="curve" smooth="yes"/>
      <point x="136" y="392"/>
      <point x="94" y="425"/>
      <point x="90" y="467" type="curve"/>
      <point x="41" y="467" type="line"/>
      <point x="41" y="299" type="line" smooth="yes"/>
      <point x="41" y="253"/>
      <point x="80" y="199"/>
      <point x="128" y="199" type="curve" smooth="yes"/>
      <point x="180" y="199"/>
      <point x="252" y="261"/>
      <point x="252" y="307" type="curve" smooth="yes"/>
      <point x="252" y="330"/>
      <point x="234" y="352"/>
      <point x="203" y="359" type="curve"/>
      <point x="170" y="342" type="line"/>
      <point x="185" y="338"/>
      <point x="190" y="331"/>
      <point x="190" y="323" type="curve" smooth="yes"/>
      <point x="190" y="296"/>
      <point x="139" y="251"/>
      <point x="110" y="251" type="curve" smooth="yes"/>
      <point x="97" y="251"/>
      <point x="91" y="261"/>
      <point x="91" y="283" type="curve" smooth="yes"/>
      <point x="91" y="458" type="line"/>
      <point x="72" y="439" type="line"/>
      <point x="89" y="378"/>
      <point x="148" y="337"/>
      <point x="204" y="337" type="curve" smooth="yes"/>
      <point x="232" y="337"/>
      <point x="251" y="341"/>
      <point x="267" y="341" type="curve" smooth="yes"/>
      <point x="310" y="341"/>
      <point x="326" y="321"/>
      <point x="326" y="293" type="curve" smooth="yes"/>
      <point x="326" y="229"/>
      <point x="241" y="152"/>
      <point x="143" y="152" type="curve" smooth="yes"/>
      <point x="118" y="152"/>
      <point x="86" y="157"/>
      <point x="54" y="165" type="curve"/>
      <point x="95" y="77" type="line"/>
      <point x="212" y="71"/>
      <point x="300" y="35"/>
      <point x="406" y="-42" type="curve"/>
    </contour>
    <contour>
      <point x="432" y="456" type="line"/>
      <point x="432" y="499" type="line"/>
      <point x="-15" y="499" type="line"/>
      <point x="-15" y="456" type="line"/>
    </contour>
  </outline>
</glyph>
<glyph name="bDBhRa" format="1">
  <advance width="457"/>
  <outline>
    <contour>
      <point x="436" y="-135" type="line"/>
      <point x="436" y="72" type="line" smooth="yes"/>
      <point x="436" y="125"/>
      <point x="409" y="180"/>
      <point x="370" y="208" type="curve"/>
      <point x="338" y="156"/>
      <point x="289" y="121"/>
      <point x="243" y="121" type="curve" smooth="yes"/>
      <point x="232" y="121"/>
      <point x="220" y="123"/>
      <point x="210" y="128" type="curve"/>
      <point x="225" y="94" type="line"/>
      <point x="244" y="103"/>
      <point x="255" y="121"/>
      <point x="255" y="143" type="curve" smooth="yes"/>
      <point x="255" y="178"/>
      <point x="228" y="198"/>
      <point x="199" y="198" type="curve" smooth="yes"/>
      <point x="167" y="198"/>
      <point x="142" y="173"/>
      <point x="142" y="138" type="curve" smooth="yes"/>
      <point x="142" y="94"/>
      <point x="184" y="55"/>
      <point x="247" y="55" type="curve" smooth="yes"/>
      <point x="318" y="55"/>
      <point x="379" y="104"/>
      <point x="408" y="153" type="curve"/>
      <point x="369" y="148" type="line"/>
      <point x="379" y="136"/>
      <point x="386" y="114"/>
      <point x="386" y="90" type="curve" smooth="yes"/>
      <point x="386" y="-69" type="line"/>
      <point x="404" y="-87" type="line"/>
      <point x="389" y="-40"/>
      <point x="354" y="-6"/>
      <point x="301" y="-6" type="curve" smooth="yes"/>
      <point x="273" y="-6"/>
      <point x="189" y="-15"/>
      <point x="156" y="-15" type="curve" smooth="yes"/>
      <point x="91" y="-15"/>
      <point x="60" y="23"/>
      <point x="60" y="74" type="curve" smooth="yes"/>
      <point x="60" y="105"/>
      <point x="72" y="136"/>
      <point x="86" y="159" type="curve"/>
      <point x="60" y="174" type="line"/>
      <point x="35" y="140"/>
      <point x="23" y="103"/>
      <point x="23" y="66" type="curve" smooth="yes"/>
      <point x="23" y="-20"/>
      <point x="89" y="-84"/>
      <point x="184" y="-84" type="curve" smooth="yes"/>
      <point x="223" y="-84"/>
      <point x="302" y="-73"/>
      <point x="335" y="-73" type="curve" smooth="yes"/>
      <point x="379" y="-73"/>
      <point x="398" y="-93"/>
      <point x="402" y="-135" type="curve"/>
    </contour>
    <contour>
      <point x="331" y="143"/>
      <point x="325" y="175"/>
      <point x="325" y="212" type="curve" smooth="yes"/>
      <point x="325" y="277"/>
      <point x="343" y="327"/>
      <point x="392" y="376" type="curve"/>
      <point x="329" y="433" type="line"/>
      <point x="244" y="408"/>
      <point x="174" y="357"/>
      <point x="127" y="294" type="curve"/>
      <point x="146" y="276" type="line"/>
      <point x="146" y="467" type="line"/>
      <point x="96" y="467" type="line"/>
      <point x="96" y="273" type="line"/>
      <point x="158" y="219" type="line"/>
      <point x="204" y="286"/>
      <point x="262" y="329"/>
      <point x="325" y="360" type="curve"/>
      <point x="321" y="385" type="line"/>
      <point x="295" y="357"/>
      <point x="279" y="302"/>
      <point x="279" y="249" type="curve" smooth="yes"/>
      <point x="279" y="211"/>
      <point x="287" y="164"/>
      <point x="300" y="123" type="curve"/>
      <point x="341" y="101" type="line"/>
    </contour>
    <contour>
      <point x="472" y="456" type="line"/>
      <point x="472" y="499" type="line"/>
      <point x="-15" y="499" type="line"/>
      <point x="-15" y="456" type="line"/>
    </contour>
  </outline>
</glyph>
<glyph name="bDBha" format="1">
  <advance width="530"/>
  <outline>
    <contour>
      <point x="449" y="-88"/>
      <point x="521" y="-27"/>
      <point x="521" y="62" type="curve" smooth="yes"/>
      <point x="521" y="119"/>
      <point x="492" y="172"/>
      <point x="450" y="211" type="curve"/>
      <point x="413" y="156"/>
      <point x="361" y="121"/>
      <point x="309" y="121" type="curve" smooth="yes"/>
      <point x="297" y="121"/>
      <point x="285" y="123"/>
      <point x="275" y="128" type="curve"/>
      <point x="290" y="94" type="line"/>
      <point x="310" y="103"/>
      <point x="321" y="121"/>
      <point x="321" y="143" type="curve" smooth="yes"/>
      <point x="321" y="178"/>
      <point x="293" y="198"/>
      <point x="264" y="198" type="curve" smooth="yes"/>
      <point x="232" y="198"/>
      <point x="207" y="173"/>
      <point x="207" y="138" type="curve" smooth="yes"/>
      <point x="207" y="94"/>
      <point x="249" y="55"/>
      <point x="313" y="55" type="curve" smooth="yes"/>
      <point x="385" y="55"/>
      <point x="451" y="104"/>
      <point x="483" y="154" type="curve"/>
      <point x="449" y="148" type="line"/>
      <point x="463" y="136"/>
      <point x="473" y="114"/>
      <point x="473" y="90" type="curve" smooth="yes"/>
      <point x="473" y="30"/>
      <point x="419" y="-14"/>
      <point x="345" y="-14" type="curve" smooth="yes"/>
      <point x="219" y="-14"/>
      <point x="113" y="118"/>
      <point x="38" y="393" type="curve"/>
      <point x="3" y="383" type="line"/>
      <point x="83" y="78"/>
      <point x="205" y="-88"/>
      <point x="356" y="-88" type="curve" smooth="yes"/>
    </contour>
    <contour>
      <point x="397" y="143"/>
      <point x="391" y="175"/>
      <point x="391" y="212" type="curve" smooth="yes"/>
      <point x="391" y="277"/>
      <point x="409" y="327"/>
      <point x="458" y="376" type="curve"/>
      <point x="395" y="433" type="line"/>
      <point x="310" y="408"/>
      <point x="240" y="357"/>
      <point x="193" y="294" type="curve"/>
      <point x="212" y="276" type="line"/>
      <point x="212" y="467" type="line"/>
      <point x="162" y="467" type="line"/>
      <point x="162" y="273" type="line"/>
      <point x="224" y="219" type="line"/>
      <point x="270" y="286"/>
      <point x="328" y="329"/>
      <point x="391" y="360" type="curve"/>
      <point x="387" y="385" type="line"/>
      <point x="361" y="357"/>
      <point x="345" y="302"/>
      <point x="345" y="249" type="curve" smooth="yes"/>
      <point x="345" y="211"/>
      <point x="353" y="164"/>
      <point x="366" y="123" type="curve"/>
      <point x="407" y="101" type="line"/>
    </contour>
    <contour>
      <point x="545" y="456" type="line"/>
      <point x="545" y="499" type="line"/>
      <point x="-15" y="499" type="line"/>
      <point x="-15" y="456" type="line"/>
    </contour>
  </outline>
</glyph>
<glyph name="bDDBa" format="1">
  <advance width="544"/>
  <outline>
    <contour>
      <point x="475" y="-121" type="line"/>
      <point x="458" y="-42"/>
      <point x="450" y="31"/>
      <point x="450" y="82" type="curve" smooth="yes"/>
      <point x="450" y="155"/>
      <point x="471" y="209"/>
      <point x="525" y="270" type="curve"/>
      <point x="459" y="332" type="line"/>
      <point x="372" y="296"/>
      <point x="298" y="227"/>
      <point x="259" y="147" type="curve"/>
      <point x="272" y="147" type="line"/>
      <point x="272" y="236"/>
      <point x="293" y="294"/>
      <point x="347" y="360" type="curve"/>
      <point x="280" y="421" type="line"/>
      <point x="194" y="386"/>
      <point x="120" y="319"/>
      <point x="75" y="240" type="curve"/>
      <point x="94" y="220" type="line"/>
      <point x="94" y="467" type="line"/>
      <point x="44" y="467" type="line"/>
      <point x="44" y="217" type="line"/>
      <point x="106" y="157" type="line"/>
      <point x="150" y="242"/>
      <point x="212" y="304"/>
      <point x="275" y="338" type="curve"/>
      <point x="276" y="369" type="line"/>
      <point x="245" y="332"/>
      <point x="227" y="268"/>
      <point x="227" y="196" type="curve" smooth="yes"/>
      <point x="227" y="172"/>
      <point x="229" y="148"/>
      <point x="232" y="123" type="curve"/>
      <point x="290" y="73" type="line"/>
      <point x="328" y="155"/>
      <point x="390" y="216"/>
      <point x="454" y="249" type="curve"/>
      <point x="455" y="280" type="line"/>
      <point x="423" y="244"/>
      <point x="405" y="187"/>
      <point x="405" y="119" type="curve" smooth="yes"/>
      <point x="405" y="57"/>
      <point x="417" y="-24"/>
      <point x="441" y="-127" type="curve"/>
    </contour>
    <contour>
      <point x="457" y="-109" type="line"/>
      <point x="428" y="-62"/>
      <point x="377" y="-30"/>
      <point x="309" y="-14" type="curve"/>
      <point x="322" y="-37" type="line"/>
      <point x="366" y="-3"/>
      <point x="407" y="21"/>
      <point x="445" y="37" type="curve"/>
      <point x="420" y="96" type="line"/>
      <point x="363" y="67"/>
      <point x="318" y="40"/>
      <point x="252" y="-8" type="curve"/>
      <point x="299" y="-67" type="line"/>
      <point x="361" y="-71"/>
      <point x="414" y="-83"/>
      <point x="441" y="-127" type="curve"/>
    </contour>
    <contour>
      <point x="559" y="456" type="line"/>
      <point x="559" y="499" type="line"/>
      <point x="-15" y="499" type="line"/>
      <point x="-15" y="456" type="line"/>
    </contour>
  </outline>
</glyph>
<glyph name="bDDRa" format="1">
  <advance width="594"/>
  <outline>
    <contour>
      <point x="517" y="-65" type="line"/>
      <point x="505" y="-10"/>
      <point x="500" y="46"/>
      <point x="500" y="82" type="curve" smooth="yes"/>
      <point x="500" y="154"/>
      <point x="520" y="213"/>
      <point x="575" y="277" type="curve"/>
      <point x="508" y="339" type="line"/>
      <point x="422" y="305"/>
      <point x="348" y="239"/>
      <point x="309" y="161" type="curve"/>
      <point x="322" y="160" type="line"/>
      <point x="322" y="244"/>
      <point x="342" y="298"/>
      <point x="397" y="360" type="curve"/>
      <point x="330" y="421" type="line"/>
      <point x="247" y="386"/>
      <point x="176" y="319"/>
      <point x="132" y="240" type="curve"/>
      <point x="151" y="220" type="line"/>
      <point x="151" y="467" type="line"/>
      <point x="101" y="467" type="line"/>
      <point x="101" y="217" type="line"/>
      <point x="163" y="157" type="line"/>
      <point x="205" y="242"/>
      <point x="265" y="304"/>
      <point x="325" y="338" type="curve"/>
      <point x="326" y="369" type="line"/>
      <point x="295" y="334"/>
      <point x="276" y="271"/>
      <point x="276" y="202" type="curve" smooth="yes"/>
      <point x="276" y="179"/>
      <point x="278" y="159"/>
      <point x="282" y="136" type="curve"/>
      <point x="343" y="88" type="line"/>
      <point x="380" y="167"/>
      <point x="441" y="226"/>
      <point x="503" y="257" type="curve"/>
      <point x="504" y="288" type="line"/>
      <point x="473" y="249"/>
      <point x="455" y="184"/>
      <point x="455" y="114" type="curve" smooth="yes"/>
      <point x="455" y="78"/>
      <point x="460" y="37"/>
      <point x="469" y="-10" type="curve"/>
      <point x="485" y="-29" type="line"/>
      <point x="467" y="14"/>
      <point x="424" y="48"/>
      <point x="355" y="48" type="curve" smooth="yes"/>
      <point x="321" y="48"/>
      <point x="213" y="40"/>
      <point x="172" y="40" type="curve" smooth="yes"/>
      <point x="107" y="40"/>
      <point x="71" y="61"/>
      <point x="71" y="108" type="curve" smooth="yes"/>
      <point x="71" y="122"/>
      <point x="74" y="141"/>
      <point x="82" y="161" type="curve"/>
      <point x="54" y="172" type="line"/>
      <point x="44" y="152"/>
      <point x="38" y="126"/>
      <point x="38" y="104" type="curve" smooth="yes"/>
      <point x="38" y="31"/>
      <point x="103" y="-25"/>
      <point x="197" y="-25" type="curve" smooth="yes"/>
      <point x="243" y="-25"/>
      <point x="369" y="-12"/>
      <point x="407" y="-12" type="curve" smooth="yes"/>
      <point x="455" y="-12"/>
      <point x="474" y="-35"/>
      <point x="483" y="-71" type="curve"/>
    </contour>
    <contour>
      <point x="609" y="456" type="line"/>
      <point x="609" y="499" type="line"/>
      <point x="-15" y="499" type="line"/>
      <point x="-15" y="456" type="line"/>
    </contour>
  </outline>
</glyph>
<glyph name="bDDa" format="1">
  <advance width="544"/>
  <outline>
    <contour>
      <point x="465" y="-50" type="line"/>
      <point x="455" y="0"/>
      <point x="451" y="49"/>
      <point x="451" y="80" type="curve" smooth="yes"/>
      <point x="451" y="153"/>
      <point x="472" y="207"/>
      <point x="525" y="267" type="curve"/>
      <point x="459" y="329" type="line"/>
      <point x="372" y="294"/>
      <point x="298" y="225"/>
      <point x="259" y="145" type="curve"/>
      <point x="272" y="145" type="line"/>
      <point x="272" y="235"/>
      <point x="293" y="293"/>
      <point x="347" y="360" type="curve"/>
      <point x="280" y="421" type="line"/>
      <point x="194" y="386"/>
      <point x="120" y="319"/>
      <point x="75" y="240" type="curve"/>
      <point x="94" y="220" type="line"/>
      <point x="94" y="467" type="line"/>
      <point x="44" y="467" type="line"/>
      <point x="44" y="217" type="line"/>
      <point x="106" y="157" type="line"/>
      <point x="150" y="242"/>
      <point x="212" y="304"/>
      <point x="275" y="338" type="curve"/>
      <point x="276" y="369" type="line"/>
      <point x="245" y="332"/>
      <point x="227" y="266"/>
      <point x="227" y="192" type="curve" smooth="yes"/>
      <point x="227" y="168"/>
      <point x="229" y="143"/>
      <point x="232" y="119" type="curve"/>
      <point x="290" y="64" type="line"/>
      <point x="328" y="150"/>
      <point x="390" y="213"/>
      <point x="454" y="247" type="curve"/>
      <point x="455" y="278" type="line"/>
      <point x="423" y="241"/>
      <point x="405" y="183"/>
      <point x="405" y="116" type="curve" smooth="yes"/>
      <point x="405" y="69"/>
      <point x="414" y="7"/>
      <point x="431" y="-56" type="curve"/>
    </contour>
    <contour>
      <point x="559" y="456" type="line"/>
      <point x="559" y="499" type="line"/>
      <point x="-15" y="499" type="line"/>
      <point x="-15" y="456" type="line"/>
    </contour>
  </outline>
</glyph>
<glyph name="bDDhBa" format="1">
  <advance width="544"/>
  <outline>
    <contour>
      <point x="364" y="89" type="line"/>
      <point x="364" y="317" type="line" smooth="yes"/>
      <point x="364" y="367"/>
      <point x="312" y="423"/>
      <point x="262" y="423" type="curve" smooth="yes"/>
      <point x="214" y="423"/>
      <point x="132" y="370"/>
      <point x="73" y="281" type="curve"/>
      <point x="94" y="265" type="line"/>
      <point x="94" y="467" type="line"/>
      <point x="44" y="467" type="line"/>
      <point x="44" y="264" type="line"/>
      <point x="106" y="214" type="line"/>
      <point x="153" y="298"/>
      <point x="242" y="364"/>
      <point x="286" y="364" type="curve" smooth="yes"/>
      <point x="303" y="364"/>
      <point x="314" y="355"/>
      <point x="314" y="329" type="curve" smooth="yes"/>
      <point x="314" y="89" type="line"/>
    </contour>
    <contour>
      <point x="363" y="-98" type="line"/>
      <point x="363" y="127" type="line"/>
      <point x="338" y="159" type="line"/>
      <point x="269" y="126"/>
      <point x="224" y="101"/>
      <point x="151" y="47" type="curve"/>
      <point x="193" y="-14" type="line"/>
      <point x="256" y="-19"/>
      <point x="315" y="-45"/>
      <point x="330" y="-98" type="curve"/>
    </contour>
    <contour>
      <point x="336" y="-58" type="line"/>
      <point x="310" y="-9"/>
      <point x="265" y="25"/>
      <point x="204" y="40" type="curve"/>
      <point x="214" y="19" type="line"/>
      <point x="262" y="56"/>
      <point x="305" y="83"/>
      <point x="344" y="99" type="curve"/>
      <point x="316" y="110" type="line"/>
      <point x="316" y="-52" type="line"/>
    </contour>
    <contour>
      <point x="288" y="95" type="line"/>
      <point x="250" y="130"/>
      <point x="199" y="156"/>
      <point x="145" y="165" type="curve"/>
      <point x="158" y="134" type="line"/>
      <point x="220" y="182"/>
      <point x="289" y="222"/>
      <point x="353" y="253" type="curve"/>
      <point x="332" y="308" type="line"/>
      <point x="270" y="281"/>
      <point x="181" y="228"/>
      <point x="100" y="167" type="curve"/>
      <point x="148" y="106" type="line"/>
      <point x="193" y="102"/>
      <point x="232" y="89"/>
      <point x="264" y="69" type="curve"/>
    </contour>
    <contour>
      <point x="529" y="-5" type="line"/>
      <point x="511" y="12"/>
      <point x="500" y="35"/>
      <point x="500" y="62" type="curve" smooth="yes"/>
      <point x="500" y="257" type="line" smooth="yes"/>
      <point x="500" y="299"/>
      <point x="458" y="348"/>
      <point x="424" y="348" type="curve" smooth="yes"/>
      <point x="406" y="348"/>
      <point x="369" y="334"/>
      <point x="334" y="310" type="curve"/>
      <point x="353" y="254" type="line"/>
      <point x="385" y="276"/>
      <point x="422" y="294"/>
      <point x="440" y="294" type="curve" smooth="yes"/>
      <point x="447" y="294"/>
      <point x="451" y="290"/>
      <point x="451" y="279" type="curve" smooth="yes"/>
      <point x="451" y="82" type="line" smooth="yes"/>
      <point x="451" y="26"/>
      <point x="476" y="-3"/>
      <point x="514" y="-28" type="curve"/>
    </contour>
    <contour>
      <point x="559" y="456" type="line"/>
      <point x="559" y="499" type="line"/>
      <point x="-15" y="499" type="line"/>
      <point x="-15" y="456" type="line"/>
    </contour>
  </outline>
</glyph>
<glyph name="bDDha" format="1">
  <advance width="544"/>
  <outline>
    <contour>
      <point x="364" y="-35" type="line"/>
      <point x="364" y="307" type="line" smooth="yes"/>
      <point x="364" y="357"/>
      <point x="312" y="413"/>
      <point x="262" y="413" type="curve" smooth="yes"/>
      <point x="214" y="413"/>
      <point x="132" y="364"/>
      <point x="73" y="281" type="curve"/>
      <point x="94" y="265" type="line"/>
      <point x="94" y="467" type="line"/>
      <point x="44" y="467" type="line"/>
      <point x="44" y="264" type="line"/>
      <point x="106" y="214" type="line"/>
      <point x="153" y="292"/>
      <point x="242" y="354"/>
      <point x="286" y="354" type="curve" smooth="yes"/>
      <point x="303" y="354"/>
      <point x="314" y="345"/>
      <point x="314" y="319" type="curve" smooth="yes"/>
      <point x="314" y="25" type="line"/>
      <point x="339" y="8" type="line"/>
      <point x="309" y="79"/>
      <point x="234" y="135"/>
      <point x="147" y="149" type="curve"/>
      <point x="162" y="115" type="line"/>
      <point x="227" y="166"/>
      <point x="289" y="207"/>
      <point x="353" y="238" type="curve"/>
      <point x="338" y="296" type="line"/>
      <point x="275" y="270"/>
      <point x="190" y="218"/>
      <point x="103" y="151" type="curve"/>
      <point x="150" y="89" type="line"/>
      <point x="240" y="81"/>
      <point x="311" y="37"/>
      <point x="334" y="-35" type="curve"/>
    </contour>
    <contour>
      <point x="529" y="-5" type="line"/>
      <point x="511" y="12"/>
      <point x="500" y="35"/>
      <point x="500" y="62" type="curve" smooth="yes"/>
      <point x="500" y="235" type="line" smooth="yes"/>
      <point x="500" y="277"/>
      <point x="459" y="327"/>
      <point x="424" y="327" type="curve" smooth="yes"/>
      <point x="407" y="327"/>
      <point x="369" y="316"/>
      <point x="334" y="295" type="curve"/>
      <point x="353" y="239" type="line"/>
      <point x="385" y="258"/>
      <point x="423" y="273"/>
      <point x="439" y="273" type="curve" smooth="yes"/>
      <point x="447" y="273"/>
      <point x="451" y="269"/>
      <point x="451" y="256" type="curve" smooth="yes"/>
      <point x="451" y="82" type="line" smooth="yes"/>
      <point x="451" y="26"/>
      <point x="476" y="-3"/>
      <point x="514" y="-28" type="curve"/>
    </contour>
    <contour>
      <point x="559" y="456" type="line"/>
      <point x="559" y="499" type="line"/>
      <point x="-15" y="499" type="line"/>
      <point x="-15" y="456" type="line"/>
    </contour>
  </outline>
</glyph>
<glyph name="bDGa" format="1">
  <advance width="799"/>
  <outline>
    <contour>
      <point x="734" y="0" type="line"/>
      <point x="734" y="456" type="line"/>
      <point x="814" y="456" type="line"/>
      <point x="814" y="499" type="line"/>
      <point x="684" y="499" type="line"/>
      <point x="684" y="324" type="line"/>
      <point x="710" y="326" type="line"/>
      <point x="681" y="430"/>
      <point x="610" y="508"/>
      <point x="518" y="508" type="curve" smooth="yes"/>
      <point x="425" y="508"/>
      <point x="355" y="428"/>
      <point x="355" y="343" type="curve" smooth="yes"/>
      <point x="355" y="295"/>
      <point x="382" y="263"/>
      <point x="411" y="263" type="curve" smooth="yes"/>
      <point x="452" y="263"/>
      <point x="484" y="319"/>
      <point x="531" y="319" type="curve" smooth="yes"/>
      <point x="550" y="319"/>
      <point x="562" y="310"/>
      <point x="562" y="290" type="curve" smooth="yes"/>
      <point x="562" y="255"/>
      <point x="525" y="198"/>
      <point x="452" y="141" type="curve"/>
      <point x="513" y="91" type="line"/>
      <point x="574" y="146"/>
      <point x="607" y="205"/>
      <point x="607" y="259" type="curve" smooth="yes"/>
      <point x="607" y="315"/>
      <point x="570" y="373"/>
      <point x="506" y="373" type="curve" smooth="yes"/>
      <point x="474" y="373"/>
      <point x="438" y="356"/>
      <point x="401" y="318" type="curve"/>
      <point x="431" y="295" type="line"/>
      <point x="423" y="305"/>
      <point x="420" y="318"/>
      <point x="420" y="328" type="curve" smooth="yes"/>
      <point x="420" y="390"/>
      <point x="470" y="445"/>
      <point x="538" y="445" type="curve" smooth="yes"/>
      <point x="621" y="445"/>
      <point x="684" y="368"/>
      <point x="684" y="274" type="curve" smooth="yes"/>
      <point x="684" y="0" type="line"/>
    </contour>
    <contour>
      <point x="308" y="-5" type="line"/>
      <point x="298" y="53"/>
      <point x="294" y="110"/>
      <point x="294" y="145" type="curve" smooth="yes"/>
      <point x="294" y="222"/>
      <point x="315" y="282"/>
      <point x="372" y="345" type="curve"/>
      <point x="305" y="409" type="line"/>
      <point x="209" y="378"/>
      <point x="125" y="310"/>
      <point x="75" y="233" type="curve"/>
      <point x="94" y="213" type="line"/>
      <point x="94" y="467" type="line"/>
      <point x="44" y="467" type="line"/>
      <point x="44" y="209" type="line"/>
      <point x="101" y="141" type="line"/>
      <point x="157" y="233"/>
      <point x="226" y="295"/>
      <point x="297" y="328" type="curve"/>
      <point x="298" y="362" type="line"/>
      <point x="266" y="324"/>
      <point x="248" y="259"/>
      <point x="248" y="183" type="curve" smooth="yes"/>
      <point x="248" y="129"/>
      <point x="257" y="59"/>
      <point x="274" y="-11" type="curve"/>
    </contour>
    <contour>
      <point x="366" y="456" type="line"/>
      <point x="366" y="499" type="line"/>
      <point x="-15" y="499" type="line"/>
      <point x="-15" y="456" type="line"/>
    </contour>
  </outline>
</glyph>
<glyph name="bDGha" format="1">
  <advance width="740"/>
  <outline>
    <contour>
      <point x="308" y="-5" type="line"/>
      <point x="298" y="53"/>
      <point x="294" y="110"/>
      <point x="294" y="145" type="curve" smooth="yes"/>
      <point x="294" y="222"/>
      <point x="315" y="282"/>
      <point x="372" y="345" type="curve"/>
      <point x="305" y="409" type="line"/>
      <point x="209" y="378"/>
      <point x="125" y="310"/>
      <point x="75" y="233" type="curve"/>
      <point x="94" y="213" type="line"/>
      <point x="94" y="467" type="line"/>
      <point x="44" y="467" type="line"/>
      <point x="44" y="209" type="line"/>
      <point x="101" y="141" type="line"/>
      <point x="157" y="233"/>
      <point x="226" y="295"/>
      <point x="297" y="328" type="curve"/>
      <point x="298" y="362" type="line"/>
      <point x="266" y="324"/>
      <point x="248" y="259"/>
      <point x="248" y="183" type="curve" smooth="yes"/>
      <point x="248" y="129"/>
      <point x="257" y="59"/>
      <point x="274" y="-11" type="curve"/>
    </contour>
    <contour>
      <point x="366" y="456" type="line"/>
      <point x="366" y="499" type="line"/>
      <point x="-15" y="499" type="line"/>
      <point x="-15" y="456" type="line"/>
    </contour>
    <contour>
      <point x="675" y="0" type="line"/>
      <point x="675" y="467" type="line"/>
      <point x="625" y="467" type="line"/>
      <point x="625" y="59" type="line"/>
      <point x="655" y="45" type="line"/>
      <point x="611" y="154"/>
      <point x="518" y="224"/>
      <point x="408" y="248" type="curve"/>
      <point x="422" y="200" type="line"/>
      <point x="581" y="324" type="line"/>
      <point x="531" y="379" type="line"/>
      <point x="359" y="242" type="line"/>
      <point x="410" y="180" type="line"/>
      <point x="535" y="169"/>
      <point x="623" y="87"/>
      <point x="641" y="0" type="curve"/>
    </contour>
    <contour>
      <point x="478" y="302"/>
      <point x="502" y="307"/>
      <point x="522" y="317" type="curve"/>
      <point x="507" y="358" type="line"/>
      <point x="492" y="346"/>
      <point x="472" y="339"/>
      <point x="454" y="339" type="curve" smooth="yes"/>
      <point x="424" y="339"/>
      <point x="404" y="358"/>
      <point x="404" y="386" type="curve" smooth="yes"/>
      <point x="404" y="419"/>
      <point x="434" y="456"/>
      <point x="483" y="456" type="curve"/>
      <point x="382" y="483" type="line"/>
      <point x="356" y="467"/>
      <point x="339" y="435"/>
      <point x="339" y="404" type="curve" smooth="yes"/>
      <point x="339" y="346"/>
      <point x="396" y="302"/>
      <point x="458" y="302" type="curve" smooth="yes"/>
    </contour>
    <contour>
      <point x="756" y="456" type="line"/>
      <point x="756" y="499" type="line"/>
      <point x="252" y="499" type="line"/>
      <point x="269" y="456" type="line"/>
    </contour>
  </outline>
</glyph>
<glyph name="bDMa" format="1">
  <advance width="508"/>
  <outline>
    <contour>
      <point x="443" y="-40" type="line"/>
      <point x="443" y="467" type="line"/>
      <point x="393" y="467" type="line"/>
      <point x="393" y="25" type="line"/>
      <point x="426" y="4" type="line"/>
      <point x="400" y="91"/>
      <point x="325" y="154"/>
      <point x="255" y="154" type="curve" smooth="yes"/>
      <point x="207" y="154"/>
      <point x="168" y="124"/>
      <point x="168" y="79" type="curve" smooth="yes"/>
      <point x="168" y="40"/>
      <point x="199" y="12"/>
      <point x="237" y="12" type="curve" smooth="yes"/>
      <point x="275" y="12"/>
      <point x="302" y="41"/>
      <point x="302" y="77" type="curve" smooth="yes"/>
      <point x="302" y="93"/>
      <point x="297" y="113"/>
      <point x="278" y="128" type="curve"/>
      <point x="260" y="73" type="line"/>
      <point x="271" y="80"/>
      <point x="282" y="83"/>
      <point x="296" y="83" type="curve" smooth="yes"/>
      <point x="351" y="83"/>
      <point x="400" y="35"/>
      <point x="411" y="-40" type="curve"/>
    </contour>
    <contour>
      <point x="288" y="126"/>
      <point x="282" y="163"/>
      <point x="282" y="200" type="curve" smooth="yes"/>
      <point x="282" y="268"/>
      <point x="300" y="312"/>
      <point x="341" y="362" type="curve"/>
      <point x="278" y="421" type="line"/>
      <point x="193" y="386"/>
      <point x="120" y="319"/>
      <point x="75" y="240" type="curve"/>
      <point x="94" y="223" type="line"/>
      <point x="94" y="467" type="line"/>
      <point x="44" y="467" type="line"/>
      <point x="44" y="217" type="line"/>
      <point x="106" y="159" type="line"/>
      <point x="149" y="244"/>
      <point x="211" y="305"/>
      <point x="274" y="343" type="curve"/>
      <point x="270" y="371" type="line"/>
      <point x="250" y="339"/>
      <point x="235" y="287"/>
      <point x="235" y="236" type="curve" smooth="yes"/>
      <point x="235" y="197"/>
      <point x="243" y="147"/>
      <point x="256" y="105" type="curve"/>
      <point x="300" y="82" type="line"/>
    </contour>
    <contour>
      <point x="523" y="456" type="line"/>
      <point x="523" y="499" type="line"/>
      <point x="-15" y="499" type="line"/>
      <point x="-15" y="456" type="line"/>
    </contour>
  </outline>
</glyph>
<glyph name="bDNa" format="1">
  <advance width="405"/>
  <outline>
    <contour>
      <point x="160" y="-35"/>
      <point x="186" y="-9"/>
      <point x="186" y="25" type="curve" smooth="yes"/>
      <point x="186" y="46"/>
      <point x="175" y="70"/>
      <point x="150" y="81" type="curve"/>
      <point x="144" y="44" type="line"/>
      <point x="155" y="56"/>
      <point x="168" y="62"/>
      <point x="186" y="62" type="curve" smooth="yes"/>
      <point x="231" y="62"/>
      <point x="281" y="27"/>
      <point x="298" y="-40" type="curve"/>
      <point x="329" y="-34" type="line"/>
      <point x="316" y="38"/>
      <point x="309" y="112"/>
      <point x="309" y="155" type="curve" smooth="yes"/>
      <point x="309" y="236"/>
      <point x="331" y="294"/>
      <point x="383" y="355" type="curve"/>
      <point x="316" y="419" type="line"/>
      <point x="220" y="388"/>
      <point x="136" y="320"/>
      <point x="86" y="243" type="curve"/>
      <point x="105" y="223" type="line"/>
      <point x="105" y="467" type="line"/>
      <point x="55" y="467" type="line"/>
      <point x="55" y="219" type="line"/>
      <point x="112" y="155" type="line"/>
      <point x="168" y="244"/>
      <point x="237" y="305"/>
      <point x="308" y="338" type="curve"/>
      <point x="309" y="372" type="line"/>
      <point x="278" y="330"/>
      <point x="264" y="269"/>
      <point x="264" y="183" type="curve" smooth="yes"/>
      <point x="264" y="135"/>
      <point x="268" y="90"/>
      <point x="287" y="6" type="curve"/>
      <point x="307" y="5" type="line"/>
      <point x="278" y="71"/>
      <point x="222" y="119"/>
      <point x="153" y="119" type="curve" smooth="yes"/>
      <point x="94" y="119"/>
      <point x="56" y="83"/>
      <point x="56" y="37" type="curve" smooth="yes"/>
      <point x="56" y="-4"/>
      <point x="86" y="-35"/>
      <point x="125" y="-35" type="curve" smooth="yes"/>
    </contour>
    <contour>
      <point x="420" y="456" type="line"/>
      <point x="420" y="499" type="line"/>
      <point x="-15" y="499" type="line"/>
      <point x="-15" y="456" type="line"/>
    </contour>
  </outline>
</glyph>
<glyph name="bDRa" format="1">
  <advance width="463"/>
  <outline>
    <contour>
      <point x="390" y="-3" type="line"/>
      <point x="376" y="60"/>
      <point x="370" y="124"/>
      <point x="370" y="165" type="curve" smooth="yes"/>
      <point x="370" y="240"/>
      <point x="391" y="296"/>
      <point x="442" y="355" type="curve"/>
      <point x="375" y="419" type="line"/>
      <point x="279" y="388"/>
      <point x="195" y="320"/>
      <point x="144" y="243" type="curve"/>
      <point x="164" y="223" type="line"/>
      <point x="164" y="467" type="line"/>
      <point x="114" y="467" type="line"/>
      <point x="114" y="219" type="line"/>
      <point x="171" y="155" type="line"/>
      <point x="227" y="244"/>
      <point x="296" y="305"/>
      <point x="367" y="338" type="curve"/>
      <point x="367" y="372" type="line"/>
      <point x="340" y="336"/>
      <point x="324" y="273"/>
      <point x="324" y="202" type="curve" smooth="yes"/>
      <point x="324" y="154"/>
      <point x="332" y="93"/>
      <point x="346" y="31" type="curve"/>
      <point x="363" y="24" type="line"/>
      <point x="346" y="77"/>
      <point x="298" y="110"/>
      <point x="238" y="110" type="curve" smooth="yes"/>
      <point x="210" y="110"/>
      <point x="160" y="103"/>
      <point x="133" y="103" type="curve" smooth="yes"/>
      <point x="85" y="103"/>
      <point x="55" y="127"/>
      <point x="55" y="175" type="curve" smooth="yes"/>
      <point x="55" y="195"/>
      <point x="60" y="221"/>
      <point x="68" y="241" type="curve"/>
      <point x="41" y="252" type="line"/>
      <point x="28" y="228"/>
      <point x="21" y="195"/>
      <point x="21" y="169" type="curve" smooth="yes"/>
      <point x="21" y="94"/>
      <point x="78" y="38"/>
      <point x="154" y="38" type="curve" smooth="yes"/>
      <point x="190" y="38"/>
      <point x="256" y="50"/>
      <point x="286" y="50" type="curve" smooth="yes"/>
      <point x="331" y="50"/>
      <point x="350" y="24"/>
      <point x="358" y="-9" type="curve"/>
    </contour>
    <contour>
      <point x="478" y="456" type="line"/>
      <point x="478" y="499" type="line"/>
      <point x="-15" y="499" type="line"/>
      <point x="-15" y="456" type="line"/>
    </contour>
  </outline>
</glyph>
<glyph name="bDRa_bSignU" format="1">
  <advance width="628"/>
  <outline>
    <contour>
      <point x="390" y="-3" type="line"/>
      <point x="376" y="60"/>
      <point x="370" y="124"/>
      <point x="370" y="165" type="curve" smooth="yes"/>
      <point x="370" y="240"/>
      <point x="391" y="296"/>
      <point x="442" y="355" type="curve"/>
      <point x="375" y="419" type="line"/>
      <point x="279" y="388"/>
      <point x="195" y="320"/>
      <point x="144" y="243" type="curve"/>
      <point x="164" y="223" type="line"/>
      <point x="164" y="467" type="line"/>
      <point x="114" y="467" type="line"/>
      <point x="114" y="219" type="line"/>
      <point x="171" y="155" type="line"/>
      <point x="227" y="244"/>
      <point x="296" y="305"/>
      <point x="367" y="338" type="curve"/>
      <point x="367" y="372" type="line"/>
      <point x="340" y="336"/>
      <point x="324" y="273"/>
      <point x="324" y="202" type="curve" smooth="yes"/>
      <point x="324" y="154"/>
      <point x="332" y="93"/>
      <point x="346" y="31" type="curve"/>
      <point x="363" y="24" type="line"/>
      <point x="346" y="77"/>
      <point x="298" y="110"/>
      <point x="238" y="110" type="curve" smooth="yes"/>
      <point x="210" y="110"/>
      <point x="160" y="103"/>
      <point x="133" y="103" type="curve" smooth="yes"/>
      <point x="85" y="103"/>
      <point x="55" y="126"/>
      <point x="55" y="175" type="curve" smooth="yes"/>
      <point x="55" y="196"/>
      <point x="60" y="221"/>
      <point x="68" y="241" type="curve"/>
      <point x="41" y="252" type="line"/>
      <point x="28" y="228"/>
      <point x="21" y="195"/>
      <point x="21" y="169" type="curve" smooth="yes"/>
      <point x="21" y="94"/>
      <point x="78" y="38"/>
      <point x="154" y="38" type="curve" smooth="yes"/>
      <point x="190" y="38"/>
      <point x="256" y="50"/>
      <point x="286" y="50" type="curve" smooth="yes"/>
      <point x="331" y="50"/>
      <point x="350" y="24"/>
      <point x="358" y="-9" type="curve"/>
    </contour>
    <contour>
      <point x="562" y="134"/>
      <point x="603" y="178"/>
      <point x="603" y="237" type="curve" smooth="yes"/>
      <point x="603" y="298"/>
      <point x="560" y="350"/>
      <point x="510" y="350" type="curve" smooth="yes"/>
      <point x="477" y="350"/>
      <point x="452" y="326"/>
      <point x="452" y="297" type="curve" smooth="yes"/>
      <point x="452" y="268"/>
      <point x="475" y="248"/>
      <point x="502" y="248" type="curve" smooth="yes"/>
      <point x="528" y="248"/>
      <point x="546" y="268"/>
      <point x="546" y="290" type="curve" smooth="yes"/>
      <point x="546" y="303"/>
      <point x="540" y="315"/>
      <point x="530" y="320" type="curve"/>
      <point x="516" y="302" type="line"/>
      <point x="521" y="304"/>
      <point x="526" y="305"/>
      <point x="531" y="305" type="curve" smooth="yes"/>
      <point x="551" y="305"/>
      <point x="567" y="285"/>
      <point x="567" y="260" type="curve" smooth="yes"/>
      <point x="567" y="223"/>
      <point x="536" y="196"/>
      <point x="498" y="196" type="curve" smooth="yes"/>
      <point x="457" y="196"/>
      <point x="412" y="228"/>
      <point x="388" y="289" type="curve"/>
      <point x="372" y="263" type="line"/>
      <point x="405" y="183"/>
      <point x="452" y="134"/>
      <point x="509" y="134" type="curve" smooth="yes"/>
    </contour>
    <contour>
      <point x="643" y="456" type="line"/>
      <point x="643" y="499" type="line"/>
      <point x="-15" y="499" type="line"/>
      <point x="-15" y="456" type="line"/>
    </contour>
  </outline>
</glyph>
<glyph name="bDa" format="1">
  <advance width="393"/>
  <outline>
    <contour>
      <point x="308" y="-5" type="line"/>
      <point x="298" y="53"/>
      <point x="294" y="110"/>
      <point x="294" y="145" type="curve" smooth="yes"/>
      <point x="294" y="222"/>
      <point x="315" y="282"/>
      <point x="372" y="345" type="curve"/>
      <point x="305" y="409" type="line"/>
      <point x="209" y="378"/>
      <point x="125" y="310"/>
      <point x="75" y="233" type="curve"/>
      <point x="94" y="213" type="line"/>
      <point x="94" y="467" type="line"/>
      <point x="44" y="467" type="line"/>
      <point x="44" y="209" type="line"/>
      <point x="101" y="141" type="line"/>
      <point x="157" y="233"/>
      <point x="226" y="295"/>
      <point x="297" y="328" type="curve"/>
      <point x="298" y="362" type="line"/>
      <point x="266" y="324"/>
      <point x="248" y="259"/>
      <point x="248" y="183" type="curve" smooth="yes"/>
      <point x="248" y="129"/>
      <point x="257" y="59"/>
      <point x="274" y="-11" type="curve"/>
    </contour>
    <contour>
      <point x="408" y="456" type="line"/>
      <point x="408" y="499" type="line"/>
      <point x="-15" y="499" type="line"/>
      <point x="-15" y="456" type="line"/>
    </contour>
  </outline>
</glyph>
<glyph name="bDandaPoetic" format="1">
  <advance width="309"/>
  <outline>
    <contour>
      <point x="232" y="422" type="line"/>
      <point x="232" y="473"/>
      <point x="208" y="506"/>
      <point x="171" y="506" type="curve" smooth="yes"/>
      <point x="144" y="506"/>
      <point x="122" y="485"/>
      <point x="122" y="457" type="curve" smooth="yes"/>
      <point x="122" y="429"/>
      <point x="143" y="408"/>
      <point x="171" y="408" type="curve" smooth="yes"/>
      <point x="188" y="408"/>
      <point x="206" y="415"/>
      <point x="219" y="434" type="curve"/>
      <point x="182" y="455" type="line"/>
      <point x="182" y="58" type="line"/>
      <point x="182" y="7"/>
      <point x="205" y="-26"/>
      <point x="242" y="-26" type="curve" smooth="yes"/>
      <point x="269" y="-26"/>
      <point x="291" y="-6"/>
      <point x="291" y="23" type="curve" smooth="yes"/>
      <point x="291" y="50"/>
      <point x="270" y="72"/>
      <point x="242" y="72" type="curve" smooth="yes"/>
      <point x="225" y="72"/>
      <point x="207" y="64"/>
      <point x="194" y="45" type="curve"/>
      <point x="232" y="25" type="line"/>
    </contour>
  </outline>
</glyph>
<glyph name="bDdBa" format="1">
  <advance width="482"/>
  <outline>
    <contour>
      <point x="385" y="55"/>
      <point x="448" y="127"/>
      <point x="448" y="223" type="curve" smooth="yes"/>
      <point x="448" y="300"/>
      <point x="408" y="354"/>
      <point x="366" y="390" type="curve"/>
      <point x="325" y="319"/>
      <point x="277" y="274"/>
      <point x="252" y="274" type="curve" smooth="yes"/>
      <point x="241" y="274"/>
      <point x="237" y="282"/>
      <point x="237" y="294" type="curve" smooth="yes"/>
      <point x="237" y="466" type="line"/>
      <point x="187" y="466" type="line"/>
      <point x="187" y="326" type="line" smooth="yes"/>
      <point x="187" y="272"/>
      <point x="229" y="216"/>
      <point x="275" y="216" type="curve" smooth="yes"/>
      <point x="315" y="216"/>
      <point x="370" y="260"/>
      <point x="404" y="323" type="curve"/>
      <point x="366" y="330" type="line"/>
      <point x="391" y="313"/>
      <point x="408" y="283"/>
      <point x="408" y="245" type="curve" smooth="yes"/>
      <point x="408" y="176"/>
      <point x="351" y="126"/>
      <point x="272" y="126" type="curve" smooth="yes"/>
      <point x="179" y="126"/>
      <point x="97" y="196"/>
      <point x="39" y="414" type="curve"/>
      <point x="6" y="404" type="line"/>
      <point x="69" y="155"/>
      <point x="172" y="55"/>
      <point x="287" y="55" type="curve" smooth="yes"/>
    </contour>
    <contour>
      <point x="400" y="-117" type="line"/>
      <point x="400" y="108" type="line"/>
      <point x="375" y="140" type="line"/>
      <point x="292" y="109"/>
      <point x="239" y="84"/>
      <point x="155" y="32" type="curve"/>
      <point x="202" y="-32" type="line"/>
      <point x="281" y="-40"/>
      <point x="348" y="-64"/>
      <point x="366" y="-117" type="curve"/>
    </contour>
    <contour>
      <point x="372" y="-77" type="line"/>
      <point x="341" y="-26"/>
      <point x="286" y="8"/>
      <point x="212" y="25" type="curve"/>
      <point x="225" y="-2" type="line"/>
      <point x="282" y="37"/>
      <point x="335" y="62"/>
      <point x="382" y="79" type="curve"/>
      <point x="352" y="98" type="line"/>
      <point x="352" y="-71" type="line"/>
    </contour>
    <contour>
      <point x="497" y="456" type="line"/>
      <point x="497" y="499" type="line"/>
      <point x="-15" y="499" type="line"/>
      <point x="-15" y="456" type="line"/>
    </contour>
  </outline>
</glyph>
<glyph name="bDdDda" format="1">
  <advance width="781"/>
  <outline>
    <contour>
      <point x="347" y="80"/>
      <point x="403" y="148"/>
      <point x="403" y="239" type="curve" smooth="yes"/>
      <point x="403" y="314"/>
      <point x="365" y="367"/>
      <point x="321" y="405" type="curve"/>
      <point x="288" y="338"/>
      <point x="250" y="291"/>
      <point x="226" y="291" type="curve" smooth="yes"/>
      <point x="216" y="291"/>
      <point x="212" y="300"/>
      <point x="212" y="312" type="curve" smooth="yes"/>
      <point x="212" y="466" type="line"/>
      <point x="162" y="466" type="line"/>
      <point x="162" y="344" type="line" smooth="yes"/>
      <point x="162" y="290"/>
      <point x="205" y="234"/>
      <point x="248" y="234" type="curve" smooth="yes"/>
      <point x="288" y="234"/>
      <point x="333" y="284"/>
      <point x="358" y="340" type="curve"/>
      <point x="321" y="345" type="line"/>
      <point x="346" y="328"/>
      <point x="363" y="298"/>
      <point x="363" y="261" type="curve" smooth="yes"/>
      <point x="363" y="199"/>
      <point x="314" y="152"/>
      <point x="244" y="152" type="curve" smooth="yes"/>
      <point x="167" y="152"/>
      <point x="92" y="210"/>
      <point x="39" y="414" type="curve"/>
      <point x="6" y="404" type="line"/>
      <point x="63" y="174"/>
      <point x="155" y="80"/>
      <point x="259" y="80" type="curve" smooth="yes"/>
    </contour>
    <contour>
      <point x="689" y="30"/>
      <point x="749" y="105"/>
      <point x="749" y="204" type="curve" smooth="yes"/>
      <point x="749" y="284"/>
      <point x="708" y="341"/>
      <point x="662" y="380" type="curve"/>
      <point x="622" y="309"/>
      <point x="574" y="264"/>
      <point x="548" y="264" type="curve" smooth="yes"/>
      <point x="538" y="264"/>
      <point x="533" y="272"/>
      <point x="533" y="284" type="curve" smooth="yes"/>
      <point x="533" y="466" type="line"/>
      <point x="483" y="466" type="line"/>
      <point x="483" y="316" type="line" smooth="yes"/>
      <point x="483" y="261"/>
      <point x="526" y="205"/>
      <point x="572" y="205" type="curve" smooth="yes"/>
      <point x="612" y="205"/>
      <point x="667" y="250"/>
      <point x="700" y="313" type="curve"/>
      <point x="663" y="320" type="line"/>
      <point x="690" y="301"/>
      <point x="709" y="268"/>
      <point x="709" y="226" type="curve" smooth="yes"/>
      <point x="709" y="156"/>
      <point x="654" y="103"/>
      <point x="578" y="103" type="curve" smooth="yes"/>
      <point x="506" y="103"/>
      <point x="442" y="151"/>
      <point x="400" y="267" type="curve"/>
      <point x="374" y="235" type="line"/>
      <point x="428" y="92"/>
      <point x="504" y="30"/>
      <point x="592" y="30" type="curve" smooth="yes"/>
    </contour>
    <contour>
      <point x="397" y="456" type="line"/>
      <point x="397" y="499" type="line"/>
      <point x="-15" y="499" type="line"/>
      <point x="-15" y="456" type="line"/>
    </contour>
    <contour>
      <point x="796" y="456" type="line"/>
      <point x="796" y="499" type="line"/>
      <point x="272" y="499" type="line"/>
      <point x="272" y="456" type="line"/>
    </contour>
  </outline>
</glyph>
<glyph name="bDdGa" format="1">
  <advance width="840"/>
  <outline>
    <contour>
      <point x="775" y="0" type="line"/>
      <point x="775" y="456" type="line"/>
      <point x="855" y="456" type="line"/>
      <point x="855" y="499" type="line"/>
      <point x="725" y="499" type="line"/>
      <point x="725" y="324" type="line"/>
      <point x="751" y="326" type="line"/>
      <point x="722" y="430"/>
      <point x="651" y="508"/>
      <point x="559" y="508" type="curve" smooth="yes"/>
      <point x="466" y="508"/>
      <point x="396" y="428"/>
      <point x="396" y="343" type="curve" smooth="yes"/>
      <point x="396" y="295"/>
      <point x="423" y="263"/>
      <point x="452" y="263" type="curve" smooth="yes"/>
      <point x="493" y="263"/>
      <point x="525" y="319"/>
      <point x="572" y="319" type="curve" smooth="yes"/>
      <point x="591" y="319"/>
      <point x="603" y="310"/>
      <point x="603" y="290" type="curve" smooth="yes"/>
      <point x="603" y="255"/>
      <point x="566" y="198"/>
      <point x="493" y="141" type="curve"/>
      <point x="554" y="91" type="line"/>
      <point x="615" y="146"/>
      <point x="648" y="205"/>
      <point x="648" y="259" type="curve" smooth="yes"/>
      <point x="648" y="315"/>
      <point x="611" y="373"/>
      <point x="547" y="373" type="curve" smooth="yes"/>
      <point x="515" y="373"/>
      <point x="479" y="356"/>
      <point x="442" y="318" type="curve"/>
      <point x="472" y="295" type="line"/>
      <point x="464" y="305"/>
      <point x="461" y="318"/>
      <point x="461" y="328" type="curve" smooth="yes"/>
      <point x="461" y="390"/>
      <point x="511" y="445"/>
      <point x="579" y="445" type="curve" smooth="yes"/>
      <point x="662" y="445"/>
      <point x="725" y="368"/>
      <point x="725" y="274" type="curve" smooth="yes"/>
      <point x="725" y="0" type="line"/>
    </contour>
    <contour>
      <point x="376" y="51"/>
      <point x="440" y="123"/>
      <point x="440" y="220" type="curve" smooth="yes"/>
      <point x="440" y="297"/>
      <point x="399" y="351"/>
      <point x="356" y="388" type="curve"/>
      <point x="316" y="318"/>
      <point x="269" y="274"/>
      <point x="244" y="274" type="curve" smooth="yes"/>
      <point x="234" y="274"/>
      <point x="229" y="282"/>
      <point x="229" y="294" type="curve" smooth="yes"/>
      <point x="229" y="466" type="line"/>
      <point x="179" y="466" type="line"/>
      <point x="179" y="326" type="line" smooth="yes"/>
      <point x="179" y="271"/>
      <point x="222" y="215"/>
      <point x="268" y="215" type="curve" smooth="yes"/>
      <point x="307" y="215"/>
      <point x="360" y="259"/>
      <point x="393" y="322" type="curve"/>
      <point x="356" y="327" type="line"/>
      <point x="382" y="310"/>
      <point x="400" y="281"/>
      <point x="400" y="242" type="curve" smooth="yes"/>
      <point x="400" y="174"/>
      <point x="343" y="124"/>
      <point x="265" y="124" type="curve" smooth="yes"/>
      <point x="177" y="124"/>
      <point x="97" y="188"/>
      <point x="39" y="414" type="curve"/>
      <point x="6" y="404" type="line"/>
      <point x="66" y="156"/>
      <point x="163" y="51"/>
      <point x="280" y="51" type="curve" smooth="yes"/>
    </contour>
    <contour>
      <point x="415" y="456" type="line"/>
      <point x="415" y="499" type="line"/>
      <point x="-15" y="499" type="line"/>
      <point x="-15" y="456" type="line"/>
    </contour>
  </outline>
</glyph>
<glyph name="bDdMa" format="1">
  <advance width="552"/>
  <outline>
    <contour>
      <point x="475" y="-110" type="line"/>
      <point x="475" y="467" type="line"/>
      <point x="425" y="467" type="line"/>
      <point x="425" y="-45" type="line"/>
      <point x="458" y="-78" type="line"/>
      <point x="436" y="6"/>
      <point x="366" y="71"/>
      <point x="297" y="71" type="curve" smooth="yes"/>
      <point x="253" y="71"/>
      <point x="213" y="42"/>
      <point x="213" y="-1" type="curve" smooth="yes"/>
      <point x="213" y="-40"/>
      <point x="244" y="-68"/>
      <point x="282" y="-68" type="curve" smooth="yes"/>
      <point x="320" y="-68"/>
      <point x="348" y="-39"/>
      <point x="348" y="-2" type="curve" smooth="yes"/>
      <point x="348" y="14"/>
      <point x="342" y="34"/>
      <point x="323" y="49" type="curve"/>
      <point x="303" y="-8" type="line"/>
      <point x="314" y="0"/>
      <point x="325" y="3"/>
      <point x="338" y="3" type="curve" smooth="yes"/>
      <point x="388" y="3"/>
      <point x="433" y="-42"/>
      <point x="441" y="-110" type="curve"/>
    </contour>
    <contour>
      <point x="328" y="85"/>
      <point x="299" y="119"/>
      <point x="272" y="131" type="curve"/>
      <point x="234" y="119" type="line"/>
      <point x="257" y="108"/>
      <point x="277" y="90"/>
      <point x="284" y="57" type="curve"/>
      <point x="337" y="51" type="line"/>
    </contour>
    <contour>
      <point x="321" y="109"/>
      <point x="372" y="168"/>
      <point x="372" y="244" type="curve" smooth="yes"/>
      <point x="372" y="304"/>
      <point x="340" y="351"/>
      <point x="305" y="382" type="curve"/>
      <point x="276" y="330"/>
      <point x="242" y="292"/>
      <point x="221" y="292" type="curve" smooth="yes"/>
      <point x="211" y="292"/>
      <point x="207" y="301"/>
      <point x="207" y="313" type="curve" smooth="yes"/>
      <point x="207" y="466" type="line"/>
      <point x="157" y="466" type="line"/>
      <point x="157" y="342" type="line" smooth="yes"/>
      <point x="157" y="291"/>
      <point x="199" y="238"/>
      <point x="241" y="238" type="curve" smooth="yes"/>
      <point x="277" y="238"/>
      <point x="316" y="279"/>
      <point x="341" y="322" type="curve"/>
      <point x="309" y="322" type="line"/>
      <point x="323" y="310"/>
      <point x="334" y="289"/>
      <point x="334" y="265" type="curve" smooth="yes"/>
      <point x="334" y="213"/>
      <point x="287" y="177"/>
      <point x="230" y="177" type="curve" smooth="yes"/>
      <point x="161" y="177"/>
      <point x="88" y="229"/>
      <point x="39" y="414" type="curve"/>
      <point x="6" y="404" type="line"/>
      <point x="57" y="196"/>
      <point x="148" y="109"/>
      <point x="243" y="109" type="curve" smooth="yes"/>
    </contour>
    <contour>
      <point x="397" y="456" type="line"/>
      <point x="397" y="499" type="line"/>
      <point x="-15" y="499" type="line"/>
      <point x="-15" y="456" type="line"/>
    </contour>
    <contour>
      <point x="555" y="456" type="line"/>
      <point x="555" y="499" type="line"/>
      <point x="233" y="499" type="line"/>
      <point x="233" y="456" type="line"/>
    </contour>
  </outline>
</glyph>
<glyph name="bDdRa" format="1">
  <advance width="502"/>
  <outline>
    <contour>
      <point x="405" y="55"/>
      <point x="468" y="127"/>
      <point x="468" y="223" type="curve" smooth="yes"/>
      <point x="468" y="300"/>
      <point x="428" y="354"/>
      <point x="386" y="390" type="curve"/>
      <point x="345" y="319"/>
      <point x="297" y="274"/>
      <point x="272" y="274" type="curve" smooth="yes"/>
      <point x="261" y="274"/>
      <point x="257" y="282"/>
      <point x="257" y="294" type="curve" smooth="yes"/>
      <point x="257" y="466" type="line"/>
      <point x="207" y="466" type="line"/>
      <point x="207" y="326" type="line" smooth="yes"/>
      <point x="207" y="272"/>
      <point x="249" y="216"/>
      <point x="295" y="216" type="curve" smooth="yes"/>
      <point x="335" y="216"/>
      <point x="390" y="260"/>
      <point x="424" y="323" type="curve"/>
      <point x="386" y="330" type="line"/>
      <point x="411" y="313"/>
      <point x="428" y="283"/>
      <point x="428" y="245" type="curve" smooth="yes"/>
      <point x="428" y="176"/>
      <point x="371" y="126"/>
      <point x="292" y="126" type="curve" smooth="yes"/>
      <point x="199" y="126"/>
      <point x="117" y="196"/>
      <point x="59" y="414" type="curve"/>
      <point x="26" y="404" type="line"/>
      <point x="89" y="155"/>
      <point x="192" y="55"/>
      <point x="307" y="55" type="curve" smooth="yes"/>
    </contour>
    <contour>
      <point x="420" y="-113" type="line"/>
      <point x="420" y="105" type="line"/>
      <point x="376" y="105" type="line"/>
      <point x="376" y="-59" type="line"/>
      <point x="395" y="-79" type="line"/>
      <point x="379" y="-29"/>
      <point x="338" y="12"/>
      <point x="270" y="12" type="curve" smooth="yes"/>
      <point x="247" y="12"/>
      <point x="186" y="8"/>
      <point x="163" y="8" type="curve" smooth="yes"/>
      <point x="111" y="8"/>
      <point x="79" y="32"/>
      <point x="79" y="82" type="curve" smooth="yes"/>
      <point x="79" y="100"/>
      <point x="83" y="123"/>
      <point x="92" y="142" type="curve"/>
      <point x="64" y="153" type="line"/>
      <point x="52" y="131"/>
      <point x="45" y="101"/>
      <point x="45" y="75" type="curve" smooth="yes"/>
      <point x="45" y="0"/>
      <point x="106" y="-59"/>
      <point x="185" y="-59" type="curve" smooth="yes"/>
      <point x="220" y="-59"/>
      <point x="291" y="-48"/>
      <point x="319" y="-48" type="curve" smooth="yes"/>
      <point x="363" y="-48"/>
      <point x="383" y="-77"/>
      <point x="386" y="-113" type="curve"/>
    </contour>
    <contour>
      <point x="517" y="456" type="line"/>
      <point x="517" y="499" type="line"/>
      <point x="-15" y="499" type="line"/>
      <point x="-15" y="456" type="line"/>
    </contour>
  </outline>
</glyph>
<glyph name="bDda" format="1">
  <advance width="486"/>
  <outline>
    <contour>
      <point x="389" y="21"/>
      <point x="454" y="101"/>
      <point x="454" y="204" type="curve" smooth="yes"/>
      <point x="454" y="286"/>
      <point x="413" y="341"/>
      <point x="367" y="380" type="curve"/>
      <point x="327" y="309"/>
      <point x="279" y="264"/>
      <point x="253" y="264" type="curve" smooth="yes"/>
      <point x="243" y="264"/>
      <point x="238" y="272"/>
      <point x="238" y="284" type="curve" smooth="yes"/>
      <point x="238" y="466" type="line"/>
      <point x="188" y="466" type="line"/>
      <point x="188" y="316" type="line" smooth="yes"/>
      <point x="188" y="261"/>
      <point x="231" y="205"/>
      <point x="277" y="205" type="curve" smooth="yes"/>
      <point x="317" y="205"/>
      <point x="372" y="250"/>
      <point x="405" y="313" type="curve"/>
      <point x="368" y="320" type="line"/>
      <point x="395" y="301"/>
      <point x="414" y="269"/>
      <point x="414" y="227" type="curve" smooth="yes"/>
      <point x="414" y="151"/>
      <point x="356" y="94"/>
      <point x="272" y="94" type="curve" smooth="yes"/>
      <point x="171" y="94"/>
      <point x="94" y="181"/>
      <point x="38" y="414" type="curve"/>
      <point x="5" y="404" type="line"/>
      <point x="69" y="127"/>
      <point x="170" y="21"/>
      <point x="288" y="21" type="curve" smooth="yes"/>
    </contour>
    <contour>
      <point x="501" y="456" type="line"/>
      <point x="501" y="499" type="line"/>
      <point x="-15" y="499" type="line"/>
      <point x="-15" y="456" type="line"/>
    </contour>
  </outline>
</glyph>
<glyph name="bDdhRa" format="1">
  <advance width="436"/>
  <outline>
    <contour>
      <point x="287" y="51"/>
      <point x="400" y="181"/>
      <point x="400" y="281" type="curve" smooth="yes"/>
      <point x="400" y="334"/>
      <point x="368" y="380"/>
      <point x="319" y="380" type="curve" smooth="yes"/>
      <point x="281" y="380"/>
      <point x="253" y="352"/>
      <point x="253" y="317" type="curve" smooth="yes"/>
      <point x="253" y="282"/>
      <point x="282" y="253"/>
      <point x="321" y="253" type="curve" smooth="yes"/>
      <point x="337" y="253"/>
      <point x="349" y="258"/>
      <point x="362" y="269" type="curve"/>
      <point x="336" y="293" type="line"/>
      <point x="336" y="218"/>
      <point x="246" y="110"/>
      <point x="191" y="110" type="curve" smooth="yes"/>
      <point x="169" y="110"/>
      <point x="159" y="126"/>
      <point x="159" y="167" type="curve" smooth="yes"/>
      <point x="159" y="467" type="line"/>
      <point x="109" y="467" type="line"/>
      <point x="109" y="189" type="line" smooth="yes"/>
      <point x="109" y="108"/>
      <point x="161" y="51"/>
      <point x="212" y="51" type="curve" smooth="yes"/>
    </contour>
    <contour>
      <point x="346" y="-114" type="line"/>
      <point x="346" y="167" type="line"/>
      <point x="302" y="167" type="line"/>
      <point x="302" y="-60" type="line"/>
      <point x="321" y="-79" type="line"/>
      <point x="304" y="-23"/>
      <point x="266" y="12"/>
      <point x="210" y="12" type="curve" smooth="yes"/>
      <point x="192" y="12"/>
      <point x="141" y="8"/>
      <point x="124" y="8" type="curve" smooth="yes"/>
      <point x="86" y="8"/>
      <point x="63" y="28"/>
      <point x="63" y="68" type="curve" smooth="yes"/>
      <point x="63" y="87"/>
      <point x="69" y="109"/>
      <point x="77" y="128" type="curve"/>
      <point x="50" y="139" type="line"/>
      <point x="38" y="117"/>
      <point x="31" y="88"/>
      <point x="31" y="62" type="curve" smooth="yes"/>
      <point x="31" y="-7"/>
      <point x="81" y="-57"/>
      <point x="146" y="-57" type="curve" smooth="yes"/>
      <point x="172" y="-57"/>
      <point x="223" y="-48"/>
      <point x="246" y="-48" type="curve" smooth="yes"/>
      <point x="287" y="-48"/>
      <point x="310" y="-78"/>
      <point x="312" y="-114" type="curve"/>
    </contour>
    <contour>
      <point x="451" y="456" type="line"/>
      <point x="451" y="499" type="line"/>
      <point x="-15" y="499" type="line"/>
      <point x="-15" y="456" type="line"/>
    </contour>
  </outline>
</glyph>
<glyph name="bDhBa" format="1">
  <advance width="700"/>
  <outline>
    <contour>
      <point x="335" y="0" type="line"/>
      <point x="335" y="456" type="line"/>
      <point x="415" y="456" type="line"/>
      <point x="415" y="499" type="line"/>
      <point x="285" y="499" type="line"/>
      <point x="285" y="62" type="line"/>
      <point x="305" y="68" type="line"/>
      <point x="257" y="173"/>
      <point x="163" y="228"/>
      <point x="62" y="256" type="curve"/>
      <point x="65" y="218" type="line"/>
      <point x="142" y="278"/>
      <point x="219" y="324"/>
      <point x="303" y="366" type="curve"/>
      <point x="296" y="439" type="line"/>
      <point x="196" y="387"/>
      <point x="104" y="333"/>
      <point x="16" y="265" type="curve"/>
      <point x="78" y="180" type="line"/>
      <point x="209" y="159"/>
      <point x="290" y="82"/>
      <point x="301" y="0" type="curve"/>
    </contour>
    <contour>
      <point x="172" y="340"/>
      <point x="183" y="341"/>
      <point x="195" y="345" type="curve"/>
      <point x="206" y="389" type="line"/>
      <point x="183" y="379"/>
      <point x="170" y="376"/>
      <point x="156" y="376" type="curve" smooth="yes"/>
      <point x="117" y="376"/>
      <point x="97" y="399"/>
      <point x="97" y="421" type="curve" smooth="yes"/>
      <point x="97" y="443"/>
      <point x="116" y="461"/>
      <point x="145" y="461" type="curve" smooth="yes"/>
      <point x="155" y="461"/>
      <point x="170" y="459"/>
      <point x="184" y="454" type="curve"/>
      <point x="143" y="494" type="line"/>
      <point x="124" y="486"/>
      <point x="117" y="468"/>
      <point x="117" y="454" type="curve" smooth="yes"/>
      <point x="117" y="431"/>
      <point x="137" y="415"/>
      <point x="160" y="415" type="curve" smooth="yes"/>
      <point x="184" y="415"/>
      <point x="205" y="433"/>
      <point x="205" y="460" type="curve" smooth="yes"/>
      <point x="205" y="491"/>
      <point x="176" y="517"/>
      <point x="132" y="517" type="curve" smooth="yes"/>
      <point x="83" y="517"/>
      <point x="44" y="483"/>
      <point x="44" y="435" type="curve" smooth="yes"/>
      <point x="44" y="380"/>
      <point x="98" y="340"/>
      <point x="160" y="340" type="curve" smooth="yes"/>
    </contour>
    <contour>
      <point x="635" y="0" type="line"/>
      <point x="635" y="466" type="line"/>
      <point x="585" y="466" type="line"/>
      <point x="585" y="72" type="line"/>
      <point x="608" y="69" type="line"/>
      <point x="565" y="169"/>
      <point x="464" y="248"/>
      <point x="372" y="276" type="curve"/>
      <point x="377" y="243" type="line"/>
      <point x="445" y="300"/>
      <point x="532" y="347"/>
      <point x="619" y="373" type="curve"/>
      <point x="605" y="438" type="line"/>
      <point x="519" y="418"/>
      <point x="399" y="357"/>
      <point x="312" y="286" type="curve"/>
      <point x="374" y="202" type="line"/>
      <point x="478" y="186"/>
      <point x="578" y="115"/>
      <point x="601" y="0" type="curve"/>
    </contour>
    <contour>
      <point x="715" y="456" type="line"/>
      <point x="715" y="499" type="line"/>
      <point x="380" y="499" type="line"/>
      <point x="380" y="456" type="line"/>
    </contour>
  </outline>
</glyph>
<glyph name="bDhMa" format="1">
  <advance width="493"/>
  <outline>
    <contour>
      <point x="281" y="133" type="line"/>
      <point x="281" y="456" type="line"/>
      <point x="508" y="456" type="line"/>
      <point x="508" y="499" type="line"/>
      <point x="231" y="499" type="line"/>
      <point x="231" y="167" type="line"/>
      <point x="254" y="186" type="line"/>
      <point x="210" y="262"/>
      <point x="135" y="304"/>
      <point x="54" y="316" type="curve"/>
      <point x="64" y="285" type="line"/>
      <point x="121" y="325"/>
      <point x="181" y="356"/>
      <point x="244" y="380" type="curve"/>
      <point x="241" y="440" type="line"/>
      <point x="161" y="408"/>
      <point x="86" y="372"/>
      <point x="16" y="325" type="curve"/>
      <point x="62" y="257" type="line"/>
      <point x="159" y="250"/>
      <point x="237" y="200"/>
      <point x="248" y="133" type="curve"/>
    </contour>
    <contour>
      <point x="428" y="0" type="line"/>
      <point x="428" y="467" type="line"/>
      <point x="378" y="467" type="line"/>
      <point x="378" y="65" type="line"/>
      <point x="411" y="42" type="line"/>
      <point x="385" y="133"/>
      <point x="310" y="199"/>
      <point x="238" y="199" type="curve" smooth="yes"/>
      <point x="189" y="199"/>
      <point x="151" y="168"/>
      <point x="151" y="124" type="curve" smooth="yes"/>
      <point x="151" y="84"/>
      <point x="182" y="56"/>
      <point x="220" y="56" type="curve" smooth="yes"/>
      <point x="259" y="56"/>
      <point x="286" y="84"/>
      <point x="286" y="120" type="curve" smooth="yes"/>
      <point x="286" y="135"/>
      <point x="281" y="154"/>
      <point x="264" y="168" type="curve"/>
      <point x="242" y="116" type="line"/>
      <point x="253" y="124"/>
      <point x="264" y="127"/>
      <point x="278" y="127" type="curve" smooth="yes"/>
      <point x="333" y="127"/>
      <point x="385" y="79"/>
      <point x="396" y="0" type="curve"/>
    </contour>
    <contour>
      <point x="148" y="366"/>
      <point x="157" y="367"/>
      <point x="167" y="369" type="curve"/>
      <point x="173" y="411" type="line"/>
      <point x="159" y="405"/>
      <point x="142" y="398"/>
      <point x="126" y="398" type="curve" smooth="yes"/>
      <point x="104" y="398"/>
      <point x="87" y="413"/>
      <point x="87" y="433" type="curve" smooth="yes"/>
      <point x="87" y="452"/>
      <point x="104" y="466"/>
      <point x="128" y="466" type="curve" smooth="yes"/>
      <point x="137" y="466"/>
      <point x="151" y="464"/>
      <point x="164" y="460" type="curve"/>
      <point x="130" y="498" type="line"/>
      <point x="110" y="491"/>
      <point x="103" y="474"/>
      <point x="103" y="462" type="curve" smooth="yes"/>
      <point x="103" y="441"/>
      <point x="121" y="426"/>
      <point x="142" y="426" type="curve" smooth="yes"/>
      <point x="162" y="426"/>
      <point x="180" y="441"/>
      <point x="180" y="464" type="curve" smooth="yes"/>
      <point x="180" y="491"/>
      <point x="157" y="517"/>
      <point x="117" y="517" type="curve" smooth="yes"/>
      <point x="75" y="517"/>
      <point x="41" y="486"/>
      <point x="41" y="446" type="curve" smooth="yes"/>
      <point x="41" y="398"/>
      <point x="89" y="366"/>
      <point x="139" y="366" type="curve" smooth="yes"/>
    </contour>
  </outline>
</glyph>
<glyph name="bDhNa" format="1">
  <advance width="404"/>
  <outline>
    <contour>
      <point x="340" y="44" type="line"/>
      <point x="340" y="456" type="line"/>
      <point x="420" y="456" type="line"/>
      <point x="420" y="499" type="line"/>
      <point x="290" y="499" type="line"/>
      <point x="290" y="108" type="line"/>
      <point x="310" y="112" type="line"/>
      <point x="262" y="203"/>
      <point x="168" y="251"/>
      <point x="70" y="270" type="curve"/>
      <point x="73" y="230" type="line"/>
      <point x="148" y="285"/>
      <point x="225" y="328"/>
      <point x="308" y="366" type="curve"/>
      <point x="300" y="439" type="line"/>
      <point x="202" y="390"/>
      <point x="112" y="339"/>
      <point x="24" y="279" type="curve"/>
      <point x="86" y="194" type="line"/>
      <point x="213" y="181"/>
      <point x="293" y="129"/>
      <point x="303" y="44" type="curve"/>
    </contour>
    <contour>
      <point x="340" y="-19" type="line"/>
      <point x="340" y="58" type="line"/>
      <point x="305" y="58" type="line"/>
      <point x="305" y="24" type="line"/>
      <point x="312" y="33" type="line"/>
      <point x="280" y="98"/>
      <point x="221" y="136"/>
      <point x="164" y="136" type="curve" smooth="yes"/>
      <point x="112" y="136"/>
      <point x="74" y="102"/>
      <point x="74" y="59" type="curve" smooth="yes"/>
      <point x="74" y="21"/>
      <point x="103" y="-8"/>
      <point x="138" y="-8" type="curve" smooth="yes"/>
      <point x="171" y="-8"/>
      <point x="196" y="17"/>
      <point x="196" y="48" type="curve" smooth="yes"/>
      <point x="196" y="66"/>
      <point x="188" y="84"/>
      <point x="169" y="96" type="curve"/>
      <point x="165" y="70" type="line"/>
      <point x="173" y="75"/>
      <point x="181" y="78"/>
      <point x="194" y="78" type="curve" smooth="yes"/>
      <point x="242" y="78"/>
      <point x="294" y="43"/>
      <point x="306" y="-19" type="curve"/>
    </contour>
    <contour>
      <point x="175" y="341"/>
      <point x="187" y="343"/>
      <point x="199" y="346" type="curve"/>
      <point x="208" y="390" type="line"/>
      <point x="187" y="380"/>
      <point x="172" y="376"/>
      <point x="159" y="376" type="curve" smooth="yes"/>
      <point x="121" y="376"/>
      <point x="101" y="399"/>
      <point x="101" y="421" type="curve" smooth="yes"/>
      <point x="101" y="443"/>
      <point x="120" y="461"/>
      <point x="149" y="461" type="curve" smooth="yes"/>
      <point x="159" y="461"/>
      <point x="174" y="459"/>
      <point x="188" y="454" type="curve"/>
      <point x="147" y="494" type="line"/>
      <point x="128" y="486"/>
      <point x="121" y="468"/>
      <point x="121" y="454" type="curve" smooth="yes"/>
      <point x="121" y="431"/>
      <point x="141" y="415"/>
      <point x="164" y="415" type="curve" smooth="yes"/>
      <point x="188" y="415"/>
      <point x="209" y="433"/>
      <point x="209" y="460" type="curve" smooth="yes"/>
      <point x="209" y="491"/>
      <point x="180" y="517"/>
      <point x="136" y="517" type="curve" smooth="yes"/>
      <point x="87" y="517"/>
      <point x="48" y="483"/>
      <point x="48" y="435" type="curve" smooth="yes"/>
      <point x="48" y="381"/>
      <point x="102" y="341"/>
      <point x="164" y="341" type="curve" smooth="yes"/>
    </contour>
  </outline>
</glyph>
<glyph name="bDhRa" format="1">
  <advance width="452"/>
  <outline>
    <contour>
      <point x="387" y="46" type="line"/>
      <point x="387" y="456" type="line"/>
      <point x="467" y="456" type="line"/>
      <point x="467" y="499" type="line"/>
      <point x="337" y="499" type="line"/>
      <point x="337" y="108" type="line"/>
      <point x="357" y="114" type="line"/>
      <point x="309" y="204"/>
      <point x="215" y="252"/>
      <point x="117" y="270" type="curve"/>
      <point x="120" y="230" type="line"/>
      <point x="195" y="285"/>
      <point x="272" y="328"/>
      <point x="355" y="366" type="curve"/>
      <point x="347" y="439" type="line"/>
      <point x="249" y="390"/>
      <point x="159" y="339"/>
      <point x="71" y="279" type="curve"/>
      <point x="133" y="194" type="line"/>
      <point x="260" y="182"/>
      <point x="340" y="130"/>
      <point x="350" y="46" type="curve"/>
    </contour>
    <contour>
      <point x="386" y="-14" type="line"/>
      <point x="386" y="136" type="line"/>
      <point x="349" y="136" type="line"/>
      <point x="349" y="32" type="line"/>
      <point x="362" y="22" type="line"/>
      <point x="343" y="81"/>
      <point x="295" y="116"/>
      <point x="234" y="116" type="curve" smooth="yes"/>
      <point x="206" y="116"/>
      <point x="158" y="109"/>
      <point x="130" y="109" type="curve" smooth="yes"/>
      <point x="84" y="109"/>
      <point x="60" y="128"/>
      <point x="60" y="162" type="curve" smooth="yes"/>
      <point x="60" y="178"/>
      <point x="65" y="197"/>
      <point x="71" y="213" type="curve"/>
      <point x="44" y="224" type="line"/>
      <point x="33" y="203"/>
      <point x="27" y="178"/>
      <point x="27" y="157" type="curve" smooth="yes"/>
      <point x="27" y="94"/>
      <point x="80" y="44"/>
      <point x="151" y="44" type="curve" smooth="yes"/>
      <point x="186" y="44"/>
      <point x="254" y="56"/>
      <point x="283" y="56" type="curve" smooth="yes"/>
      <point x="327" y="56"/>
      <point x="349" y="27"/>
      <point x="352" y="-14" type="curve"/>
    </contour>
    <contour>
      <point x="222" y="341"/>
      <point x="234" y="343"/>
      <point x="246" y="346" type="curve"/>
      <point x="255" y="390" type="line"/>
      <point x="234" y="380"/>
      <point x="219" y="376"/>
      <point x="206" y="376" type="curve" smooth="yes"/>
      <point x="168" y="376"/>
      <point x="148" y="399"/>
      <point x="148" y="421" type="curve" smooth="yes"/>
      <point x="148" y="443"/>
      <point x="167" y="461"/>
      <point x="196" y="461" type="curve" smooth="yes"/>
      <point x="206" y="461"/>
      <point x="221" y="459"/>
      <point x="235" y="454" type="curve"/>
      <point x="194" y="494" type="line"/>
      <point x="175" y="486"/>
      <point x="168" y="468"/>
      <point x="168" y="454" type="curve" smooth="yes"/>
      <point x="168" y="431"/>
      <point x="188" y="415"/>
      <point x="211" y="415" type="curve" smooth="yes"/>
      <point x="235" y="415"/>
      <point x="256" y="433"/>
      <point x="256" y="460" type="curve" smooth="yes"/>
      <point x="256" y="491"/>
      <point x="227" y="517"/>
      <point x="183" y="517" type="curve" smooth="yes"/>
      <point x="134" y="517"/>
      <point x="95" y="483"/>
      <point x="95" y="435" type="curve" smooth="yes"/>
      <point x="95" y="381"/>
      <point x="149" y="341"/>
      <point x="211" y="341" type="curve" smooth="yes"/>
    </contour>
  </outline>
</glyph>
<glyph name="bDhRa_bSignU" format="1">
  <advance width="604"/>
  <outline>
    <contour>
      <point x="387" y="46" type="line"/>
      <point x="387" y="456" type="line"/>
      <point x="619" y="456" type="line"/>
      <point x="619" y="499" type="line"/>
      <point x="337" y="499" type="line"/>
      <point x="337" y="108" type="line"/>
      <point x="357" y="114" type="line"/>
      <point x="309" y="204"/>
      <point x="215" y="252"/>
      <point x="117" y="270" type="curve"/>
      <point x="120" y="230" type="line"/>
      <point x="195" y="285"/>
      <point x="272" y="328"/>
      <point x="355" y="366" type="curve"/>
      <point x="347" y="439" type="line"/>
      <point x="249" y="390"/>
      <point x="159" y="339"/>
      <point x="71" y="279" type="curve"/>
      <point x="133" y="194" type="line"/>
      <point x="260" y="182"/>
      <point x="340" y="130"/>
      <point x="350" y="46" type="curve"/>
    </contour>
    <contour>
      <point x="386" y="-14" type="line"/>
      <point x="386" y="136" type="line"/>
      <point x="349" y="136" type="line"/>
      <point x="349" y="32" type="line"/>
      <point x="362" y="22" type="line"/>
      <point x="343" y="81"/>
      <point x="295" y="116"/>
      <point x="234" y="116" type="curve" smooth="yes"/>
      <point x="206" y="116"/>
      <point x="158" y="109"/>
      <point x="130" y="109" type="curve" smooth="yes"/>
      <point x="83" y="109"/>
      <point x="60" y="128"/>
      <point x="60" y="162" type="curve" smooth="yes"/>
      <point x="60" y="179"/>
      <point x="65" y="198"/>
      <point x="71" y="213" type="curve"/>
      <point x="44" y="224" type="line"/>
      <point x="34" y="204"/>
      <point x="27" y="180"/>
      <point x="27" y="158" type="curve" smooth="yes"/>
      <point x="27" y="94"/>
      <point x="80" y="44"/>
      <point x="151" y="44" type="curve" smooth="yes"/>
      <point x="186" y="44"/>
      <point x="254" y="56"/>
      <point x="283" y="56" type="curve" smooth="yes"/>
      <point x="327" y="56"/>
      <point x="349" y="27"/>
      <point x="352" y="-14" type="curve"/>
    </contour>
    <contour>
      <point x="222" y="341"/>
      <point x="234" y="343"/>
      <point x="246" y="346" type="curve"/>
      <point x="255" y="390" type="line"/>
      <point x="234" y="380"/>
      <point x="219" y="376"/>
      <point x="206" y="376" type="curve" smooth="yes"/>
      <point x="168" y="376"/>
      <point x="148" y="399"/>
      <point x="148" y="421" type="curve" smooth="yes"/>
      <point x="148" y="443"/>
      <point x="167" y="461"/>
      <point x="196" y="461" type="curve" smooth="yes"/>
      <point x="206" y="461"/>
      <point x="221" y="459"/>
      <point x="235" y="454" type="curve"/>
      <point x="194" y="494" type="line"/>
      <point x="175" y="486"/>
      <point x="168" y="468"/>
      <point x="168" y="454" type="curve" smooth="yes"/>
      <point x="168" y="431"/>
      <point x="188" y="415"/>
      <point x="211" y="415" type="curve" smooth="yes"/>
      <point x="235" y="415"/>
      <point x="256" y="433"/>
      <point x="256" y="460" type="curve" smooth="yes"/>
      <point x="256" y="491"/>
      <point x="227" y="517"/>
      <point x="183" y="517" type="curve" smooth="yes"/>
      <point x="134" y="517"/>
      <point x="95" y="483"/>
      <point x="95" y="435" type="curve" smooth="yes"/>
      <point x="95" y="381"/>
      <point x="149" y="341"/>
      <point x="211" y="341" type="curve" smooth="yes"/>
    </contour>
    <contour>
      <point x="540" y="178"/>
      <point x="579" y="222"/>
      <point x="579" y="281" type="curve" smooth="yes"/>
      <point x="579" y="342"/>
      <point x="537" y="394"/>
      <point x="486" y="394" type="curve" smooth="yes"/>
      <point x="453" y="394"/>
      <point x="429" y="370"/>
      <point x="429" y="341" type="curve" smooth="yes"/>
      <point x="429" y="312"/>
      <point x="452" y="292"/>
      <point x="478" y="292" type="curve" smooth="yes"/>
      <point x="505" y="292"/>
      <point x="522" y="312"/>
      <point x="522" y="334" type="curve" smooth="yes"/>
      <point x="522" y="347"/>
      <point x="516" y="359"/>
      <point x="507" y="364" type="curve"/>
      <point x="493" y="346" type="line"/>
      <point x="498" y="348"/>
      <point x="503" y="349"/>
      <point x="508" y="349" type="curve" smooth="yes"/>
      <point x="528" y="349"/>
      <point x="544" y="329"/>
      <point x="544" y="303" type="curve" smooth="yes"/>
      <point x="544" y="268"/>
      <point x="515" y="241"/>
      <point x="478" y="241" type="curve" smooth="yes"/>
      <point x="442" y="241"/>
      <point x="402" y="269"/>
      <point x="380" y="320" type="curve"/>
      <point x="367" y="294" type="line"/>
      <point x="394" y="222"/>
      <point x="438" y="178"/>
      <point x="489" y="178" type="curve" smooth="yes"/>
    </contour>
  </outline>
</glyph>
<glyph name="bDhRa_bSignUu" format="1">
  <advance width="582"/>
  <outline>
    <contour>
      <point x="387" y="46" type="line"/>
      <point x="387" y="456" type="line"/>
      <point x="597" y="456" type="line"/>
      <point x="597" y="499" type="line"/>
      <point x="337" y="499" type="line"/>
      <point x="337" y="108" type="line"/>
      <point x="357" y="114" type="line"/>
      <point x="309" y="204"/>
      <point x="215" y="252"/>
      <point x="117" y="270" type="curve"/>
      <point x="120" y="230" type="line"/>
      <point x="195" y="285"/>
      <point x="272" y="328"/>
      <point x="355" y="366" type="curve"/>
      <point x="347" y="439" type="line"/>
      <point x="249" y="390"/>
      <point x="159" y="339"/>
      <point x="71" y="279" type="curve"/>
      <point x="133" y="194" type="line"/>
      <point x="260" y="182"/>
      <point x="340" y="130"/>
      <point x="350" y="46" type="curve"/>
    </contour>
    <contour>
      <point x="386" y="-14" type="line"/>
      <point x="386" y="136" type="line"/>
      <point x="349" y="136" type="line"/>
      <point x="349" y="32" type="line"/>
      <point x="362" y="22" type="line"/>
      <point x="343" y="81"/>
      <point x="295" y="116"/>
      <point x="234" y="116" type="curve" smooth="yes"/>
      <point x="206" y="116"/>
      <point x="158" y="109"/>
      <point x="130" y="109" type="curve" smooth="yes"/>
      <point x="84" y="109"/>
      <point x="60" y="128"/>
      <point x="60" y="163" type="curve" smooth="yes"/>
      <point x="60" y="178"/>
      <point x="65" y="197"/>
      <point x="71" y="213" type="curve"/>
      <point x="44" y="224" type="line"/>
      <point x="34" y="204"/>
      <point x="27" y="179"/>
      <point x="27" y="158" type="curve" smooth="yes"/>
      <point x="27" y="94"/>
      <point x="80" y="44"/>
      <point x="151" y="44" type="curve" smooth="yes"/>
      <point x="186" y="44"/>
      <point x="254" y="56"/>
      <point x="283" y="56" type="curve" smooth="yes"/>
      <point x="327" y="56"/>
      <point x="349" y="27"/>
      <point x="352" y="-14" type="curve"/>
    </contour>
    <contour>
      <point x="222" y="341"/>
      <point x="234" y="343"/>
      <point x="246" y="346" type="curve"/>
      <point x="255" y="390" type="line"/>
      <point x="234" y="380"/>
      <point x="219" y="376"/>
      <point x="206" y="376" type="curve" smooth="yes"/>
      <point x="168" y="376"/>
      <point x="148" y="399"/>
      <point x="148" y="421" type="curve" smooth="yes"/>
      <point x="148" y="443"/>
      <point x="167" y="461"/>
      <point x="196" y="461" type="curve" smooth="yes"/>
      <point x="206" y="461"/>
      <point x="221" y="459"/>
      <point x="235" y="454" type="curve"/>
      <point x="194" y="494" type="line"/>
      <point x="175" y="486"/>
      <point x="168" y="468"/>
      <point x="168" y="454" type="curve" smooth="yes"/>
      <point x="168" y="431"/>
      <point x="188" y="415"/>
      <point x="211" y="415" type="curve" smooth="yes"/>
      <point x="235" y="415"/>
      <point x="256" y="433"/>
      <point x="256" y="460" type="curve" smooth="yes"/>
      <point x="256" y="491"/>
      <point x="227" y="517"/>
      <point x="183" y="517" type="curve" smooth="yes"/>
      <point x="134" y="517"/>
      <point x="95" y="483"/>
      <point x="95" y="435" type="curve" smooth="yes"/>
      <point x="95" y="381"/>
      <point x="149" y="341"/>
      <point x="211" y="341" type="curve" smooth="yes"/>
    </contour>
    <contour>
      <point x="552" y="30" type="line"/>
      <point x="534" y="47"/>
      <point x="523" y="70"/>
      <point x="523" y="97" type="curve" smooth="yes"/>
      <point x="523" y="305" type="line" smooth="yes"/>
      <point x="523" y="346"/>
      <point x="481" y="395"/>
      <point x="448" y="395" type="curve" smooth="yes"/>
      <point x="429" y="395"/>
      <point x="393" y="379"/>
      <point x="360" y="349" type="curve"/>
      <point x="379" y="295" type="line"/>
      <point x="408" y="322"/>
      <point x="446" y="342"/>
      <point x="464" y="342" type="curve" smooth="yes"/>
      <point x="470" y="342"/>
      <point x="474" y="338"/>
      <point x="474" y="327" type="curve" smooth="yes"/>
      <point x="474" y="117" type="line" smooth="yes"/>
      <point x="474" y="61"/>
      <point x="499" y="32"/>
      <point x="537" y="8" type="curve"/>
    </contour>
  </outline>
</glyph>
<glyph name="bDha" format="1">
  <advance width="401"/>
  <outline>
    <contour>
      <point x="335" y="0" type="line"/>
      <point x="335" y="456" type="line"/>
      <point x="415" y="456" type="line"/>
      <point x="415" y="499" type="line"/>
      <point x="285" y="499" type="line"/>
      <point x="285" y="62" type="line"/>
      <point x="305" y="68" type="line"/>
      <point x="257" y="173"/>
      <point x="163" y="228"/>
      <point x="62" y="256" type="curve"/>
      <point x="65" y="218" type="line"/>
      <point x="142" y="278"/>
      <point x="219" y="324"/>
      <point x="303" y="366" type="curve"/>
      <point x="296" y="439" type="line"/>
      <point x="196" y="387"/>
      <point x="104" y="333"/>
      <point x="16" y="265" type="curve"/>
      <point x="78" y="180" type="line"/>
      <point x="209" y="159"/>
      <point x="290" y="82"/>
      <point x="301" y="0" type="curve"/>
    </contour>
    <contour>
      <point x="172" y="340"/>
      <point x="183" y="341"/>
      <point x="195" y="345" type="curve"/>
      <point x="206" y="389" type="line"/>
      <point x="183" y="379"/>
      <point x="170" y="376"/>
      <point x="155" y="376" type="curve" smooth="yes"/>
      <point x="117" y="376"/>
      <point x="97" y="399"/>
      <point x="97" y="421" type="curve" smooth="yes"/>
      <point x="97" y="443"/>
      <point x="116" y="461"/>
      <point x="145" y="461" type="curve" smooth="yes"/>
      <point x="155" y="461"/>
      <point x="170" y="459"/>
      <point x="184" y="454" type="curve"/>
      <point x="143" y="494" type="line"/>
      <point x="124" y="486"/>
      <point x="117" y="468"/>
      <point x="117" y="454" type="curve" smooth="yes"/>
      <point x="117" y="431"/>
      <point x="137" y="415"/>
      <point x="160" y="415" type="curve" smooth="yes"/>
      <point x="184" y="415"/>
      <point x="205" y="433"/>
      <point x="205" y="460" type="curve" smooth="yes"/>
      <point x="205" y="491"/>
      <point x="176" y="517"/>
      <point x="132" y="517" type="curve" smooth="yes"/>
      <point x="83" y="517"/>
      <point x="44" y="483"/>
      <point x="44" y="435" type="curve" smooth="yes"/>
      <point x="44" y="380"/>
      <point x="98" y="340"/>
      <point x="160" y="340" type="curve" smooth="yes"/>
    </contour>
  </outline>
</glyph>
<glyph name="bEight" format="1">
  <advance width="476"/>
  <outline>
    <contour>
      <point x="238" y="-2"/>
      <point x="343" y="106"/>
      <point x="343" y="183" type="curve" smooth="yes"/>
      <point x="343" y="242"/>
      <point x="281" y="316"/>
      <point x="218" y="316" type="curve" smooth="yes"/>
      <point x="188" y="316"/>
      <point x="137" y="299"/>
      <point x="98" y="282" type="curve"/>
      <point x="115" y="229" type="line"/>
      <point x="153" y="248"/>
      <point x="204" y="260"/>
      <point x="234" y="260" type="curve" smooth="yes"/>
      <point x="269" y="260"/>
      <point x="286" y="243"/>
      <point x="286" y="213" type="curve" smooth="yes"/>
      <point x="286" y="143"/>
      <point x="191" y="51"/>
      <point x="148" y="51" type="curve" smooth="yes"/>
      <point x="133" y="51"/>
      <point x="125" y="61"/>
      <point x="125" y="81" type="curve" smooth="yes"/>
      <point x="125" y="419" type="line" smooth="yes"/>
      <point x="125" y="469"/>
      <point x="101" y="506"/>
      <point x="64" y="506" type="curve" smooth="yes"/>
      <point x="37" y="506"/>
      <point x="15" y="485"/>
      <point x="15" y="457" type="curve" smooth="yes"/>
      <point x="15" y="429"/>
      <point x="36" y="408"/>
      <point x="64" y="408" type="curve" smooth="yes"/>
      <point x="81" y="408"/>
      <point x="99" y="415"/>
      <point x="112" y="434" type="curve"/>
      <point x="76" y="455" type="line"/>
      <point x="76" y="113" type="line" smooth="yes"/>
      <point x="76" y="51"/>
      <point x="125" y="-2"/>
      <point x="171" y="-2" type="curve" smooth="yes"/>
    </contour>
    <contour>
      <point x="327" y="254"/>
      <point x="342" y="262"/>
      <point x="360" y="262" type="curve" smooth="yes"/>
      <point x="379" y="262"/>
      <point x="392" y="253"/>
      <point x="411" y="253" type="curve" smooth="yes"/>
      <point x="448" y="253"/>
      <point x="464" y="288"/>
      <point x="476" y="322" type="curve"/>
      <point x="452" y="333" type="line"/>
      <point x="445" y="319"/>
      <point x="436" y="312"/>
      <point x="422" y="312" type="curve" smooth="yes"/>
      <point x="409" y="312"/>
      <point x="393" y="319"/>
      <point x="369" y="319" type="curve" smooth="yes"/>
      <point x="336" y="319"/>
      <point x="314" y="305"/>
      <point x="294" y="258" type="curve"/>
      <point x="313" y="231" type="line"/>
    </contour>
  </outline>
</glyph>
<glyph name="bFive" format="1">
  <advance width="436"/>
  <outline>
    <contour>
      <point x="313" y="8"/>
      <point x="361" y="25"/>
      <point x="399" y="48" type="curve"/>
      <point x="378" y="86" type="line"/>
      <point x="307" y="99"/>
      <point x="281" y="135"/>
      <point x="281" y="169" type="curve" smooth="yes"/>
      <point x="281" y="209"/>
      <point x="315" y="261"/>
      <point x="402" y="331" type="curve"/>
      <point x="360" y="377" type="line"/>
      <point x="353" y="375"/>
      <point x="345" y="373"/>
      <point x="334" y="373" type="curve" smooth="yes"/>
      <point x="295" y="373"/>
      <point x="275" y="395"/>
      <point x="275" y="422" type="curve" smooth="yes"/>
      <point x="275" y="436"/>
      <point x="281" y="448"/>
      <point x="290" y="458" type="curve"/>
      <point x="247" y="509" type="line"/>
      <point x="126" y="435"/>
      <point x="46" y="340"/>
      <point x="46" y="228" type="curve" smooth="yes"/>
      <point x="46" y="106"/>
      <point x="141" y="8"/>
      <point x="263" y="8" type="curve" smooth="yes"/>
    </contour>
    <contour>
      <point x="170" y="53"/>
      <point x="102" y="115"/>
      <point x="102" y="209" type="curve" smooth="yes"/>
      <point x="102" y="300"/>
      <point x="165" y="383"/>
      <point x="258" y="439" type="curve"/>
      <point x="236" y="488" type="line"/>
      <point x="228" y="470"/>
      <point x="225" y="454"/>
      <point x="225" y="439" type="curve" smooth="yes"/>
      <point x="225" y="371"/>
      <point x="286" y="334"/>
      <point x="348" y="334" type="curve" smooth="yes"/>
      <point x="360" y="334"/>
      <point x="369" y="335"/>
      <point x="378" y="337" type="curve"/>
      <point x="346" y="363" type="line"/>
      <point x="255" y="294"/>
      <point x="224" y="234"/>
      <point x="224" y="187" type="curve" smooth="yes"/>
      <point x="224" y="127"/>
      <point x="271" y="74"/>
      <point x="370" y="54" type="curve"/>
      <point x="355" y="75" type="line"/>
      <point x="320" y="59"/>
      <point x="286" y="53"/>
      <point x="258" y="53" type="curve" smooth="yes"/>
    </contour>
  </outline>
</glyph>
